source-code-pro_semibold.sfdir

StartChar: exclam
Encoding: 33 33 486
Width: 600
Flags: MW
HStem: -12 21G<275.5 324.5> -12 178<275.5 324.5>
VStem: 213 174<51 104.5> 244.5 111 254 92
LayerCount: 2
Fore
SplineSet
262 244 m 1x88
 246 556 l 1
 243 670 l 1
 357 670 l 1
 354 556 l 1
 338 244 l 1x90
 262 244 l 1x88
213 78 m 0xa0
 213 131 251 166 300 166 c 0x60
 349 166 387 131 387 78 c 0
 387 24 349 -12 300 -12 c 0
 251 -12 213 24 213 78 c 0xa0
EndSplineSet
EndChar

StartChar: quotedbl
Encoding: 34 34 491
Width: 600
Flags: MW
HStem: 327 359<139 139 139 213 387 461 387 387>
VStem: 107.5 137 355.5 137
LayerCount: 2
Fore
SplineSet
139 327 m 1
 109 558 l 1
 106 686 l 1
 246 686 l 1
 243 558 l 1
 213 327 l 1
 139 327 l 1
387 327 m 1
 357 558 l 1
 354 686 l 1
 494 686 l 1
 491 558 l 1
 461 327 l 1
 387 327 l 1
EndSplineSet
EndChar

StartChar: numbersign
Encoding: 35 35 533
Width: 600
Flags: MW
HStem: 0 21G<132 132 132 202 319 319 319 389> 195 76<78 155 78 164 78 225 234 343 422 506> 400 76<98 180 98 189 98 250 259 368 447 526>
VStem: 78 448<195 476 271 476>
LayerCount: 2
Fore
SplineSet
132 0 m 1
 155 195 l 1
 78 195 l 1
 78 271 l 1
 164 271 l 1
 180 400 l 1
 98 400 l 1
 98 476 l 1
 189 476 l 1
 212 650 l 1
 280 650 l 1
 259 476 l 1
 377 476 l 1
 399 650 l 1
 468 650 l 1
 447 476 l 1
 526 476 l 1
 526 400 l 1
 438 400 l 1
 422 271 l 1
 506 271 l 1
 506 195 l 1
 413 195 l 1
 389 0 l 1
 319 0 l 1
 343 195 l 1
 225 195 l 1
 202 0 l 1
 132 0 l 1
234 271 m 1
 352 271 l 1
 368 400 l 1
 250 400 l 1
 234 271 l 1
EndSplineSet
EndChar

StartChar: dollar
Encoding: 36 36 630
Width: 600
Flags: MW
HStem: 35 93<265 341> 524 222<274.5 332.5>
VStem: 102 111<415 480 415 501> 265 80<-110 35 35 35 616 746> 406 112<174 245.5>
LayerCount: 2
Fore
SplineSet
504 537 m 1
 446 470 l 1
 399 505 363 524 302 524 c 0
 247 524 213 500 213 460 c 0
 213 370 518 385 518 202 c 0
 518 117 454 53 345 37 c 1
 345 -110 l 1
 265 -110 l 1
 265 35 l 1
 196 42 123 73 74 114 c 1
 126 193 l 1
 183 155 240 128 309 128 c 0
 373 128 406 154 406 194 c 0
 406 297 102 279 102 458 c 0
 102 544 166 602 265 615 c 1
 265 746 l 1
 345 746 l 1
 345 616 l 1
 415 608 463 578 504 537 c 1
EndSplineSet
Substitution2: "'ss04' Style Set 4 in Latin lookup 20 subtable" dollar.a
Substitution2: "'aalt' Access All Alternates in Latin lookup 0 subtable" dollar.a
EndChar

StartChar: percent
Encoding: 37 37 649
Width: 600
Flags: MW
HStem: -12 64<414 448 414 472.5> 256 64<414 448> 316 64<152 186 152 210.5> 584 64<152 186>
VStem: 25 82<447.5 521 447.5 536> 231 82<447.5 521> 287 82<119.5 193 119.5 208> 493 82<119.5 193>
LayerCount: 2
Fore
SplineSet
169 316 m 0xbd
 86 316 25 380 25 484 c 0
 25 588 86 648 169 648 c 0
 252 648 313 588 313 484 c 0
 313 380 252 316 169 316 c 0xbd
169 380 m 0
 203 380 231 411 231 484 c 0
 231 558 203 584 169 584 c 0
 135 584 107 558 107 484 c 0
 107 411 135 380 169 380 c 0
85 30 m 1
 23 89 l 1
 208 270 l 1
 250 231 l 1
 85 30 l 1
516 624 m 1
 578 565 l 1
 393 384 l 1
 351 423 l 1
 516 624 l 1
431 -12 m 0xc3
 348 -12 287 52 287 156 c 0
 287 260 348 320 431 320 c 0
 514 320 575 260 575 156 c 0
 575 52 514 -12 431 -12 c 0xc3
431 52 m 0
 465 52 493 83 493 156 c 0
 493 230 465 256 431 256 c 0
 397 256 369 230 369 156 c 0
 369 83 397 52 431 52 c 0
EndSplineSet
EndChar

StartChar: ampersand
Encoding: 38 38 460
Width: 600
Flags: MW
HStem: -12 89<218.5 265 218.5 271.5> 588 78<239.5 276>
VStem: 32 110<148.5 198.5 148.5 215.5> 103 96<489 529 489 548> 308 90<501.5 543.5>
LayerCount: 2
Fore
SplineSet
142 179 m 0xe8
 142 118 188 77 249 77 c 0
 281 77 312 91 340 115 c 1
 285 163 233 220 192 279 c 1
 163 250 142 218 142 179 c 0xe8
199 504 m 0xd8
 199 474 208 442 224 409 c 1
 271 442 308 477 308 526 c 0
 308 561 295 588 257 588 c 0
 222 588 199 554 199 504 c 0xd8
582 82 m 1
 553 -12 l 1
 508 0 462 23 415 56 c 1
 367 15 308 -12 235 -12 c 0
 109 -12 32 69 32 172 c 0xe8
 32 259 86 312 146 355 c 1
 119 408 103 459 103 503 c 0
 103 593 163 666 256 666 c 0
 345 666 398 610 398 527 c 0
 398 443 331 390 265 339 c 1
 303 286 352 234 404 191 c 1
 434 238 457 295 472 361 c 1
 578 361 l 1
 556 279 524 202 480 134 c 1
 517 109 551 91 582 82 c 1
EndSplineSet
EndChar

StartChar: quotesingle
Encoding: 39 39 490
Width: 600
Flags: MW
HStem: 327 359<263 263 263 337>
VStem: 231.5 137
LayerCount: 2
Fore
SplineSet
263 327 m 1
 233 558 l 1
 230 686 l 1
 370 686 l 1
 367 558 l 1
 337 327 l 1
 263 327 l 1
EndSplineSet
EndChar

StartChar: parenleft
Encoding: 40 40 511
Width: 600
Flags: MW
HStem: -177 910<412 412>
VStem: 194 99<196.5 359.5 196.5 373>
LayerCount: 2
Fore
SplineSet
412 -177 m 1
 278 -66 194 88 194 278 c 0
 194 468 278 622 412 733 c 1
 476 680 l 1
 349 565 293 441 293 278 c 0
 293 115 349 -9 476 -124 c 1
 412 -177 l 1
EndSplineSet
Substitution2: "'subs' Subscript in Latin lookup 14 subtable" parenleft.subs
Substitution2: "'sups' Superscript in Latin lookup 13 subtable" parenleft.sups
Substitution2: "'dnom' Denominators in Latin lookup 9 subtable" parenleft.dnom
Substitution2: "'numr' Numerators in Latin lookup 8 subtable" parenleft.numr
AlternateSubs2: "'aalt' Access All Alternates in Latin lookup 1 subtable" parenleft.numr parenleft.dnom parenleft.sups parenleft.subs
EndChar

StartChar: parenright
Encoding: 41 41 512
Width: 600
Flags: MW
HStem: -177 910<188 188>
VStem: 307 99<196.5 359.5>
LayerCount: 2
Fore
SplineSet
188 -177 m 1
 124 -124 l 1
 251 -9 307 115 307 278 c 0
 307 441 251 565 124 680 c 1
 188 733 l 1
 322 622 406 468 406 278 c 0
 406 88 322 -66 188 -177 c 1
EndSplineSet
Substitution2: "'subs' Subscript in Latin lookup 14 subtable" parenright.subs
Substitution2: "'sups' Superscript in Latin lookup 13 subtable" parenright.sups
Substitution2: "'dnom' Denominators in Latin lookup 9 subtable" parenright.dnom
Substitution2: "'numr' Numerators in Latin lookup 8 subtable" parenright.numr
AlternateSubs2: "'aalt' Access All Alternates in Latin lookup 1 subtable" parenright.numr parenright.dnom parenright.sups parenright.subs
EndChar

StartChar: asterisk
Encoding: 42 42 521
Width: 600
Flags: MW
HStem: 101 460<182 332 268 418>
VStem: 263 74
LayerCount: 2
Fore
SplineSet
182 101 m 1
 129 138 l 1
 232 299 l 1
 74 368 l 1
 93 427 l 1
 258 378 l 1
 268 561 l 1
 332 561 l 1
 342 378 l 1
 507 427 l 1
 526 368 l 1
 368 299 l 1
 471 138 l 1
 418 101 l 1
 300 251 l 1
 182 101 l 1
EndSplineSet
Substitution2: "'ss01' Style Set 1 in Latin lookup 17 subtable" asterisk.a
Substitution2: "'aalt' Access All Alternates in Latin lookup 0 subtable" asterisk.a
EndChar

StartChar: plus
Encoding: 43 43 660
Width: 600
Flags: MW
HStem: 288 84<78 256 78 256 344 522>
VStem: 256 88<99 288 99 288 372 561>
LayerCount: 2
Fore
SplineSet
256 99 m 1
 256 288 l 1
 78 288 l 1
 78 372 l 1
 256 372 l 1
 256 561 l 1
 344 561 l 1
 344 372 l 1
 522 372 l 1
 522 288 l 1
 344 288 l 1
 344 99 l 1
 256 99 l 1
EndSplineSet
EndChar

StartChar: comma
Encoding: 44 44 482
Width: 600
Flags: MW
HStem: 7 178<279 305.5>
VStem: 317 96
LayerCount: 2
Fore
SplineSet
219 -215 m 1
 189 -146 l 1
 274 -112 316 -62 317 8 c 1
 312 7 308 7 303 7 c 0
 253 7 209 38 209 96 c 0
 209 151 253 185 305 185 c 0
 376 185 413 128 413 35 c 0
 413 -87 343 -174 219 -215 c 1
EndSplineSet
Substitution2: "'subs' Subscript in Latin lookup 14 subtable" comma.subs
Substitution2: "'sups' Superscript in Latin lookup 13 subtable" comma.sups
Substitution2: "'dnom' Denominators in Latin lookup 9 subtable" comma.dnom
Substitution2: "'numr' Numerators in Latin lookup 8 subtable" comma.numr
AlternateSubs2: "'aalt' Access All Alternates in Latin lookup 1 subtable" comma.numr comma.dnom comma.sups comma.subs
EndChar

StartChar: hyphen
Encoding: 45 45 502
Width: 600
Flags: MW
HStem: 288 84<78 522 78 522>
VStem: 78 444<288 372 288 372>
LayerCount: 2
Fore
SplineSet
78 288 m 1
 78 372 l 1
 522 372 l 1
 522 288 l 1
 78 288 l 1
EndSplineSet
Substitution2: "'ss01' Style Set 1 in Latin lookup 17 subtable" hyphen.a
Substitution2: "'aalt' Access All Alternates in Latin lookup 0 subtable" hyphen.a
EndChar

StartChar: period
Encoding: 46 46 481
Width: 600
Flags: MW
HStem: -12 202<271.5 328.5>
VStem: 201 198<60 118>
LayerCount: 2
Fore
SplineSet
201 89 m 0
 201 147 243 190 300 190 c 0
 357 190 399 147 399 89 c 0
 399 31 357 -12 300 -12 c 0
 243 -12 201 31 201 89 c 0
EndSplineSet
Substitution2: "'subs' Subscript in Latin lookup 14 subtable" period.subs
Substitution2: "'sups' Superscript in Latin lookup 13 subtable" period.sups
Substitution2: "'dnom' Denominators in Latin lookup 9 subtable" period.dnom
Substitution2: "'numr' Numerators in Latin lookup 8 subtable" period.numr
AlternateSubs2: "'aalt' Access All Alternates in Latin lookup 1 subtable" period.numr period.dnom period.sups period.subs
EndChar

StartChar: slash
Encoding: 47 47 517
Width: 600
Flags: MW
HStem: -160 870<86 514 86 514>
VStem: 86 428
LayerCount: 2
Fore
SplineSet
514 710 m 1
 185 -160 l 1
 86 -160 l 1
 415 710 l 1
 514 710 l 1
EndSplineSet
Substitution2: "'frac' Diagonal Fractions in Latin lookup 10 subtable" slash.frac
EndChar

StartChar: zero
Encoding: 48 48 461
Width: 600
Flags: MW
HStem: -12 90<262 338 262 372.5> 254 142<281 319> 558 90<262 338>
VStem: 64 104<234 408 234 428.5> 231 138<303 347> 432 104<234 408>
LayerCount: 2
Fore
SplineSet
300 -12 m 0
 155 -12 64 107 64 321 c 0
 64 536 155 648 300 648 c 0
 445 648 536 536 536 321 c 0
 536 107 445 -12 300 -12 c 0
300 558 m 0
 224 558 168 495 168 321 c 0
 168 147 224 78 300 78 c 0
 376 78 432 147 432 321 c 0
 432 495 376 558 300 558 c 0
300 254 m 0
 262 254 231 281 231 325 c 0
 231 369 262 396 300 396 c 0
 338 396 369 369 369 325 c 0
 369 281 338 254 300 254 c 0
EndSplineSet
Substitution2: "'onum' Oldstyle Figures in Latin lookup 15 subtable" zero.onum
Substitution2: "'subs' Subscript in Latin lookup 14 subtable" zero.subs
Substitution2: "'sups' Superscript in Latin lookup 13 subtable" zero.sups
Substitution2: "'dnom' Denominators in Latin lookup 9 subtable" zero.dnom
Substitution2: "'numr' Numerators in Latin lookup 8 subtable" zero.numr
AlternateSubs2: "'aalt' Access All Alternates in Latin lookup 1 subtable" zero.numr zero.dnom zero.sups zero.subs zero.onum
EndChar

StartChar: one
Encoding: 49 49 462
Width: 600
Flags: MW
HStem: 0 94<90 262 377 533 90 262> 512 124<129 377>
VStem: 262 115<94 512 512 512>
LayerCount: 2
Fore
SplineSet
377 94 m 1
 533 94 l 1
 533 0 l 1
 90 0 l 1
 90 94 l 1
 262 94 l 1
 262 512 l 1
 129 512 l 1
 129 584 l 1
 200 596 249 612 293 636 c 1
 377 636 l 1
 377 94 l 1
EndSplineSet
Substitution2: "'onum' Oldstyle Figures in Latin lookup 15 subtable" one.onum
Substitution2: "'subs' Subscript in Latin lookup 14 subtable" one.subs
Substitution2: "'sups' Superscript in Latin lookup 13 subtable" one.sups
Substitution2: "'dnom' Denominators in Latin lookup 9 subtable" one.dnom
Substitution2: "'numr' Numerators in Latin lookup 8 subtable" one.numr
AlternateSubs2: "'aalt' Access All Alternates in Latin lookup 1 subtable" one.numr one.dnom one.sups one.subs one.onum
EndChar

StartChar: two
Encoding: 50 50 463
Width: 600
Flags: MW
HStem: 0 98<348 528 348 528> 557 91<235.5 303>
VStem: 385 110<397.5 480.5>
LayerCount: 2
Fore
SplineSet
65 0 m 1
 65 67 l 1
 264 238 385 348 385 447 c 0
 385 514 343 557 263 557 c 0
 208 557 161 524 123 486 c 1
 60 550 l 1
 121 612 185 648 278 648 c 0
 409 648 495 571 495 453 c 0
 495 340 380 224 232 91 c 1
 269 94 313 98 348 98 c 2
 528 98 l 1
 528 0 l 1
 65 0 l 1
EndSplineSet
Substitution2: "'onum' Oldstyle Figures in Latin lookup 15 subtable" two.onum
Substitution2: "'subs' Subscript in Latin lookup 14 subtable" two.subs
Substitution2: "'sups' Superscript in Latin lookup 13 subtable" two.sups
Substitution2: "'dnom' Denominators in Latin lookup 9 subtable" two.dnom
Substitution2: "'numr' Numerators in Latin lookup 8 subtable" two.numr
AlternateSubs2: "'aalt' Access All Alternates in Latin lookup 1 subtable" two.numr two.dnom two.sups two.subs two.onum
EndChar

StartChar: three
Encoding: 51 51 464
Width: 600
Flags: MW
HStem: -12 94<238.5 312 238.5 348> 286 84<198 266.5 198 276.5> 557 91<247.5 309>
VStem: 198 176<330 334 330 370 330 370> 387 116<444.5 498.5> 409 116<148 211>
LayerCount: 2
Fore
SplineSet
50 78 m 1xf4
 104 152 l 1
 146 113 204 82 273 82 c 0
 351 82 409 118 409 178 c 0
 409 244 355 286 198 286 c 1xf4
 198 370 l 1
 335 370 387 413 387 472 c 0
 387 525 343 557 275 557 c 0
 220 557 172 533 130 497 c 1
 70 568 l 1
 128 616 198 648 280 648 c 0
 410 648 503 588 503 480 c 0xf8
 503 409 452 361 374 334 c 1
 374 330 l 1
 457 310 525 256 525 172 c 0
 525 56 413 -12 283 -12 c 0
 174 -12 97 28 50 78 c 1xf4
EndSplineSet
Substitution2: "'onum' Oldstyle Figures in Latin lookup 15 subtable" three.onum
Substitution2: "'subs' Subscript in Latin lookup 14 subtable" three.subs
Substitution2: "'sups' Superscript in Latin lookup 13 subtable" three.sups
Substitution2: "'dnom' Denominators in Latin lookup 9 subtable" three.dnom
Substitution2: "'numr' Numerators in Latin lookup 8 subtable" three.numr
AlternateSubs2: "'aalt' Access All Alternates in Latin lookup 1 subtable" three.numr three.dnom three.sups three.subs three.onum
EndChar

StartChar: four
Encoding: 52 52 465
Width: 600
Flags: MW
HStem: 0 21G<354 462 354 354> 164 89<154 354 154 354 462 552> 531 106<355 360 355 355>
VStem: 354 108<0 164 0 164 253 405 405 405>
LayerCount: 2
Fore
SplineSet
154 253 m 1
 354 253 l 1
 354 405 l 1
 355 443 358 493 360 531 c 1
 355 531 l 1
 334 498 310 464 288 430 c 1
 154 253 l 1
552 253 m 1
 552 164 l 1
 462 164 l 1
 462 0 l 1
 354 0 l 1
 354 164 l 1
 37 164 l 1
 37 242 l 1
 329 637 l 1
 462 637 l 1
 462 253 l 1
 552 253 l 1
EndSplineSet
Substitution2: "'onum' Oldstyle Figures in Latin lookup 15 subtable" four.onum
Substitution2: "'subs' Subscript in Latin lookup 14 subtable" four.subs
Substitution2: "'sups' Superscript in Latin lookup 13 subtable" four.sups
Substitution2: "'dnom' Denominators in Latin lookup 9 subtable" four.dnom
Substitution2: "'numr' Numerators in Latin lookup 8 subtable" four.numr
AlternateSubs2: "'aalt' Access All Alternates in Latin lookup 1 subtable" four.numr four.dnom four.sups four.subs four.onum
EndChar

StartChar: five
Encoding: 53 53 466
Width: 600
Flags: MW
HStem: -12 94<233.5 310 233.5 347.5> 323 83<288.5 315.5> 539 97<222 497 222 222>
VStem: 112 103 411 116<165.5 242>
LayerCount: 2
Fore
SplineSet
51 76 m 1
 104 150 l 1
 147 114 197 82 270 82 c 0
 350 82 411 127 411 204 c 0
 411 280 356 323 275 323 c 0
 228 323 201 312 157 287 c 1
 102 322 l 1
 122 636 l 1
 497 636 l 1
 497 539 l 1
 222 539 l 1
 208 385 l 1
 241 398 269 406 308 406 c 0
 428 406 527 344 527 207 c 0
 527 68 411 -12 284 -12 c 0
 172 -12 102 29 51 76 c 1
EndSplineSet
Substitution2: "'onum' Oldstyle Figures in Latin lookup 15 subtable" five.onum
Substitution2: "'subs' Subscript in Latin lookup 14 subtable" five.subs
Substitution2: "'sups' Superscript in Latin lookup 13 subtable" five.sups
Substitution2: "'dnom' Denominators in Latin lookup 9 subtable" five.dnom
Substitution2: "'numr' Numerators in Latin lookup 8 subtable" five.numr
AlternateSubs2: "'aalt' Access All Alternates in Latin lookup 1 subtable" five.numr five.dnom five.sups five.subs five.onum
EndChar

StartChar: six
Encoding: 54 54 467
Width: 600
Flags: MW
HStem: -12 88<282.5 349.5 282.5 378> 310 84<314 354> 554 94<303 370.5>
VStem: 68 107 433 107<158 235>
LayerCount: 2
Fore
SplineSet
318 76 m 0
 381 76 433 119 433 197 c 0
 433 273 390 310 318 310 c 0
 275 310 225 290 179 236 c 1
 193 124 247 76 318 76 c 0
529 576 m 1
 467 506 l 1
 438 534 393 554 348 554 c 0
 258 554 180 494 175 317 c 1
 224 365 286 394 342 394 c 0
 456 394 540 330 540 197 c 0
 540 70 437 -12 319 -12 c 0
 185 -12 68 85 68 299 c 0
 68 546 199 648 339 648 c 0
 423 648 486 616 529 576 c 1
EndSplineSet
Substitution2: "'onum' Oldstyle Figures in Latin lookup 15 subtable" six.onum
Substitution2: "'subs' Subscript in Latin lookup 14 subtable" six.subs
Substitution2: "'sups' Superscript in Latin lookup 13 subtable" six.sups
Substitution2: "'dnom' Denominators in Latin lookup 9 subtable" six.dnom
Substitution2: "'numr' Numerators in Latin lookup 8 subtable" six.numr
AlternateSubs2: "'aalt' Access All Alternates in Latin lookup 1 subtable" six.numr six.dnom six.sups six.subs six.onum
EndChar

StartChar: seven
Encoding: 55 55 468
Width: 600
Flags: MW
HStem: 0 21G<209 209 209 326> 539 97<66 409 66 536>
VStem: 209 117<0 0>
LayerCount: 2
Fore
SplineSet
209 0 m 1
 221 226 270 366 409 539 c 1
 66 539 l 1
 66 636 l 1
 536 636 l 1
 536 566 l 1
 370 381 337 249 326 0 c 1
 209 0 l 1
EndSplineSet
Substitution2: "'onum' Oldstyle Figures in Latin lookup 15 subtable" seven.onum
Substitution2: "'subs' Subscript in Latin lookup 14 subtable" seven.subs
Substitution2: "'sups' Superscript in Latin lookup 13 subtable" seven.sups
Substitution2: "'dnom' Denominators in Latin lookup 9 subtable" seven.dnom
Substitution2: "'numr' Numerators in Latin lookup 8 subtable" seven.numr
AlternateSubs2: "'aalt' Access All Alternates in Latin lookup 1 subtable" seven.numr seven.dnom seven.sups seven.subs seven.onum
EndChar

StartChar: nine
Encoding: 57 57 470
Width: 600
Flags: MW
HStem: -12 94<229 296.5 229 330.5> 243 83<245 285.5> 560 88<250.5 317.5>
VStem: 60 106<402 478.5 402 503.5> 425 106
LayerCount: 2
Fore
SplineSet
281 326 m 0
 325 326 375 347 421 401 c 1
 407 512 353 560 282 560 c 0
 219 560 166 517 166 440 c 0
 166 364 209 326 281 326 c 0
70 60 m 1
 132 130 l 1
 162 102 206 82 252 82 c 0
 341 82 419 142 425 319 c 1
 375 272 313 243 258 243 c 0
 143 243 60 307 60 440 c 0
 60 567 163 648 280 648 c 0
 415 648 531 552 531 338 c 0
 531 91 400 -12 261 -12 c 0
 177 -12 113 20 70 60 c 1
EndSplineSet
Substitution2: "'onum' Oldstyle Figures in Latin lookup 15 subtable" nine.onum
Substitution2: "'subs' Subscript in Latin lookup 14 subtable" nine.subs
Substitution2: "'sups' Superscript in Latin lookup 13 subtable" nine.sups
Substitution2: "'dnom' Denominators in Latin lookup 9 subtable" nine.dnom
Substitution2: "'numr' Numerators in Latin lookup 8 subtable" nine.numr
AlternateSubs2: "'aalt' Access All Alternates in Latin lookup 1 subtable" nine.numr nine.dnom nine.sups nine.subs nine.onum
EndChar

StartChar: colon
Encoding: 58 58 483
Width: 600
Flags: MW
HStem: -12 202<271.5 328.5> 328 203<271.5 328.5>
VStem: 201 198<60 118 400.5 458.5>
LayerCount: 2
Fore
SplineSet
201 430 m 0
 201 487 243 531 300 531 c 0
 357 531 399 487 399 430 c 0
 399 371 357 328 300 328 c 0
 243 328 201 371 201 430 c 0
201 89 m 0
 201 147 243 190 300 190 c 0
 357 190 399 147 399 89 c 0
 399 31 357 -12 300 -12 c 0
 243 -12 201 31 201 89 c 0
EndSplineSet
EndChar

StartChar: semicolon
Encoding: 59 59 484
Width: 600
Flags: MW
HStem: 7 178<279 305.5> 328 203<271.5 328.5>
VStem: 201 198<400.5 458.5> 317 96
LayerCount: 2
Fore
SplineSet
300 328 m 0xe0
 243 328 201 371 201 430 c 0
 201 487 243 531 300 531 c 0
 357 531 399 487 399 430 c 0
 399 371 357 328 300 328 c 0xe0
219 -215 m 1
 189 -146 l 1
 274 -112 316 -62 317 8 c 1
 312 7 308 7 303 7 c 0
 253 7 209 38 209 96 c 0
 209 151 253 185 305 185 c 0
 376 185 413 128 413 35 c 0xd0
 413 -87 343 -174 219 -215 c 1
EndSplineSet
EndChar

StartChar: less
Encoding: 60 60 666
Width: 600
Flags: MW
HStem: 39 586<498 498>
VStem: 118 97<330 334 330 373 330 373>
LayerCount: 2
Fore
SplineSet
118 291 m 1
 118 373 l 1
 498 625 l 1
 498 518 l 1
 215 334 l 1
 215 330 l 1
 498 146 l 1
 498 39 l 1
 118 291 l 1
EndSplineSet
EndChar

StartChar: equal
Encoding: 61 61 665
Width: 600
Flags: MW
HStem: 176 84<78 522 78 522> 400 84<78 522 78 522>
VStem: 78 444<176 260 176 260 400 484 176 484>
LayerCount: 2
Fore
SplineSet
78 400 m 1
 78 484 l 1
 522 484 l 1
 522 400 l 1
 78 400 l 1
78 176 m 1
 78 260 l 1
 522 260 l 1
 522 176 l 1
 78 176 l 1
EndSplineSet
EndChar

StartChar: greater
Encoding: 62 62 667
Width: 600
Flags: MW
HStem: 39 586<102 102>
VStem: 385 97<330 334 334 334>
LayerCount: 2
Fore
SplineSet
482 373 m 1
 482 291 l 1
 102 39 l 1
 102 146 l 1
 385 330 l 1
 385 334 l 1
 102 518 l 1
 102 625 l 1
 482 373 l 1
EndSplineSet
EndChar

StartChar: question
Encoding: 63 63 488
Width: 600
Flags: MW
HStem: -12 21G<261.5 310.5> -12 178<261.5 310.5> 588 94<262 313.5>
VStem: 199 174<51 104.5> 377 111<464 532>
LayerCount: 2
Fore
SplineSet
230 244 m 1xa8
 207 382 377 420 377 508 c 0
 377 556 342 588 285 588 c 0
 239 588 202 568 169 536 c 1
 104 596 l 1
 150 646 214 682 293 682 c 0
 406 682 488 625 488 522 c 0
 488 392 316 366 331 244 c 1
 230 244 l 1xa8
199 78 m 0xb0
 199 131 237 166 286 166 c 0x70
 335 166 373 131 373 78 c 0
 373 24 335 -12 286 -12 c 0
 237 -12 199 24 199 78 c 0xb0
EndSplineSet
EndChar

StartChar: at
Encoding: 64 64 531
Width: 600
Flags: MW
HStem: -146 73<284 373.5 284 374.5> 88 77<349.5 371.5> 568 72<279.5 381.5>
VStem: 40 82<142.5 358.5 142.5 383.5> 217 87<207 252.5 207 276> 463 85<215 324 324 324>
LayerCount: 2
Fore
SplineSet
548 398 m 2
 548 100 l 1
 484 100 l 1
 475 154 l 1
 471 154 l 1
 444 118 398 88 345 88 c 0
 273 88 217 144 217 224 c 0
 217 328 312 375 474 395 c 1
 474 410 l 2
 474 495 430 568 333 568 c 0
 226 568 122 469 122 248 c 0
 122 37 224 -73 344 -73 c 0
 403 -73 442 -58 480 -32 c 1
 516 -91 l 1
 462 -125 409 -146 340 -146 c 0
 181 -146 40 -13 40 252 c 0
 40 515 173 640 337 640 c 0
 482 640 548 535 548 398 c 2
304 226 m 0
 304 188 329 165 370 165 c 0
 402 165 433 184 463 215 c 1
 463 324 l 1
 347 307 304 279 304 226 c 0
EndSplineSet
Substitution2: "'case' Case-Sensitive Forms in Latin lookup 16 subtable" at.case
Substitution2: "'aalt' Access All Alternates in Latin lookup 0 subtable" at.case
EndChar

StartChar: A
Encoding: 65 65 2
Width: 600
GlyphClass: 2
Flags: MW
HStem: 0 21G<20 138 20 20 457 580 457 457> 177 91<215 381 215 407 189 381> 564 90<296 300 296 296>
VStem: 20 560<0 0>
AnchorPoint: "Anchor-4" 494 0 basechar 0
AnchorPoint: "Anchor-2" 300 -22 basechar 0
AnchorPoint: "Anchor-0" 300 676 basechar 0
LayerCount: 2
Fore
SplineSet
215 268 m 1
 381 268 l 1
 358 348 l 2
 339 417 319 492 300 564 c 1
 296 564 l 1
 278 491 258 417 238 348 c 2
 215 268 l 1
457 0 m 1
 407 177 l 1
 189 177 l 1
 138 0 l 1
 20 0 l 1
 232 654 l 1
 368 654 l 1
 580 0 l 1
 457 0 l 1
EndSplineSet
EndChar

StartChar: B
Encoding: 66 66 3
Width: 600
GlyphClass: 2
Flags: MW
HStem: 0 90<209 290 290 302> 300 83<209 275 275 290 209 275> 564 90<209 278 209 209>
VStem: 93 116<90 90 90 300 383 564> 404 114<347 553 462 509> 438 113<163 234>
AnchorPoint: "Anchor-2" 310 -22 basechar 0
AnchorPoint: "Anchor-0" 288 676 basechar 0
LayerCount: 2
Fore
SplineSet
93 0 m 1xf4
 93 654 l 1
 286 654 l 2
 420 654 518 613 518 493 c 0xf8
 518 431 481 371 404 351 c 1
 404 347 l 1
 499 331 551 280 551 192 c 0
 551 61 446 0 302 0 c 2
 93 0 l 1xf4
209 383 m 1
 275 383 l 2
 366 383 404 418 404 479 c 0
 404 539 362 564 278 564 c 2
 209 564 l 1
 209 383 l 1
209 90 m 1
 290 90 l 2
 386 90 438 126 438 200 c 0xf4
 438 268 388 300 290 300 c 2
 209 300 l 1
 209 90 l 1
EndSplineSet
EndChar

StartChar: C
Encoding: 67 67 4
Width: 600
GlyphClass: 2
Flags: MW
HStem: -12 101<310 392.5 310 400> 565 101<308.5 388.5>
VStem: 60 119<253.5 401.5 253.5 432>
AnchorPoint: "Anchor-2" 347 -22 basechar 0
AnchorPoint: "Anchor-1" 347 0 basechar 0
AnchorPoint: "Anchor-0" 350 676 basechar 0
LayerCount: 2
Fore
SplineSet
60 325 m 0
 60 539 190 666 363 666 c 0
 443 666 507 627 549 584 c 1
 484 512 l 1
 452 544 414 565 363 565 c 0
 254 565 179 475 179 328 c 0
 179 179 254 89 366 89 c 0
 419 89 460 113 497 154 c 1
 561 83 l 1
 508 22 441 -12 359 -12 c 0
 192 -12 60 108 60 325 c 0
EndSplineSet
EndChar

StartChar: D
Encoding: 68 68 5
Width: 600
GlyphClass: 2
Flags: MW
HStem: 0 94<191 237 237 250> 560 94<191 237 191 191>
VStem: 75 116<94 94 94 560> 433 119<249.5 410>
AnchorPoint: "Anchor-2" 290 -22 basechar 0
AnchorPoint: "Anchor-0" 298 676 basechar 0
LayerCount: 2
Fore
SplineSet
75 0 m 1
 75 654 l 1
 244 654 l 2
 437 654 552 546 552 330 c 0
 552 113 437 0 250 0 c 2
 75 0 l 1
191 94 m 1
 237 94 l 2
 362 94 433 169 433 330 c 0
 433 490 362 560 237 560 c 2
 191 560 l 1
 191 94 l 1
EndSplineSet
EndChar

StartChar: E
Encoding: 69 69 6
Width: 600
GlyphClass: 2
Flags: MW
HStem: 0 98<220 532 220 532> 291 98<220 476 220 476> 556 98<220 522 220 220>
VStem: 104 116<98 291 389 556>
AnchorPoint: "Anchor-4" 422 0 basechar 0
AnchorPoint: "Anchor-2" 326 -22 basechar 0
AnchorPoint: "Anchor-0" 326 676 basechar 0
LayerCount: 2
Fore
SplineSet
104 0 m 1
 104 654 l 1
 522 654 l 1
 522 556 l 1
 220 556 l 1
 220 389 l 1
 476 389 l 1
 476 291 l 1
 220 291 l 1
 220 98 l 1
 532 98 l 1
 532 0 l 1
 104 0 l 1
EndSplineSet
EndChar

StartChar: F
Encoding: 70 70 7
Width: 600
GlyphClass: 2
Flags: MW
HStem: 0 21G<121 121 121 237> 273 98<237 492 237 492> 556 98<237 537 237 237>
VStem: 121 116<0 273 371 556>
AnchorPoint: "Anchor-2" 192 -22 basechar 0
AnchorPoint: "Anchor-0" 333 676 basechar 0
LayerCount: 2
Fore
SplineSet
121 0 m 1
 121 654 l 1
 537 654 l 1
 537 556 l 1
 237 556 l 1
 237 371 l 1
 492 371 l 1
 492 273 l 1
 237 273 l 1
 237 0 l 1
 121 0 l 1
EndSplineSet
EndChar

StartChar: H
Encoding: 72 72 9
Width: 600
GlyphClass: 2
Flags: MW
HStem: 0 21G<72 72 72 188 412 412 412 528> 290 101<188 412 188 412> 634 20G<72 188 188 188 412 528 528 528>
VStem: 72 116<0 290 391 654> 412 116<0 290 290 290 391 654 0 654>
AnchorPoint: "Anchor-2" 299 -22 basechar 0
AnchorPoint: "Anchor-0" 299 676 basechar 0
LayerCount: 2
Fore
SplineSet
72 0 m 1
 72 654 l 1
 188 654 l 1
 188 391 l 1
 412 391 l 1
 412 654 l 1
 528 654 l 1
 528 0 l 1
 412 0 l 1
 412 290 l 1
 188 290 l 1
 188 0 l 1
 72 0 l 1
EndSplineSet
EndChar

StartChar: I
Encoding: 73 73 10
Width: 600
GlyphClass: 2
Flags: MW
HStem: 0 98<84 242 84 242 358 516> 556 98<84 242 84 516 358 358 358 516>
VStem: 242 116<98 556 98 556>
AnchorPoint: "Anchor-4" 279 0 basechar 0
AnchorPoint: "Anchor-2" 300 -22 basechar 0
AnchorPoint: "Anchor-0" 300 676 basechar 0
LayerCount: 2
Fore
SplineSet
84 0 m 1
 84 98 l 1
 242 98 l 1
 242 556 l 1
 84 556 l 1
 84 654 l 1
 516 654 l 1
 516 556 l 1
 358 556 l 1
 358 98 l 1
 516 98 l 1
 516 0 l 1
 84 0 l 1
EndSplineSet
EndChar

StartChar: J
Encoding: 74 74 11
Width: 600
GlyphClass: 2
Flags: MW
HStem: -12 100<247.5 311 247.5 360> 557 97<124 389 124 505>
VStem: 389 116<226 557 557 557>
AnchorPoint: "Anchor-2" 302 -22 basechar 0
AnchorPoint: "Anchor-0" 321 676 basechar 0
LayerCount: 2
Fore
SplineSet
70 96 m 1
 140 167 l 1
 177 115 224 88 271 88 c 0
 351 88 389 127 389 226 c 2
 389 557 l 1
 124 557 l 1
 124 654 l 1
 505 654 l 1
 505 216 l 2
 505 91 446 -12 274 -12 c 0
 201 -12 121 18 70 96 c 1
EndSplineSet
EndChar

StartChar: K
Encoding: 75 75 12
Width: 600
GlyphClass: 2
Flags: MW
HStem: 0 21G<83 83 83 200 458 458 458 587> 634 20G<83 200 200 200 436 565 565 565>
VStem: 83 117<0 191 357 654>
AnchorPoint: "Anchor-2" 330 -22 basechar 0
AnchorPoint: "Anchor-0" 316 676 basechar 0
LayerCount: 2
Fore
SplineSet
83 0 m 1
 83 654 l 1
 200 654 l 1
 200 357 l 1
 203 357 l 1
 436 654 l 1
 565 654 l 1
 364 399 l 1
 587 0 l 1
 458 0 l 1
 295 308 l 1
 200 191 l 1
 200 0 l 1
 83 0 l 1
EndSplineSet
EndChar

StartChar: L
Encoding: 76 76 13
Width: 600
GlyphClass: 2
Flags: MW
HStem: 0 98<235 542 235 542> 634 20G<120 235 235 235>
VStem: 120 115<98 654 98 654 98 654>
AnchorPoint: "Anchor-2" 339 -22 basechar 0
AnchorPoint: "Anchor-0" 193 676 basechar 0
LayerCount: 2
Fore
SplineSet
120 0 m 1
 120 654 l 1
 235 654 l 1
 235 98 l 1
 542 98 l 1
 542 0 l 1
 120 0 l 1
EndSplineSet
EndChar

StartChar: M
Encoding: 77 77 14
Width: 600
GlyphClass: 2
Flags: MW
HStem: 0 21G<73 73 73 167 432 432 432 527> 176 125<300 303 300 327 271 303> 539 115<152 155 152 152 443 446 443 443>
VStem: 73 94<0 290 0 654> 432 95<0 290 290 321>
AnchorPoint: "Anchor-2" 300 -22 basechar 0
AnchorPoint: "Anchor-0" 300 676 basechar 0
LayerCount: 2
Fore
SplineSet
73 0 m 1
 73 654 l 1
 193 654 l 1
 272 400 l 1
 300 301 l 1
 303 301 l 1
 330 400 l 1
 407 654 l 1
 527 654 l 1
 527 0 l 1
 432 0 l 1
 432 290 l 2
 432 352 441 477 446 539 c 1
 443 539 l 1
 396 379 l 1
 327 176 l 1
 271 176 l 1
 201 379 l 1
 155 539 l 1
 152 539 l 1
 157 477 167 352 167 290 c 2
 167 0 l 1
 73 0 l 1
EndSplineSet
EndChar

StartChar: N
Encoding: 78 78 15
Width: 600
GlyphClass: 2
Flags: MW
HStem: 0 21G<74 74 74 185 408 408 408 526> 0 147<408 431 428 431 428 526> 507 147<169 172 169 169> 634 20G<74 192 192 192 415 526 526 526>
VStem: 74 111<0 286 0 654> 415 111<370 654 0 654>
AnchorPoint: "Anchor-2" 300 -22 basechar 0
AnchorPoint: "Anchor-0" 306 676 basechar 0
LayerCount: 2
Fore
SplineSet
74 0 m 1x9c
 74 654 l 1
 192 654 l 1
 367 286 l 1
 428 147 l 1
 431 147 l 1x5c
 426 214 415 297 415 370 c 2
 415 654 l 1
 526 654 l 1
 526 0 l 1
 408 0 l 1
 233 369 l 1
 172 507 l 1
 169 507 l 1xac
 174 438 185 359 185 286 c 2
 185 0 l 1
 74 0 l 1x9c
EndSplineSet
EndChar

StartChar: O
Encoding: 79 79 16
Width: 600
GlyphClass: 2
Flags: MW
HStem: -12 101<258 342 258 376> 565 101<258 342>
VStem: 43 119<256.5 403 256.5 435.5> 438 119<256.5 403>
AnchorPoint: "Anchor-4" 300 0 basechar 0
AnchorPoint: "Anchor-3" 422 644 basechar 0
AnchorPoint: "Anchor-2" 300 -22 basechar 0
AnchorPoint: "Anchor-0" 300 676 basechar 0
LayerCount: 2
Fore
SplineSet
300 -12 m 0
 148 -12 43 118 43 330 c 0
 43 541 148 666 300 666 c 0
 452 666 557 541 557 330 c 0
 557 118 452 -12 300 -12 c 0
300 89 m 0
 384 89 438 183 438 330 c 0
 438 476 384 565 300 565 c 0
 216 565 162 476 162 330 c 0
 162 183 216 89 300 89 c 0
EndSplineSet
EndChar

StartChar: P
Encoding: 80 80 17
Width: 600
GlyphClass: 2
Flags: MW
HStem: 0 21G<87 87 87 203> 240 93<203 298 298 307 203 298> 561 93<203 298 203 203>
VStem: 87 116<0 240 333 561> 442 114<412 493>
AnchorPoint: "Anchor-2" 153 -22 basechar 0
AnchorPoint: "Anchor-0" 314 676 basechar 0
LayerCount: 2
Fore
SplineSet
87 0 m 1
 87 654 l 1
 307 654 l 2
 451 654 556 604 556 452 c 0
 556 307 448 240 307 240 c 2
 203 240 l 1
 203 0 l 1
 87 0 l 1
203 333 m 1
 298 333 l 2
 395 333 442 372 442 452 c 0
 442 534 393 561 298 561 c 2
 203 561 l 1
 203 333 l 1
EndSplineSet
EndChar

StartChar: Q
Encoding: 81 81 18
Width: 600
GlyphClass: 2
Flags: MW
HStem: -170 94<466.5 499.5> -3 21G 566 100<255.5 340>
VStem: 43 118<256.5 403 256.5 435.5> 434 119<256.5 403>
AnchorPoint: "Anchor-0" 303 681 basechar 0
LayerCount: 2
Fore
SplineSet
161 330 m 0
 161 183 213 88 298 88 c 0
 382 88 434 183 434 330 c 0
 434 476 382 566 298 566 c 0
 213 566 161 476 161 330 c 0
546 -64 m 1
 567 -153 l 1
 545 -163 517 -170 482 -170 c 0
 360 -170 280 -102 243 -6 c 1
 122 22 43 145 43 330 c 0
 43 541 146 666 298 666 c 0
 450 666 553 541 553 330 c 0
 553 151 479 30 365 -3 c 1
 388 -54 438 -76 495 -76 c 0
 515 -76 533 -70 546 -64 c 1
EndSplineSet
EndChar

StartChar: T
Encoding: 84 84 21
Width: 600
GlyphClass: 2
Flags: MW
HStem: 0 21G<242 242 242 358> 556 98<36 242 36 564 358 358 358 564>
VStem: 242 116<0 556 0 556>
AnchorPoint: "Anchor-2" 300 -22 basechar 0
AnchorPoint: "Anchor-1" 300 0 basechar 0
AnchorPoint: "Anchor-0" 299 676 basechar 0
LayerCount: 2
Fore
SplineSet
242 0 m 1
 242 556 l 1
 36 556 l 1
 36 654 l 1
 564 654 l 1
 564 556 l 1
 358 556 l 1
 358 0 l 1
 242 0 l 1
EndSplineSet
EndChar

StartChar: U
Encoding: 85 85 22
Width: 600
GlyphClass: 2
Flags: MW
HStem: -12 101<266 336.5 266 373> 634 20G<72 188 188 188 417 528 528 528>
VStem: 72 116<250 654> 417 111<241 250 250 654>
AnchorPoint: "Anchor-4" 300 0 basechar 0
AnchorPoint: "Anchor-3" 508 664 basechar 0
AnchorPoint: "Anchor-2" 300 -22 basechar 0
AnchorPoint: "Anchor-0" 300 676 basechar 0
LayerCount: 2
Fore
SplineSet
72 250 m 2
 72 654 l 1
 188 654 l 1
 188 241 l 2
 188 134 231 89 301 89 c 0
 372 89 417 134 417 241 c 2
 417 654 l 1
 528 654 l 1
 528 250 l 2
 528 71 445 -12 301 -12 c 0
 158 -12 72 71 72 250 c 2
EndSplineSet
EndChar

StartChar: V
Encoding: 86 86 23
Width: 600
GlyphClass: 2
Flags: MW
HStem: 0 21G<232 232 232 369> 0 112<232 305 301 305 301 369> 634 20G<28 151 151 151 453 572 572 572>
VStem: 28 544<654 654>
AnchorPoint: "Anchor-2" 299 -22 basechar 0
AnchorPoint: "Anchor-0" 300 676 basechar 0
LayerCount: 2
Fore
SplineSet
232 0 m 1xb0
 28 654 l 1
 151 654 l 1
 243 325 l 2
 264 251 279 187 301 112 c 1
 305 112 l 1x70
 327 187 342 251 362 325 c 2
 453 654 l 1
 572 654 l 1
 369 0 l 1
 232 0 l 1xb0
EndSplineSet
EndChar

StartChar: W
Encoding: 87 87 24
Width: 600
GlyphClass: 2
Flags: MW
HStem: 0 111<101 173 170 173 170 222 435 439> 361 126<299 302 299 299> 634 20G<7 124 124 124 483 593 593 593>
VStem: 7 586<654 654>
AnchorPoint: "Anchor-2" 303 -22 basechar 0
AnchorPoint: "Anchor-0" 300 676 basechar 0
LayerCount: 2
Fore
SplineSet
101 0 m 1
 7 654 l 1
 124 654 l 1
 160 275 l 1
 163 220 167 166 170 111 c 1
 173 111 l 1
 184 166 199 221 211 275 c 1
 268 487 l 1
 342 487 l 1
 398 275 l 1
 409 222 424 167 435 111 c 1
 439 111 l 1
 442 167 446 222 449 275 c 1
 483 654 l 1
 593 654 l 1
 504 0 l 1
 381 0 l 1
 323 239 l 2
 314 280 307 322 302 361 c 1
 299 361 l 1
 293 322 286 280 277 239 c 2
 222 0 l 1
 101 0 l 1
EndSplineSet
EndChar

StartChar: X
Encoding: 88 88 25
Width: 600
GlyphClass: 2
Flags: MW
HStem: 0 21G<36 36 36 159 436 436 436 564> 634 20G<48 177 177 177 429 552 552 552>
VStem: 36 528<0 0>
AnchorPoint: "Anchor-2" 292 -22 basechar 0
AnchorPoint: "Anchor-0" 300 676 basechar 0
LayerCount: 2
Fore
SplineSet
36 0 m 1
 228 337 l 1
 48 654 l 1
 177 654 l 1
 254 509 l 2
 270 479 285 448 305 409 c 1
 309 409 l 1
 326 448 340 479 355 509 c 2
 429 654 l 1
 552 654 l 1
 372 332 l 1
 564 0 l 1
 436 0 l 1
 351 154 l 2
 333 188 316 221 296 261 c 1
 292 261 l 1
 274 221 258 188 241 154 c 2
 159 0 l 1
 36 0 l 1
EndSplineSet
EndChar

StartChar: Y
Encoding: 89 89 26
Width: 600
GlyphClass: 2
Flags: MW
HStem: 0 21G<242 242 242 358> 634 20G<27 150 150 150 453 573 573 573>
VStem: 242 116<0 227 0 227>
AnchorPoint: "Anchor-2" 300 -22 basechar 0
AnchorPoint: "Anchor-0" 300 676 basechar 0
LayerCount: 2
Fore
SplineSet
242 0 m 1
 242 227 l 1
 27 654 l 1
 150 654 l 1
 232 478 l 2
 255 428 276 380 299 327 c 1
 303 327 l 1
 327 380 350 428 372 479 c 1
 453 654 l 1
 573 654 l 1
 358 227 l 1
 358 0 l 1
 242 0 l 1
EndSplineSet
EndChar

StartChar: Z
Encoding: 90 90 27
Width: 600
GlyphClass: 2
Flags: MW
HStem: 0 98<203 543 203 543> 557 97<91 396 91 539>
VStem: 61 482<0 70 70 70>
AnchorPoint: "Anchor-2" 311 -22 basechar 0
AnchorPoint: "Anchor-0" 315 676 basechar 0
LayerCount: 2
Fore
SplineSet
61 0 m 1
 61 70 l 1
 396 557 l 1
 91 557 l 1
 91 654 l 1
 539 654 l 1
 539 584 l 1
 203 98 l 1
 543 98 l 1
 543 0 l 1
 61 0 l 1
EndSplineSet
EndChar

StartChar: bracketleft
Encoding: 91 91 513
Width: 600
Flags: MW
HStem: -152 63<302 499 302 499> 645 63<302 499 302 302>
VStem: 213 89<-89 645 -89 708 -89 708>
LayerCount: 2
Fore
SplineSet
213 -152 m 1
 213 708 l 1
 499 708 l 1
 499 645 l 1
 302 645 l 1
 302 -89 l 1
 499 -89 l 1
 499 -152 l 1
 213 -152 l 1
EndSplineSet
EndChar

StartChar: backslash
Encoding: 92 92 519
Width: 600
Flags: MW
HStem: -160 870<86 415 86 514>
VStem: 86 428
LayerCount: 2
Fore
SplineSet
415 -160 m 1
 86 710 l 1
 185 710 l 1
 514 -160 l 1
 415 -160 l 1
EndSplineSet
EndChar

StartChar: bracketright
Encoding: 93 93 514
Width: 600
Flags: MW
HStem: -152 63<102 298 102 388 102 298> 645 63<102 298 102 388>
VStem: 298 90<-89 645 645 645>
LayerCount: 2
Fore
SplineSet
102 -89 m 1
 298 -89 l 1
 298 645 l 1
 102 645 l 1
 102 708 l 1
 388 708 l 1
 388 -152 l 1
 102 -152 l 1
 102 -89 l 1
EndSplineSet
EndChar

StartChar: asciicircum
Encoding: 94 94 671
Width: 600
Flags: MW
HStem: 565 105<298 302 298 298>
VStem: 98 404<279 279>
LayerCount: 2
Fore
SplineSet
98 279 m 1
 252 670 l 1
 348 670 l 1
 502 279 l 1
 405 279 l 1
 349 430 l 1
 302 565 l 1
 298 565 l 1
 251 430 l 1
 195 279 l 1
 98 279 l 1
EndSplineSet
EndChar

StartChar: underscore
Encoding: 95 95 510
Width: 600
Flags: MW
HStem: -152 90<60 540 60 540>
VStem: 60 480<-152 -62 -152 -62>
LayerCount: 2
Fore
SplineSet
60 -62 m 1
 540 -62 l 1
 540 -152 l 1
 60 -152 l 1
 60 -62 l 1
EndSplineSet
EndChar

StartChar: grave
Encoding: 96 96 715
Width: 600
Flags: MW
HStem: 573 158<164 288 164 374>
VStem: 164 210<573 731>
LayerCount: 2
Fore
SplineSet
288 573 m 1
 164 731 l 1
 284 731 l 1
 374 573 l 1
 288 573 l 1
EndSplineSet
EndChar

StartChar: a
Encoding: 97 97 28
Width: 600
GlyphClass: 2
Flags: MW
HStem: -12 90<245.5 268> 0 21G<431 525 431 431> 242 72<410 410> 410 93<272 333>
VStem: 71 111<119 167.5 119 187> 410 115<138 242 242 242>
AnchorPoint: "Anchor-2" 306 -22 basechar 0
AnchorPoint: "Anchor-0" 311 513 basechar 0
LayerCount: 2
Fore
SplineSet
71 132 m 0xbc
 71 242 168 297 410 314 c 1
 406 369 373 410 293 410 c 0
 238 410 183 386 132 358 c 1
 90 435 l 1
 149 470 230 503 314 503 c 0
 450 503 525 428 525 291 c 2
 525 0 l 1
 431 0 l 1x7c
 422 61 l 1
 419 61 l 1
 367 21 301 -12 235 -12 c 0
 139 -12 71 46 71 132 c 0xbc
182 141 m 0
 182 97 221 78 270 78 c 0
 319 78 365 102 410 138 c 1
 410 242 l 1
 234 230 182 194 182 141 c 0
EndSplineSet
Substitution2: "'ss02' Style Set 2 in Latin lookup 18 subtable" a.a
Substitution2: "'sups' Superscript in Latin lookup 12 subtable" a.sups
AlternateSubs2: "'aalt' Access All Alternates in Latin lookup 1 subtable" a.sups a.a
EndChar

StartChar: b
Encoding: 98 98 29
Width: 600
GlyphClass: 2
Flags: MW
HStem: -12 95<306 340.5 290.5 385.5> 0 21G<82 82 82 173> 408 95<319.5 354> 686 20G<82 198 198 198>
VStem: 82 116<128 128 128 349 524 706> 428 119<196.5 301>
AnchorPoint: "Anchor-2" 303 -22 basechar 0
AnchorPoint: "Anchor-0" 145 730 basechar 0
LayerCount: 2
Fore
SplineSet
82 0 m 1x7c
 82 706 l 1
 198 706 l 1
 198 524 l 1
 194 438 l 1
 237 478 293 503 346 503 c 0
 473 503 547 405 547 254 c 0
 547 85 442 -12 329 -12 c 0
 283 -12 229 12 186 54 c 1
 183 54 l 1xbc
 173 0 l 1
 82 0 l 1x7c
198 128 m 1
 234 95 275 83 306 83 c 0
 375 83 428 141 428 252 c 0
 428 350 394 408 314 408 c 0
 277 408 238 390 198 349 c 1
 198 128 l 1
EndSplineSet
Substitution2: "'sups' Superscript in Latin lookup 12 subtable" b.sups
Substitution2: "'aalt' Access All Alternates in Latin lookup 0 subtable" b.sups
EndChar

StartChar: c
Encoding: 99 99 30
Width: 600
GlyphClass: 2
Flags: MW
HStem: -12 94<306.5 379> 409 94<309 380>
VStem: 73 119<196 294.5 196 327>
AnchorPoint: "Anchor-2" 341 -22 basechar 0
AnchorPoint: "Anchor-1" 341 0 basechar 0
AnchorPoint: "Anchor-0" 342 513 basechar 0
LayerCount: 2
Fore
SplineSet
73 245 m 0
 73 409 202 503 352 503 c 0
 431 503 493 473 534 434 c 1
 479 362 l 1
 441 393 402 409 358 409 c 0
 260 409 192 344 192 245 c 0
 192 147 258 82 355 82 c 0
 411 82 457 107 495 136 c 1
 543 62 l 1
 487 13 414 -12 344 -12 c 0
 190 -12 73 82 73 245 c 0
EndSplineSet
Substitution2: "'sups' Superscript in Latin lookup 12 subtable" c.sups
Substitution2: "'aalt' Access All Alternates in Latin lookup 0 subtable" c.sups
EndChar

StartChar: d
Encoding: 100 100 31
Width: 600
GlyphClass: 2
Flags: MW
HStem: -12 95<253.5 290.5> 0 21G<423 518 423 423> 408 95<263 299 214 315> 686 20G<402 518 518 518>
VStem: 53 119<193 297.5 193 325> 402 116<142 363 363 363 528 706 0 706>
AnchorPoint: "Anchor-2" 308 -22 basechar 0
AnchorPoint: "Anchor-0" 445 730 basechar 0
LayerCount: 2
Fore
SplineSet
53 245 m 0xbc
 53 405 158 503 270 503 c 0
 328 503 367 481 407 445 c 1
 402 528 l 1
 402 706 l 1
 518 706 l 1
 518 0 l 1
 423 0 l 1x7c
 414 57 l 1
 411 57 l 1
 373 19 318 -12 263 -12 c 0
 137 -12 53 83 53 245 c 0xbc
172 246 m 0
 172 140 216 83 291 83 c 0
 332 83 368 102 402 142 c 1
 402 363 l 1
 367 396 333 408 297 408 c 0
 229 408 172 349 172 246 c 0
EndSplineSet
Substitution2: "'sups' Superscript in Latin lookup 12 subtable" d.sups
Substitution2: "'aalt' Access All Alternates in Latin lookup 0 subtable" d.sups
EndChar

StartChar: e
Encoding: 101 101 32
Width: 600
GlyphClass: 2
Flags: MW
HStem: -12 89<300.5 366> 214 78<180 436 179 537 180 180> 414 89<284 356>
VStem: 62 118<214 214 214 325.5> 436 106<292 330>
AnchorPoint: "Anchor-4" 405 0 basechar 0
AnchorPoint: "Anchor-2" 314 -22 basechar 0
AnchorPoint: "Anchor-0" 314 513 basechar 0
LayerCount: 2
Fore
SplineSet
62 245 m 0
 62 406 186 503 314 503 c 0
 460 503 542 406 542 270 c 0
 542 248 539 226 537 214 c 1
 180 214 l 1
 188 126 256 77 345 77 c 0
 396 77 438 92 483 117 c 1
 522 45 l 1
 469 12 402 -12 330 -12 c 0
 181 -12 62 83 62 245 c 0
179 292 m 1
 436 292 l 1
 436 368 395 414 317 414 c 0
 251 414 192 372 179 292 c 1
EndSplineSet
Substitution2: "'sups' Superscript in Latin lookup 12 subtable" e.sups
Substitution2: "'aalt' Access All Alternates in Latin lookup 0 subtable" e.sups
EndChar

StartChar: f
Encoding: 102 102 33
Width: 600
GlyphClass: 2
Flags: MW
HStem: 0 21G<228 342 228 228> 400 91<92 228 342 529> 627 91<412.5 462.5 364 470>
VStem: 228 114<0 400 0 400 491 518 518 520>
AnchorPoint: "Anchor-2" 292 -22 basechar 0
AnchorPoint: "Anchor-0" 416 741 basechar 0
LayerCount: 2
Fore
SplineSet
582 691 m 1
 558 606 l 1
 522 620 490 627 450 627 c 0
 375 627 342 589 342 520 c 2
 342 491 l 1
 529 491 l 1
 529 400 l 1
 342 400 l 1
 342 0 l 1
 228 0 l 1
 228 400 l 1
 92 400 l 1
 92 486 l 1
 228 491 l 1
 228 518 l 2
 228 634 292 718 436 718 c 0
 489 718 538 708 582 691 c 1
EndSplineSet
Substitution2: "'sups' Superscript in Latin lookup 12 subtable" f.sups
Substitution2: "'aalt' Access All Alternates in Latin lookup 0 subtable" f.sups
EndChar

StartChar: g
Encoding: 103 103 34
Width: 600
GlyphClass: 2
Flags: MW
HStem: -217 75<254.5 348 254.5 372.5> -14 91<276 281 281 359> -6 83 156 72<276.5 313.5 262.5 343> 406 85<451 566 451 451> 424 79<262.5 302.5 234 313.5>
VStem: 62 96<-93 -66.5> 86 109<297 356 295 382.5> 90 93<107.5 119.5> 382 102<295 339 267.5 356> 458 111<-83 -43>
AnchorPoint: "Anchor-2" 290 -229 basechar 0
AnchorPoint: "Anchor-0" 306 513 basechar 0
LayerCount: 2
Fore
SplineSet
158 -71 m 0xba40
 158 -115 209 -142 300 -142 c 0
 396 -142 458 -104 458 -62 c 0
 458 -24 424 -14 359 -14 c 2
 281 -14 l 2xd920
 249 -14 225 -12 206 -6 c 1
 171 -27 158 -48 158 -71 c 0xba40
62 -86 m 0
 62 -47 89 -10 140 17 c 1
 140 21 l 1
 114 36 90 62 90 103 c 0xb8c0
 90 136 113 171 149 196 c 1
 149 200 l 1
 114 224 86 268 86 326 c 0
 86 439 180 503 288 503 c 0xb540
 317 503 343 499 365 491 c 1
 566 491 l 1
 566 406 l 1
 451 406 l 1
 468 386 484 356 484 322 c 0xb940
 484 213 398 156 288 156 c 0
 265 156 239 160 213 169 c 1
 194 157 183 143 183 124 c 0
 183 91 215 77 276 77 c 2
 376 77 l 2
 503 77 569 42 569 -43 c 0xb8a0
 569 -140 459 -217 286 -217 c 0
 151 -217 62 -174 62 -86 c 0
288 228 m 0xb540
 339 228 382 264 382 326 c 0
 382 386 339 424 288 424 c 0
 237 424 195 386 195 326 c 0
 195 264 237 228 288 228 c 0xb540
EndSplineSet
Substitution2: "'ss03' Style Set 3 in Latin lookup 19 subtable" g.a
Substitution2: "'sups' Superscript in Latin lookup 12 subtable" g.sups
AlternateSubs2: "'aalt' Access All Alternates in Latin lookup 1 subtable" g.sups g.a
EndChar

StartChar: i
Encoding: 105 105 36
Width: 600
GlyphClass: 2
Flags: MW
HStem: 0 21G<297 412 297 297> 400 91<84 412 84 297> 577 155<322.5 370>
VStem: 264 164<631 677> 297 115<0 400 400 400>
AnchorPoint: "Anchor-4" 389 0 basechar 0
AnchorPoint: "Anchor-2" 346 -22 basechar 0
AnchorPoint: "Anchor-0" 346 709 basechar 0
LayerCount: 2
Fore
SplineSet
84 400 m 1xe8
 84 491 l 1
 412 491 l 1
 412 0 l 1
 297 0 l 1
 297 400 l 1
 84 400 l 1xe8
346 577 m 0xf0
 299 577 264 608 264 654 c 0
 264 700 299 732 346 732 c 0
 394 732 428 700 428 654 c 0
 428 608 394 577 346 577 c 0xf0
EndSplineSet
Substitution2: "'sups' Superscript in Latin lookup 12 subtable" i.sups
Substitution2: "'aalt' Access All Alternates in Latin lookup 0 subtable" i.sups
EndChar

StartChar: j
Encoding: 106 106 37
Width: 600
GlyphClass: 2
Flags: MW
HStem: -206 91<173 231 173 279> 400 91<84 412 84 297> 577 155<322.5 370>
VStem: 264 164<631 677> 297 115<3 9 9 400 400 400>
AnchorPoint: "Anchor-2" 238 -233 basechar 0
AnchorPoint: "Anchor-0" 346 709 basechar 0
LayerCount: 2
Fore
SplineSet
84 400 m 1xe8
 84 491 l 1
 412 491 l 1
 412 9 l 2
 412 -111 363 -206 195 -206 c 0
 138 -206 89 -192 49 -173 c 1
 84 -90 l 1
 121 -107 157 -115 189 -115 c 0
 273 -115 297 -74 297 3 c 2
 297 400 l 1
 84 400 l 1xe8
346 577 m 0xf0
 299 577 264 608 264 654 c 0
 264 700 299 732 346 732 c 0
 394 732 428 700 428 654 c 0
 428 608 394 577 346 577 c 0xf0
EndSplineSet
Substitution2: "'sups' Superscript in Latin lookup 12 subtable" j.sups
Substitution2: "'aalt' Access All Alternates in Latin lookup 0 subtable" j.sups
EndChar

StartChar: k
Encoding: 107 107 38
Width: 600
GlyphClass: 2
Flags: MW
HStem: 0 21G<90 90 90 206 454 454 454 580> 471 20G<431 559 559 559> 686 20G<90 206 206 206>
VStem: 90 116<0 128 264 706>
AnchorPoint: "Anchor-2" 330 -22 basechar 0
AnchorPoint: "Anchor-0" 172 730 basechar 0
LayerCount: 2
Fore
SplineSet
90 0 m 1
 90 706 l 1
 206 706 l 1
 206 264 l 1
 210 264 l 1
 431 491 l 1
 559 491 l 1
 369 293 l 1
 580 0 l 1
 454 0 l 1
 300 222 l 1
 206 128 l 1
 206 0 l 1
 90 0 l 1
EndSplineSet
Substitution2: "'sups' Superscript in Latin lookup 12 subtable" k.sups
Substitution2: "'aalt' Access All Alternates in Latin lookup 0 subtable" k.sups
EndChar

StartChar: l
Encoding: 108 108 39
Width: 600
GlyphClass: 2
Flags: MW
HStem: -12 94<404 429.5> 615 91<71 341 71 226>
VStem: 226 115<179 615 615 615>
AnchorPoint: "Anchor-2" 366 -22 basechar 0
AnchorPoint: "Anchor-0" 277 730 basechar 0
LayerCount: 2
Fore
SplineSet
71 615 m 1
 71 706 l 1
 341 706 l 1
 341 173 l 2
 341 107 379 82 429 82 c 0
 454 82 480 88 513 101 c 1
 540 16 l 1
 493 0 458 -12 401 -12 c 0
 286 -12 226 58 226 179 c 2
 226 615 l 1
 71 615 l 1
EndSplineSet
Substitution2: "'sups' Superscript in Latin lookup 12 subtable" l.sups
Substitution2: "'aalt' Access All Alternates in Latin lookup 0 subtable" l.sups
EndChar

StartChar: m
Encoding: 109 109 40
Width: 600
GlyphClass: 2
Flags: MW
HStem: 0 21G<48 48 48 157 261 261 261 351 456 456 456 565> 404 99<227 233> 471 20G<48 135 135 135>
VStem: 48 109<0 343 0 491> 261 90<0 339 339 343 0 361> 456 109<0 339 339 348 0 361>
AnchorPoint: "Anchor-2" 306 -22 basechar 0
AnchorPoint: "Anchor-0" 319 514 basechar 0
LayerCount: 2
Fore
SplineSet
48 0 m 1xbc
 48 491 l 1
 135 491 l 1xbc
 144 428 l 1
 147 428 l 1
 169 471 199 503 255 503 c 0
 302 503 333 475 345 421 c 1
 368 468 402 503 456 503 c 0
 525 503 565 446 565 348 c 2
 565 0 l 1
 456 0 l 1
 456 339 l 2
 456 383 443 404 415 404 c 0
 389 404 370 384 351 343 c 1
 351 0 l 1
 261 0 l 1
 261 339 l 2
 261 383 247 404 219 404 c 0
 193 404 176 384 157 343 c 1xdc
 157 0 l 1
 48 0 l 1xbc
EndSplineSet
Substitution2: "'sups' Superscript in Latin lookup 12 subtable" m.sups
Substitution2: "'aalt' Access All Alternates in Latin lookup 0 subtable" m.sups
EndChar

StartChar: n
Encoding: 110 110 41
Width: 600
GlyphClass: 2
Flags: MW
HStem: 0 21G<82 82 82 198 416 416 416 532> 404 99<329.5 357.5> 471 20G<82 177 177 177>
VStem: 82 116<0 335 0 491> 416 116<0 289 289 304 0 328.5>
AnchorPoint: "Anchor-2" 310 -22 basechar 0
AnchorPoint: "Anchor-0" 316 513 basechar 0
LayerCount: 2
Fore
SplineSet
82 0 m 1xd8
 82 491 l 1
 177 491 l 1xb8
 186 417 l 1
 190 417 l 1
 236 464 292 503 367 503 c 0
 480 503 532 431 532 304 c 2
 532 0 l 1
 416 0 l 1
 416 289 l 2
 416 368 391 404 324 404 c 0
 276 404 243 381 198 335 c 1
 198 0 l 1
 82 0 l 1xd8
EndSplineSet
Substitution2: "'sups' Superscript in Latin lookup 12 subtable" n.sups
Substitution2: "'aalt' Access All Alternates in Latin lookup 0 subtable" n.sups
EndChar

StartChar: o
Encoding: 111 111 42
Width: 600
GlyphClass: 2
Flags: MW
HStem: -12 94<260 340 260 364.5> 409 94<260 340>
VStem: 53 119<196 294.5 196 327> 428 119<196 294.5>
AnchorPoint: "Anchor-4" 351 0 basechar 0
AnchorPoint: "Anchor-3" 413 491 basechar 0
AnchorPoint: "Anchor-2" 300 -22 basechar 0
AnchorPoint: "Anchor-0" 300 513 basechar 0
LayerCount: 2
Fore
SplineSet
53 245 m 0
 53 409 171 503 300 503 c 0
 429 503 547 409 547 245 c 0
 547 82 429 -12 300 -12 c 0
 171 -12 53 82 53 245 c 0
172 245 m 0
 172 147 220 82 300 82 c 0
 380 82 428 147 428 245 c 0
 428 344 380 409 300 409 c 0
 220 409 172 344 172 245 c 0
EndSplineSet
Substitution2: "'sups' Superscript in Latin lookup 12 subtable" o.sups
Substitution2: "'aalt' Access All Alternates in Latin lookup 0 subtable" o.sups
EndChar

StartChar: p
Encoding: 112 112 43
Width: 600
GlyphClass: 2
Flags: MW
HStem: -194 21G<82 198 82 82> -12 95<306.5 340 290 385.5> 408 95<318 354> 471 20G<82 177 177 177>
VStem: 82 116<-194 -40 128 349> 428 119<196.5 301>
AnchorPoint: "Anchor-2" 139 -218 basechar 0
AnchorPoint: "Anchor-0" 318 513 basechar 0
LayerCount: 2
Fore
SplineSet
194 46 m 1xec
 198 -40 l 1
 198 -194 l 1
 82 -194 l 1
 82 491 l 1
 177 491 l 1xdc
 186 435 l 1
 189 435 l 1
 231 474 290 503 346 503 c 0
 474 503 547 405 547 253 c 0
 547 85 442 -12 329 -12 c 0
 284 -12 234 9 194 46 c 1xec
198 128 m 1
 234 95 275 83 305 83 c 0
 375 83 428 141 428 252 c 0
 428 350 394 408 314 408 c 0
 277 408 238 390 198 349 c 1xec
 198 128 l 1
EndSplineSet
Substitution2: "'sups' Superscript in Latin lookup 12 subtable" p.sups
Substitution2: "'aalt' Access All Alternates in Latin lookup 0 subtable" p.sups
EndChar

StartChar: q
Encoding: 113 113 44
Width: 600
GlyphClass: 2
Flags: MW
HStem: -194 21G<402 518 402 402> -12 95<253.5 289.5> 408 95<263 298.5 214 315> 471 20G<427 518 518 518>
VStem: 53 119<193 297.5 193 325> 402 116<-194 -29 -29 -29 142 363 363 363>
AnchorPoint: "Anchor-2" 447 -218 basechar 0
AnchorPoint: "Anchor-0" 304 513 basechar 0
LayerCount: 2
Fore
SplineSet
53 245 m 0xec
 53 405 158 503 270 503 c 0
 327 503 371 482 414 439 c 1
 417 439 l 1xec
 427 491 l 1
 518 491 l 1xdc
 518 -194 l 1
 402 -194 l 1
 402 -29 l 1
 407 53 l 1
 369 16 316 -12 263 -12 c 0
 137 -12 53 83 53 245 c 0xec
172 246 m 0
 172 140 216 83 291 83 c 0
 332 83 368 102 402 142 c 1
 402 363 l 1
 367 396 333 408 297 408 c 0
 229 408 172 349 172 246 c 0
EndSplineSet
Substitution2: "'sups' Superscript in Latin lookup 12 subtable" q.sups
Substitution2: "'aalt' Access All Alternates in Latin lookup 0 subtable" q.sups
EndChar

StartChar: r
Encoding: 114 114 45
Width: 600
GlyphClass: 2
Flags: MW
HStem: 0 21G<130 130 130 246> 401 102<404.5 447.5> 471 20G<130 225 225 225> 483 20
VStem: 130 116<0 271 0 491>
AnchorPoint: "Anchor-2" 202 -22 basechar 0
AnchorPoint: "Anchor-0" 340 513 basechar 0
LayerCount: 2
Fore
SplineSet
130 0 m 1xc8
 130 491 l 1
 225 491 l 1xa8
 235 380 l 1
 238 380 l 1
 288 459 362 503 447 503 c 0xc8
 487 503 513 497 542 483 c 1x98
 518 386 l 1
 486 396 466 401 429 401 c 0
 362 401 296 366 246 271 c 1
 246 0 l 1
 130 0 l 1xc8
EndSplineSet
Substitution2: "'sups' Superscript in Latin lookup 12 subtable" r.sups
Substitution2: "'aalt' Access All Alternates in Latin lookup 0 subtable" r.sups
EndChar

StartChar: s
Encoding: 115 115 46
Width: 600
GlyphClass: 2
Flags: MW
HStem: -12 87<268 344.5 268 377.5> 416 87<272 338>
VStem: 92 115<344.5 377.5 344.5 399> 418 115<117 151>
AnchorPoint: "Anchor-2" 308 -22 basechar 0
AnchorPoint: "Anchor-1" 312 0 basechar 0
AnchorPoint: "Anchor-0" 308 513 basechar 0
LayerCount: 2
Fore
SplineSet
62 64 m 1
 116 137 l 1
 171 99 230 75 306 75 c 0
 383 75 418 100 418 134 c 0
 418 168 372 189 273 215 c 0
 179 240 92 282 92 356 c 0
 92 442 170 503 309 503 c 0
 389 503 463 471 513 438 c 1
 460 367 l 1
 416 396 366 416 310 416 c 0
 234 416 207 393 207 362 c 0
 207 327 266 308 345 288 c 0
 459 258 533 221 533 140 c 0
 533 56 452 -12 303 -12 c 0
 211 -12 123 22 62 64 c 1
EndSplineSet
Substitution2: "'sups' Superscript in Latin lookup 12 subtable" s.sups
Substitution2: "'aalt' Access All Alternates in Latin lookup 0 subtable" s.sups
EndChar

StartChar: t
Encoding: 116 116 47
Width: 600
GlyphClass: 2
Flags: MW
HStem: -12 92<376.5 419.5> 400 91<59 195 305 529>
VStem: 190 115<198 400>
AnchorPoint: "Anchor-2" 374 -22 basechar 0
AnchorPoint: "Anchor-1" 374 0 basechar 0
AnchorPoint: "Anchor-0" 264 650 basechar 0
LayerCount: 2
Fore
SplineSet
190 198 m 2
 190 400 l 1
 59 400 l 1
 59 486 l 1
 195 491 l 1
 210 625 l 1
 305 625 l 1
 305 491 l 1
 529 491 l 1
 529 400 l 1
 305 400 l 1
 305 198 l 2
 305 117 335 80 418 80 c 0
 460 80 494 88 526 100 c 1
 548 16 l 1
 504 1 449 -12 390 -12 c 0
 241 -12 190 72 190 198 c 2
EndSplineSet
Substitution2: "'sups' Superscript in Latin lookup 12 subtable" t.sups
Substitution2: "'aalt' Access All Alternates in Latin lookup 0 subtable" t.sups
EndChar

StartChar: u
Encoding: 117 117 48
Width: 600
GlyphClass: 2
Flags: MW
HStem: -12 99<243 270.5> 0 21G<421 515 421 421> 471 20G<70 185 185 185 400 515 515 515>
VStem: 70 115<187 202 202 491> 400 115<160 491 0 491>
AnchorPoint: "Anchor-2" 320 -22 basechar 0
AnchorPoint: "Anchor-0" 295 513 basechar 0
LayerCount: 2
Fore
SplineSet
515 491 m 1xb8
 515 0 l 1
 421 0 l 1x78
 412 78 l 1
 408 78 l 1
 362 24 307 -12 234 -12 c 0
 120 -12 70 60 70 187 c 2
 70 491 l 1
 185 491 l 1
 185 202 l 2
 185 123 209 87 277 87 c 0
 323 87 356 106 400 160 c 1
 400 491 l 1
 515 491 l 1xb8
EndSplineSet
Substitution2: "'sups' Superscript in Latin lookup 12 subtable" u.sups
Substitution2: "'aalt' Access All Alternates in Latin lookup 0 subtable" u.sups
EndChar

StartChar: v
Encoding: 118 118 49
Width: 600
GlyphClass: 2
Flags: MW
HStem: 0 88<237 305 301 305 301 368> 471 20G<41 157 157 157 449 559 559 559>
VStem: 41 518<491 491>
AnchorPoint: "Anchor-2" 302 -22 basechar 0
AnchorPoint: "Anchor-0" 302 513 basechar 0
LayerCount: 2
Fore
SplineSet
237 0 m 1
 41 491 l 1
 157 491 l 1
 252 236 l 2
 270 187 285 138 301 88 c 1
 305 88 l 1
 321 138 336 187 354 236 c 2
 449 491 l 1
 559 491 l 1
 368 0 l 1
 237 0 l 1
EndSplineSet
Substitution2: "'sups' Superscript in Latin lookup 12 subtable" v.sups
Substitution2: "'aalt' Access All Alternates in Latin lookup 0 subtable" v.sups
EndChar

StartChar: w
Encoding: 119 119 50
Width: 600
GlyphClass: 2
Flags: MW
HStem: 0 95<101 189 185 189 185 234 419 423> 348 95<298 302 298 298> 471 20G<6 120 120 120 488 594 594 594>
VStem: 6 588<491 491>
AnchorPoint: "Anchor-2" 301 -22 basechar 0
AnchorPoint: "Anchor-0" 301 513 basechar 0
LayerCount: 2
Fore
SplineSet
101 0 m 1
 6 491 l 1
 120 491 l 1
 165 236 l 2
 173 189 178 143 185 95 c 1
 189 95 l 1
 196 143 204 190 214 236 c 2
 260 443 l 1
 346 443 l 1
 392 236 l 2
 402 189 411 143 419 95 c 1
 423 95 l 1
 431 143 436 189 443 236 c 1
 488 491 l 1
 594 491 l 1
 503 0 l 1
 368 0 l 1
 325 205 l 1
 317 251 310 297 302 348 c 1
 298 348 l 1
 292 310 286 267 276 204 c 1
 234 0 l 1
 101 0 l 1
EndSplineSet
Substitution2: "'sups' Superscript in Latin lookup 12 subtable" w.sups
Substitution2: "'aalt' Access All Alternates in Latin lookup 0 subtable" w.sups
EndChar

StartChar: x
Encoding: 120 120 51
Width: 600
GlyphClass: 2
Flags: MW
HStem: 0 21G<51 51 51 172 424 424 424 549> 471 20G<63 188 188 188 416 537 537 537>
VStem: 51 498<0 0>
AnchorPoint: "Anchor-2" 300 -22 basechar 0
AnchorPoint: "Anchor-0" 300 513 basechar 0
LayerCount: 2
Fore
SplineSet
51 0 m 1
 229 255 l 1
 63 491 l 1
 188 491 l 1
 252 398 l 1
 268 371 288 342 306 314 c 1
 310 314 l 1
 325 342 343 372 358 399 c 1
 416 491 l 1
 537 491 l 1
 370 243 l 1
 549 0 l 1
 424 0 l 1
 353 97 l 2
 334 124 313 156 293 184 c 1
 289 184 l 1
 271 155 254 127 236 96 c 1
 172 0 l 1
 51 0 l 1
EndSplineSet
Substitution2: "'sups' Superscript in Latin lookup 12 subtable" x.sups
Substitution2: "'aalt' Access All Alternates in Latin lookup 0 subtable" x.sups
EndChar

StartChar: y
Encoding: 121 121 52
Width: 600
GlyphClass: 2
Flags: MW
HStem: -202 93<124 161 123 196> 471 20G<40 155 155 155 452 561 561 561>
VStem: 40 521<491 491>
AnchorPoint: "Anchor-2" 267 -241 basechar 0
AnchorPoint: "Anchor-0" 306 513 basechar 0
LayerCount: 2
Fore
SplineSet
89 -102 m 1
 102 -106 116 -109 130 -109 c 0
 192 -109 228 -74 248 -25 c 2
 260 6 l 1
 40 491 l 1
 155 491 l 1
 256 250 l 2
 274 206 292 155 310 106 c 1
 314 106 l 1
 329 153 347 204 363 250 c 2
 452 491 l 1
 561 491 l 1
 356 -22 l 1
 314 -133 255 -202 137 -202 c 0
 111 -202 86 -198 67 -192 c 1
 89 -102 l 1
EndSplineSet
Substitution2: "'sups' Superscript in Latin lookup 12 subtable" y.sups
Substitution2: "'aalt' Access All Alternates in Latin lookup 0 subtable" y.sups
EndChar

StartChar: z
Encoding: 122 122 53
Width: 600
GlyphClass: 2
Flags: MW
HStem: 0 92<232 537 232 537> 400 91<105 366 105 528>
VStem: 71 466<0 62 62 62>
AnchorPoint: "Anchor-2" 317 -22 basechar 0
AnchorPoint: "Anchor-0" 322 513 basechar 0
LayerCount: 2
Fore
SplineSet
71 0 m 1
 71 62 l 1
 366 400 l 1
 105 400 l 1
 105 491 l 1
 528 491 l 1
 528 430 l 1
 232 92 l 1
 537 92 l 1
 537 0 l 1
 71 0 l 1
EndSplineSet
Substitution2: "'sups' Superscript in Latin lookup 12 subtable" z.sups
Substitution2: "'aalt' Access All Alternates in Latin lookup 0 subtable" z.sups
EndChar

StartChar: braceleft
Encoding: 123 123 515
Width: 600
Flags: MW
HStem: -152 63<366.5 499 453 499 453 499> 243 70<113 113> 645 63<430 453 453 499>
VStem: 113 137<276 280 276 313 276 313> 244 101
LayerCount: 2
Fore
SplineSet
244 -14 m 0xe8
 244 58 254 102 254 168 c 0xe8
 254 204 226 242 113 243 c 1
 113 313 l 1xf0
 226 314 254 352 254 388 c 0
 254 451 244 501 244 570 c 0
 244 676 303 708 430 708 c 2
 499 708 l 1
 499 645 l 1
 453 645 l 2
 360 645 340 625 340 565 c 0
 340 510 345 454 345 393 c 0
 345 323 320 292 250 280 c 1
 250 276 l 1
 320 264 345 233 345 163 c 0
 345 99 340 49 340 -9 c 0
 340 -69 360 -89 453 -89 c 2
 499 -89 l 1
 499 -152 l 1
 430 -152 l 2
 303 -152 244 -120 244 -14 c 0xe8
EndSplineSet
EndChar

StartChar: braceright
Encoding: 125 125 516
Width: 600
Flags: MW
HStem: -152 63<102 148 148 171 102 148> 243 70<487 487> 645 63<102 148 102 171>
VStem: 256 100 351 136<276 280 280 280>
LayerCount: 2
Fore
SplineSet
102 -89 m 1xf0
 148 -89 l 2
 240 -89 261 -69 261 -9 c 0
 261 49 256 99 256 163 c 0
 256 233 280 264 351 276 c 1
 351 280 l 1
 280 292 256 323 256 393 c 0
 256 454 261 510 261 565 c 0
 261 625 240 645 148 645 c 2
 102 645 l 1
 102 708 l 1
 171 708 l 2
 298 708 356 676 356 570 c 0
 356 501 346 451 346 388 c 0xf0
 346 352 374 314 487 313 c 1
 487 243 l 1xe8
 374 242 346 204 346 168 c 0
 346 102 356 58 356 -14 c 0
 356 -120 298 -152 171 -152 c 2
 102 -152 l 1
 102 -89 l 1xf0
EndSplineSet
EndChar

StartChar: asciitilde
Encoding: 126 126 673
Width: 600
Flags: MW
HStem: 248 84<360.5 403 360.5 414.5> 328 84<197 239.5>
VStem: 64 472<276 383>
LayerCount: 2
Fore
SplineSet
134 244 m 1x60
 64 276 l 1x60
 102 376 157 412 214 412 c 0
 294 412 333 332 388 332 c 0
 418 332 444 353 466 416 c 1
 536 383 l 1xa0
 498 284 443 248 386 248 c 0
 306 248 267 328 212 328 c 0
 182 328 156 306 134 244 c 1x60
EndSplineSet
EndChar

StartChar: exclamdown
Encoding: 161 161 487
Width: 600
Flags: MW
HStem: 325 178<275.5 324.5> 483 20G<275.5 324.5>
VStem: 213 174<386.5 440> 244.5 111 254 92
LayerCount: 2
Fore
SplineSet
338 247 m 1x48
 354 -65 l 1
 357 -179 l 1
 243 -179 l 1
 246 -65 l 1
 262 247 l 1x50
 338 247 l 1x48
387 413 m 0x60
 387 360 349 325 300 325 c 0xa0
 251 325 213 360 213 413 c 0
 213 467 251 503 300 503 c 0
 349 503 387 467 387 413 c 0x60
EndSplineSet
EndChar

StartChar: cent
Encoding: 162 162 634
Width: 600
Flags: MW
HStem: -37 691<312 379 312 379> 463 93<379 379>
VStem: 104 113<271 344.5 271 378> 312 67<-37 62 -37 62 162 455 455 455 556 654>
LayerCount: 2
Fore
SplineSet
312 162 m 1xb0
 312 455 l 1
 251 435 217 381 217 308 c 0
 217 234 251 181 312 162 c 1xb0
467 196 m 1
 515 123 l 1
 476 88 427 67 379 62 c 1
 379 -37 l 1
 312 -37 l 1
 312 62 l 1
 187 78 104 165 104 308 c 0
 104 448 193 534 312 553 c 1
 312 654 l 1
 379 654 l 1
 379 556 l 1
 433 553 476 529 506 499 c 1
 452 428 l 1
 429 448 406 460 379 463 c 1x70
 379 155 l 1
 414 159 443 177 467 196 c 1
EndSplineSet
EndChar

StartChar: sterling
Encoding: 163 163 631
Width: 600
Flags: MW
HStem: 0 98<230 541 230 541> 278 74<164 164 164 188 290 290 290 449> 554 94<330 391>
VStem: 139 110<437.5 481.5 431.5 514> 193 101<206.5 243.5 206.5 244>
LayerCount: 2
Fore
SplineSet
230 98 m 1xe8
 541 98 l 1
 541 0 l 1
 73 0 l 1
 73 71 l 1
 148 103 193 164 193 237 c 0
 193 251 191 264 188 278 c 1xe8
 74 278 l 1
 74 347 l 1
 164 352 l 1
 151 386 139 421 139 454 c 0
 139 574 229 648 359 648 c 0
 440 648 497 618 540 570 c 1
 476 507 l 1
 447 536 414 554 368 554 c 0
 292 554 249 515 249 448 c 0
 249 415 259 384 270 352 c 1xf0
 449 352 l 1
 449 278 l 1
 290 278 l 1
 293 264 294 251 294 236 c 0
 294 177 273 140 230 102 c 1
 230 98 l 1xe8
EndSplineSet
EndChar

StartChar: currency
Encoding: 164 164 629
Width: 600
Flags: MW
HStem: 132 82<281 318.5> 445 82<281 318.5 281 328>
VStem: 94 104<307 351.5> 402 104<307 351.5 307 364>
LayerCount: 2
Fore
SplineSet
106 73 m 1
 47 133 l 1
 129 216 l 1
 107 247 94 285 94 329 c 0
 94 374 107 412 128 443 c 1
 47 526 l 1
 106 586 l 1
 194 496 l 1
 225 516 262 527 300 527 c 0
 337 527 375 516 406 496 c 1
 494 586 l 1
 553 526 l 1
 471 443 l 1
 493 412 506 374 506 329 c 0
 506 285 492 247 470 216 c 1
 553 133 l 1
 494 73 l 1
 405 163 l 1
 374 142 337 132 300 132 c 0
 262 132 226 142 194 163 c 1
 106 73 l 1
198 329 m 0
 198 260 244 214 300 214 c 0
 356 214 402 260 402 329 c 0
 402 399 356 445 300 445 c 0
 244 445 198 399 198 329 c 0
EndSplineSet
EndChar

StartChar: yen
Encoding: 165 165 632
Width: 600
Flags: MW
HStem: 0 212<67 357 67 242> 152 60<67 242 67 242 357 533> 271 59<67 215 67 242 67 215 384 533> 616 20G<42 160 160 160 443 558 558 558>
VStem: 242 115<0 152 0 152 212 271>
LayerCount: 2
Fore
SplineSet
42 636 m 1x78
 160 636 l 1
 236 485 l 2
 258 441 277 397 299 352 c 1
 303 352 l 1
 325 397 345 441 367 485 c 2
 443 636 l 1
 558 636 l 1
 384 330 l 1
 533 330 l 1
 533 271 l 1
 357 271 l 1
 357 212 l 1
 533 212 l 1
 533 152 l 1
 357 152 l 1x78
 357 0 l 1
 242 0 l 1xb8
 242 152 l 1
 67 152 l 1
 67 212 l 1
 242 212 l 1
 242 271 l 1
 67 271 l 1
 67 330 l 1
 215 330 l 1
 42 636 l 1x78
EndSplineSet
EndChar

StartChar: brokenbar
Encoding: 166 166 520
Width: 600
Flags: MW
HStem: -250 1000<249 351 249 351>
VStem: 249 102<-250 209 -250 209 302 750>
LayerCount: 2
Fore
SplineSet
249 302 m 1
 249 750 l 1
 351 750 l 1
 351 302 l 1
 249 302 l 1
249 209 m 1
 351 209 l 1
 351 -250 l 1
 249 -250 l 1
 249 209 l 1
EndSplineSet
EndChar

StartChar: section
Encoding: 167 167 524
Width: 600
Flags: MW
HStem: -74 86<258 305.5 258 337> 600 87<285 328.5>
VStem: 81 98<304.5 358.5 304.5 361> 137 105<528 564.5 505 585> 354 104<52 89.5 31 116> 421 98<257.5 313>
LayerCount: 2
Fore
SplineSet
179 342 m 0xe4
 179 267 289 248 370 202 c 1
 404 219 421 240 421 275 c 0
 421 351 313 371 231 415 c 1
 198 398 179 375 179 342 c 0xe4
474 626 m 1
 420 553 l 1
 387 580 349 600 308 600 c 0
 262 600 242 579 242 550 c 0
 242 460 519 466 519 284 c 0xd4
 519 223 486 183 432 152 c 1
 448 131 458 106 458 73 c 0
 458 -11 392 -74 282 -74 c 0
 208 -74 138 -47 94 4 c 1
 162 64 l 1
 196 31 234 12 282 12 c 0
 329 12 354 36 354 68 c 0
 354 164 81 148 81 334 c 0xe8
 81 388 116 435 167 463 c 1
 148 484 137 511 137 545 c 0xd4
 137 625 196 687 302 687 c 0
 374 687 433 657 474 626 c 1
EndSplineSet
EndChar

StartChar: dieresis
Encoding: 168 168 725
Width: 600
Flags: MW
HStem: 579 135<177.5 216.5 383.5 422.5>
VStem: 131 133<627 665> 336 133<627 665>
LayerCount: 2
Fore
SplineSet
197 579 m 0
 158 579 131 608 131 646 c 0
 131 684 158 714 197 714 c 0
 236 714 264 684 264 646 c 0
 264 608 236 579 197 579 c 0
403 579 m 0
 364 579 336 608 336 646 c 0
 336 684 364 714 403 714 c 0
 442 714 469 684 469 646 c 0
 469 608 442 579 403 579 c 0
EndSplineSet
EndChar

StartChar: copyright
Encoding: 169 169 526
Width: 600
Flags: MW
HStem: -10 52<234 366 234 376.5> 126 71<287.5 328 287.5 333.5> 443 71<290.5 329.5> 603 51<234 366>
VStem: 24 56<239.5 409 239.5 427> 142 87<284.5 357.5 284.5 381.5> 520 56<239.5 409>
LayerCount: 2
Fore
SplineSet
24 324 m 0
 24 530 147 654 300 654 c 0
 453 654 576 530 576 324 c 0
 576 119 453 -10 300 -10 c 0
 147 -10 24 119 24 324 c 0
80 324 m 0
 80 155 168 42 300 42 c 0
 432 42 520 155 520 324 c 0
 520 494 432 603 300 603 c 0
 168 603 80 494 80 324 c 0
142 323 m 0
 142 440 222 514 311 514 c 0
 361 514 393 493 420 466 c 1
 375 416 l 1
 357 433 341 443 318 443 c 0
 263 443 229 392 229 323 c 0
 229 246 262 197 313 197 c 0
 343 197 362 210 384 226 c 1
 422 170 l 1
 391 145 357 126 310 126 c 0
 215 126 142 201 142 323 c 0
EndSplineSet
EndChar

StartChar: ordfeminine
Encoding: 170 170 594
Width: 600
Flags: MW
HStem: 252 65<276.5 283.5> 527 66<289.5 322>
VStem: 161 81<342 370 342 383> 364 84<349 417 417 417>
LayerCount: 2
Fore
SplineSet
161 348 m 0
 161 418 223 454 364 469 c 1
 362 502 344 527 300 527 c 0
 268 527 235 513 204 495 c 1
 173 551 l 1
 211 574 263 593 316 593 c 0
 401 593 448 544 448 451 c 2
 448 260 l 1
 379 260 l 1
 373 295 l 1
 371 295 l 1
 340 271 303 252 264 252 c 0
 204 252 161 293 161 348 c 0
242 355 m 0
 242 329 263 317 290 317 c 0
 316 317 341 329 364 349 c 1
 364 417 l 1
 274 406 242 385 242 355 c 0
EndSplineSet
Substitution2: "'ss02' Style Set 2 in Latin lookup 18 subtable" ordfeminine.a
Substitution2: "'aalt' Access All Alternates in Latin lookup 0 subtable" ordfeminine.a
EndChar

StartChar: guillemotleft
Encoding: 171 171 500
Width: 600
Flags: MW
HStem: 38 428<224 224 224 472>
VStem: 62 461<83 309 83 309>
LayerCount: 2
Fore
SplineSet
224 38 m 1
 62 195 l 1
 62 309 l 1
 224 466 l 1
 275 420 l 1
 148 252 l 1
 275 83 l 1
 224 38 l 1
472 38 m 1
 310 195 l 1
 310 309 l 1
 472 466 l 1
 523 420 l 1
 396 252 l 1
 523 83 l 1
 472 38 l 1
EndSplineSet
EndChar

StartChar: logicalnot
Encoding: 172 172 675
Width: 600
Flags: MW
HStem: 288 84<78 522 78 435>
VStem: 435 87<99 288 288 288>
LayerCount: 2
Fore
SplineSet
78 288 m 1
 78 372 l 1
 522 372 l 1
 522 99 l 1
 435 99 l 1
 435 288 l 1
 78 288 l 1
EndSplineSet
EndChar

StartChar: uni00AD
Encoding: 173 173 503
Width: 600
Flags: MW
HStem: 288 84<78 522 78 522>
VStem: 78 444<288 372 288 372>
LayerCount: 2
Fore
SplineSet
78 288 m 1
 78 372 l 1
 522 372 l 1
 522 288 l 1
 78 288 l 1
EndSplineSet
Substitution2: "'ss01' Style Set 1 in Latin lookup 17 subtable" uni00AD.a
Substitution2: "'aalt' Access All Alternates in Latin lookup 0 subtable" uni00AD.a
EndChar

StartChar: registered
Encoding: 174 174 528
Width: 600
Flags: MW
HStem: 315 43<257 341 257 352.5> 482 36<272 295 295 307 272 295> 578 38<272 297 272 272> 672 42<257 341>
VStem: 106 47<467.5 561 467.5 573> 223 49<417 482 518 578> 332 53<539.5 556.5> 445 48<467.5 561>
LayerCount: 2
Fore
SplineSet
299 315 m 0
 193 315 106 397 106 514 c 0
 106 632 193 714 299 714 c 0
 406 714 493 632 493 514 c 0
 493 397 406 315 299 315 c 0
299 358 m 0
 383 358 445 421 445 514 c 0
 445 608 383 672 299 672 c 0
 215 672 153 608 153 514 c 0
 153 421 215 358 299 358 c 0
223 417 m 1
 223 616 l 1
 305 616 l 2
 349 616 385 598 385 551 c 0
 385 528 372 506 349 496 c 1
 393 417 l 1
 339 417 l 1
 307 482 l 1
 272 482 l 1
 272 417 l 1
 223 417 l 1
272 518 m 1
 295 518 l 2
 319 518 332 530 332 548 c 0
 332 565 321 578 297 578 c 2
 272 578 l 1
 272 518 l 1
EndSplineSet
EndChar

StartChar: degree
Encoding: 176 176 628
Width: 600
Flags: MW
HStem: 413 59<280 322 280 338> 627 58<280 322>
VStem: 165 64<526.5 572 526.5 589.5> 372 64<526.5 572>
LayerCount: 2
Fore
SplineSet
301 413 m 0
 227 413 165 468 165 549 c 0
 165 630 227 685 301 685 c 0
 375 685 436 630 436 549 c 0
 436 468 375 413 301 413 c 0
301 472 m 0
 343 472 372 504 372 549 c 0
 372 595 343 627 301 627 c 0
 259 627 229 595 229 549 c 0
 229 504 259 472 301 472 c 0
EndSplineSet
EndChar

StartChar: plusminus
Encoding: 177 177 670
Width: 600
Flags: MW
HStem: 0 83<78 522 78 522> 299 83<78 256 78 256 344 522>
VStem: 256 88<143 299 143 299 382 561>
LayerCount: 2
Fore
SplineSet
256 143 m 1
 256 299 l 1
 78 299 l 1
 78 382 l 1
 256 382 l 1
 256 561 l 1
 344 561 l 1
 344 382 l 1
 522 382 l 1
 522 299 l 1
 344 299 l 1
 344 143 l 1
 256 143 l 1
78 0 m 1
 78 83 l 1
 522 83 l 1
 522 0 l 1
 78 0 l 1
EndSplineSet
EndChar

StartChar: two.sups
Encoding: 178 178 540
Width: 600
Flags: MW
HStem: 440 70<314 428 314 428> 691 69<268 296>
VStem: 178 250<440 486 486 486> 332 83<630 656.5>
LayerCount: 2
Fore
SplineSet
178 440 m 1xe0
 178 486 l 1xe0
 271 552 332 602 332 641 c 0
 332 672 313 691 279 691 c 0
 257 691 234 677 216 653 c 1
 166 698 l 1
 199 734 241 760 291 760 c 0
 367 760 415 721 415 655 c 0xd0
 415 605 368 559 314 510 c 1
 428 510 l 1
 428 440 l 1
 178 440 l 1xe0
EndSplineSet
EndChar

StartChar: three.sups
Encoding: 179 179 541
Width: 600
Flags: MW
HStem: 428 64<278 306.5 276 335> 573 47<259 282 259 288> 696 64<276 298.5>
VStem: 330 84<655.5 672> 343 84<517 544 495 544.5>
LayerCount: 2
Fore
SplineSet
168 476 m 1xe8
 205 529 l 1
 226 509 260 492 292 492 c 0
 321 492 343 504 343 530 c 0
 343 559 317 573 259 573 c 1xe8
 259 620 l 1
 305 620 330 634 330 662 c 0
 330 682 314 696 283 696 c 0
 260 696 233 683 213 667 c 1
 177 717 l 1
 205 743 251 760 301 760 c 0
 365 760 414 727 414 674 c 0xf0
 414 637 398 615 359 601 c 1
 404 590 427 564 427 524 c 0
 427 466 370 428 300 428 c 0
 256 428 208 442 168 476 c 1xe8
EndSplineSet
EndChar

StartChar: acute
Encoding: 180 180 716
Width: 600
Flags: MW
HStem: 573 158<226 436 226 436>
VStem: 226 210<573 731>
LayerCount: 2
Fore
SplineSet
436 731 m 1
 312 573 l 1
 226 573 l 1
 316 731 l 1
 436 731 l 1
EndSplineSet
EndChar

StartChar: uni00B5
Encoding: 181 181 678
Width: 600
Flags: MW
HStem: -12 94<483 542.5> -8 95<251.5 296.5 243.5 297.5>
VStem: 70 115<162 202 202 491> 400 108<106 491>
LayerCount: 2
Fore
SplineSet
70 -192 m 1x70
 70 491 l 1
 185 491 l 1
 185 202 l 2
 185 122 213 87 274 87 c 0
 319 87 358 105 400 180 c 1x70
 400 491 l 1
 516 491 l 1
 512 368 508 220 508 120 c 0
 508 92 522 82 540 82 c 0
 545 82 549 82 558 84 c 1
 572 -2 l 1
 558 -8 538 -12 512 -12 c 0xb0
 454 -12 425 21 412 90 c 1
 409 90 l 1
 374 25 325 -8 270 -8 c 0
 233 -8 199 -2 177 30 c 1
 178 -60 180 -114 186 -192 c 1
 70 -192 l 1x70
EndSplineSet
EndChar

StartChar: paragraph
Encoding: 182 182 525
Width: 600
Flags: MW
HStem: 634 20G<296 339 339 339 392 506 506 506>
VStem: 60 279<360 517> 392 114<-80 654 -80 654>
LayerCount: 2
Fore
SplineSet
392 -80 m 1
 392 654 l 1
 506 654 l 1
 506 -80 l 1
 392 -80 l 1
339 654 m 1
 339 212 l 1
 303 212 l 2
 167 212 60 284 60 436 c 0
 60 598 164 654 296 654 c 2
 339 654 l 1
EndSplineSet
EndChar

StartChar: periodcentered
Encoding: 183 183 508
Width: 600
Flags: MW
HStem: 249 203<271.5 328.5>
VStem: 201 198<321 379>
LayerCount: 2
Fore
SplineSet
201 350 m 0
 201 408 243 452 300 452 c 0
 357 452 399 408 399 350 c 0
 399 292 357 249 300 249 c 0
 243 249 201 292 201 350 c 0
EndSplineSet
EndChar

StartChar: cedilla
Encoding: 184 184 731
Width: 600
Flags: MW
HStem: -217 50<210 220> -46 49<322 322>
VStem: 296 85<-134.5 -110.5>
LayerCount: 2
Fore
SplineSet
235 -75 m 1
 275 3 l 1
 345 3 l 1
 322 -46 l 1
 355 -58 381 -78 381 -119 c 0
 381 -182 305 -211 220 -217 c 1
 210 -167 l 1
 260 -161 296 -148 296 -121 c 0
 296 -100 278 -86 235 -75 c 1
EndSplineSet
EndChar

StartChar: one.sups
Encoding: 185 185 539
Width: 600
Flags: MW
HStem: 661 87<202 369>
VStem: 283 86<440 661 661 661>
LayerCount: 2
Fore
SplineSet
283 440 m 1
 283 661 l 1
 202 661 l 1
 202 714 l 1
 249 721 272 730 302 748 c 1
 369 748 l 1
 369 440 l 1
 283 440 l 1
EndSplineSet
EndChar

StartChar: ordmasculine
Encoding: 186 186 596
Width: 600
Flags: MW
HStem: 252 68<275.5 325 275.5 343> 526 67<275.5 325>
VStem: 137 87<391.5 453 391.5 476.5> 376 87<391.5 453>
LayerCount: 2
Fore
SplineSet
137 422 m 0
 137 531 214 593 300 593 c 0
 386 593 463 531 463 422 c 0
 463 315 386 252 300 252 c 0
 214 252 137 315 137 422 c 0
224 422 m 0
 224 361 251 320 300 320 c 0
 350 320 376 361 376 422 c 0
 376 484 350 526 300 526 c 0
 251 526 224 484 224 422 c 0
EndSplineSet
EndChar

StartChar: guillemotright
Encoding: 187 187 501
Width: 600
Flags: MW
HStem: 38 428<128 128 128 376>
VStem: 77 461<83 309 195 420>
LayerCount: 2
Fore
SplineSet
77 83 m 1
 204 252 l 1
 77 420 l 1
 128 466 l 1
 290 309 l 1
 290 195 l 1
 128 38 l 1
 77 83 l 1
325 83 m 1
 452 252 l 1
 325 420 l 1
 376 466 l 1
 538 309 l 1
 538 195 l 1
 376 38 l 1
 325 83 l 1
EndSplineSet
EndChar

StartChar: onequarter
Encoding: 188 188 651
Width: 600
Flags: MW
HStem: 0 121<377 534 377 458> 67 54<377 458 377 458 534 584> 251 57<459 463 459 459> 549 53<71 153 71 71> 549 87<71 238>
VStem: 153 85<328 549 549 549> 458 76<0 67 0 67 121 160 160 160>
LayerCount: 2
Fore
SplineSet
578 565 m 1xae
 393 384 l 1
 351 423 l 1
 516 624 l 1
 578 565 l 1xae
153 328 m 1
 153 549 l 1
 71 549 l 1xae
 71 602 l 1xb6
 119 609 141 618 171 636 c 1
 238 636 l 1
 238 328 l 1
 153 328 l 1
22 89 m 1
 207 270 l 1
 249 231 l 1
 84 30 l 1
 22 89 l 1
377 121 m 1
 458 121 l 1
 458 160 l 1
 463 251 l 1
 459 251 l 1
 420 188 l 1
 377 121 l 1
584 121 m 1
 584 67 l 1
 534 67 l 1x6e
 534 0 l 1
 458 0 l 1xae
 458 67 l 1
 297 67 l 1
 297 108 l 1x6e
 431 308 l 1
 534 308 l 1
 534 121 l 1
 584 121 l 1
EndSplineSet
EndChar

StartChar: onehalf
Encoding: 189 189 652
Width: 600
Flags: MW
HStem: 0 70<444 558 444 558> 251 69<398.5 427> 549 53<71 153 71 71> 549 87<71 238>
VStem: 153 85<328 549 549 549> 308 250<0 46 46 46> 462 83<190 216.5>
LayerCount: 2
Fore
SplineSet
153 328 m 1xd8
 153 549 l 1
 71 549 l 1xdc
 71 602 l 1xe8
 119 609 141 618 171 636 c 1
 238 636 l 1
 238 328 l 1
 153 328 l 1xd8
84 30 m 1
 22 89 l 1
 207 270 l 1
 249 231 l 1
 84 30 l 1
516 624 m 1
 578 565 l 1
 393 384 l 1
 351 423 l 1
 516 624 l 1
308 0 m 1
 308 46 l 1xdc
 401 112 462 162 462 201 c 0
 462 232 444 251 410 251 c 0
 387 251 364 237 347 213 c 1
 296 258 l 1
 330 294 371 320 422 320 c 0
 497 320 545 281 545 215 c 0xda
 545 165 498 119 444 70 c 1
 558 70 l 1
 558 0 l 1
 308 0 l 1
EndSplineSet
EndChar

StartChar: threequarters
Encoding: 190 190 653
Width: 600
Flags: MW
HStem: 0 121<377 534 377 458> 67 54<377 458 377 458 534 585> 251 57<460 463 460 460> 316 64<147 175.5 145 204> 461 47<128 151 128 157> 584 64<145 167.5>
VStem: 199 84<543.5 560> 212 84<405 432 383 432.5> 458 76<0 67 0 67 121 160 160 160>
LayerCount: 2
Fore
SplineSet
594 565 m 1x9e80
 409 384 l 1
 367 423 l 1
 532 624 l 1
 594 565 l 1x9e80
38 89 m 1
 223 270 l 1
 265 231 l 1
 100 30 l 1
 38 89 l 1
82 555 m 1
 46 605 l 1
 74 631 120 648 170 648 c 0
 234 648 283 615 283 562 c 0xbe80
 283 525 267 503 228 489 c 1
 273 478 296 452 296 412 c 0
 296 354 239 316 169 316 c 0
 125 316 77 330 37 364 c 1
 74 417 l 1
 95 397 129 380 161 380 c 0
 190 380 212 392 212 418 c 0
 212 447 186 461 128 461 c 1x9d80
 128 508 l 1
 174 508 199 522 199 550 c 0
 199 570 183 584 152 584 c 0
 129 584 102 571 82 555 c 1
377 121 m 1
 458 121 l 1
 458 160 l 1
 463 251 l 1
 460 251 l 1
 421 188 l 1
 377 121 l 1
534 308 m 1
 534 121 l 1
 585 121 l 1x9e80
 585 67 l 1
 534 67 l 1x5e80
 534 0 l 1
 458 0 l 1x9e80
 458 67 l 1
 297 67 l 1
 297 108 l 1x5e80
 431 308 l 1
 534 308 l 1
EndSplineSet
EndChar

StartChar: questiondown
Encoding: 191 191 489
Width: 600
Flags: MW
HStem: -191 94<287.5 339 287.5 347> 325 178<290.5 339.5> 483 20G<290.5 339.5>
VStem: 113 111<-41 27 -41 34.5> 228 174<386.5 440>
LayerCount: 2
Fore
SplineSet
371 247 m 1xb0
 394 109 224 71 224 -17 c 0
 224 -65 259 -97 316 -97 c 0
 362 -97 399 -76 432 -45 c 1
 497 -105 l 1
 451 -155 386 -191 308 -191 c 0
 195 -191 113 -134 113 -31 c 0
 113 100 285 125 270 247 c 1
 371 247 l 1xb0
402 413 m 0xa8
 402 360 364 325 315 325 c 0xc8
 266 325 228 360 228 413 c 0
 228 467 266 503 315 503 c 0
 364 503 402 467 402 413 c 0xa8
EndSplineSet
EndChar

StartChar: Agrave
Encoding: 192 192 54
Width: 600
Flags: MW
HStem: 0 21G<20 138 20 20 457 580 457 457> 177 91<215 381 215 407 189 381> 564 90<296 300 296 296> 704 116<270 279 153 363 270 270>
VStem: 20 560<0 0>
LayerCount: 2
Fore
SplineSet
363 704 m 1
 270 704 l 1
 153 820 l 1
 279 820 l 1
 363 704 l 1
215 268 m 1
 381 268 l 1
 358 348 l 2
 339 417 319 492 300 564 c 1
 296 564 l 1
 278 491 258 417 238 348 c 2
 215 268 l 1
457 0 m 1
 407 177 l 1
 189 177 l 1
 138 0 l 1
 20 0 l 1
 232 654 l 1
 368 654 l 1
 580 0 l 1
 457 0 l 1
EndSplineSet
EndChar

StartChar: Aacute
Encoding: 193 193 55
Width: 600
Flags: MW
HStem: 0 21G<20 138 20 20 457 580 457 457> 177 91<215 381 215 407 189 381> 564 90<296 300 296 296> 704 116<321 330 237 447>
VStem: 20 560<0 0>
LayerCount: 2
Fore
SplineSet
447 820 m 1
 330 704 l 1
 237 704 l 1
 321 820 l 1
 447 820 l 1
215 268 m 1
 381 268 l 1
 358 348 l 2
 339 417 319 492 300 564 c 1
 296 564 l 1
 278 491 258 417 238 348 c 2
 215 268 l 1
457 0 m 1
 407 177 l 1
 189 177 l 1
 138 0 l 1
 20 0 l 1
 232 654 l 1
 368 654 l 1
 580 0 l 1
 457 0 l 1
EndSplineSet
EndChar

StartChar: Acircumflex
Encoding: 194 194 56
Width: 600
Flags: MW
HStem: 0 21G<20 138 20 20 457 580 457 457> 177 91<215 381 215 407 189 381> 564 90<296 300 296 296> 704 116<148 356 148 356 244 362 244 452>
VStem: 20 560<0 0>
LayerCount: 2
Fore
SplineSet
298 768 m 1
 238 704 l 1
 148 704 l 1
 244 820 l 1
 356 820 l 1
 452 704 l 1
 362 704 l 1
 302 768 l 1
 298 768 l 1
215 268 m 1
 381 268 l 1
 358 348 l 2
 339 417 319 492 300 564 c 1
 296 564 l 1
 278 491 258 417 238 348 c 2
 215 268 l 1
457 0 m 1
 407 177 l 1
 189 177 l 1
 138 0 l 1
 20 0 l 1
 232 654 l 1
 368 654 l 1
 580 0 l 1
 457 0 l 1
EndSplineSet
EndChar

StartChar: Atilde
Encoding: 195 195 57
Width: 600
Flags: MW
HStem: 0 21G<20 138 20 20 457 580 457 457> 177 91<215 381 215 407 189 381> 564 90<296 300 296 296> 707 74<341 367 341 387> 756 73<233 259>
VStem: 142 61<707 707> 397 61<829 829>
LayerCount: 2
Fore
SplineSet
397 829 m 1xea
 458 829 l 1xea
 450 753 412 707 362 707 c 0xf2
 308 707 276 756 242 756 c 0xec
 224 756 209 740 203 707 c 1
 142 707 l 1xf4
 150 784 188 829 238 829 c 0xec
 292 829 324 781 358 781 c 0xf2
 376 781 391 796 397 829 c 1xea
215 268 m 1
 381 268 l 1
 358 348 l 2
 339 417 319 492 300 564 c 1
 296 564 l 1
 278 491 258 417 238 348 c 2
 215 268 l 1
457 0 m 1
 407 177 l 1
 189 177 l 1
 138 0 l 1
 20 0 l 1
 232 654 l 1
 368 654 l 1
 580 0 l 1
 457 0 l 1
EndSplineSet
EndChar

StartChar: Adieresis
Encoding: 196 196 58
Width: 600
Flags: MW
HStem: 0 21G<20 138 20 20 457 580 457 457> 177 91<215 381 215 407 189 381> 564 90<296 300 296 296> 708 119<189.5 224.5 375.5 410.5>
VStem: 148 119<750 784.5> 333 119<750 784.5>
LayerCount: 2
Fore
SplineSet
393 708 m 0
 358 708 333 733 333 767 c 0
 333 802 358 827 393 827 c 0
 428 827 452 802 452 767 c 0
 452 733 428 708 393 708 c 0
207 708 m 0
 172 708 148 733 148 767 c 0
 148 802 172 827 207 827 c 0
 242 827 267 802 267 767 c 0
 267 733 242 708 207 708 c 0
215 268 m 1
 381 268 l 1
 358 348 l 2
 339 417 319 492 300 564 c 1
 296 564 l 1
 278 491 258 417 238 348 c 2
 215 268 l 1
457 0 m 1
 407 177 l 1
 189 177 l 1
 138 0 l 1
 20 0 l 1
 232 654 l 1
 368 654 l 1
 580 0 l 1
 457 0 l 1
EndSplineSet
EndChar

StartChar: Aring
Encoding: 197 197 61
Width: 600
Flags: MW
HStem: 0 21G<20 138 20 20 457 580 457 457> 177 91<215 381 215 407 189 381> 564 90<296 300 296 296> 698 46<287.5 312 287.5 330> 838 46<287.5 312>
VStem: 197 59<776 805.5 776 819> 344 59<776 805.5>
LayerCount: 2
Fore
SplineSet
300 838 m 0
 275 838 256 820 256 791 c 0
 256 761 275 744 300 744 c 0
 324 744 344 761 344 791 c 0
 344 820 324 838 300 838 c 0
300 698 m 0
 239 698 197 734 197 791 c 0
 197 847 239 884 300 884 c 0
 360 884 403 847 403 791 c 0
 403 734 360 698 300 698 c 0
215 268 m 1
 381 268 l 1
 358 348 l 2
 339 417 319 492 300 564 c 1
 296 564 l 1
 278 491 258 417 238 348 c 2
 215 268 l 1
457 0 m 1
 407 177 l 1
 189 177 l 1
 138 0 l 1
 20 0 l 1
 232 654 l 1
 368 654 l 1
 580 0 l 1
 457 0 l 1
EndSplineSet
EndChar

StartChar: AE
Encoding: 198 198 76
Width: 600
GlyphClass: 2
Flags: MW
HStem: 0 98<418 593 418 593> 170 91<207 314 207 314 176 314> 292 98<418 550 418 550> 556 98<418 584 418 418>
VStem: 314 104<98 98 98 170 170 170 261 292 390 556>
AnchorPoint: "Anchor-0" 431 694 basechar 0
LayerCount: 2
Fore
SplineSet
207 261 m 1
 314 261 l 1
 314 565 l 1
 311 565 l 1
 289 497 265 430 243 366 c 2
 207 261 l 1
418 98 m 1
 593 98 l 1
 593 0 l 1
 314 0 l 1
 314 170 l 1
 176 170 l 1
 118 0 l 1
 -2 0 l 1
 232 654 l 1
 584 654 l 1
 584 556 l 1
 418 556 l 1
 418 390 l 1
 550 390 l 1
 550 292 l 1
 418 292 l 1
 418 98 l 1
EndSplineSet
EndChar

StartChar: Ccedilla
Encoding: 199 199 78
Width: 600
Flags: MW
HStem: -217 50<250 260> -8 21G<309 309> 565 101<308.5 388.5>
VStem: 60 119<253.5 401.5 253.5 432> 336 85<-134.5 -110.5>
LayerCount: 2
Fore
SplineSet
497 154 m 1
 561 83 l 1
 512 27 452 -6 378 -11 c 1
 362 -46 l 1
 395 -58 421 -78 421 -119 c 0
 421 -182 345 -211 260 -217 c 1
 250 -167 l 1
 300 -161 336 -148 336 -121 c 0
 336 -100 318 -86 275 -75 c 1
 309 -8 l 1
 167 13 60 130 60 325 c 0
 60 539 190 666 363 666 c 0
 443 666 507 627 549 584 c 1
 484 512 l 1
 452 544 414 565 363 565 c 0
 254 565 179 475 179 328 c 0
 179 179 254 89 366 89 c 0
 419 89 460 113 497 154 c 1
EndSplineSet
EndChar

StartChar: Egrave
Encoding: 200 200 87
Width: 600
Flags: MW
HStem: 0 98<220 532 220 532> 291 98<220 476 220 476> 556 98<220 522 220 220> 704 116<296 296 296 305 179 389>
VStem: 104 116<98 291 389 556>
LayerCount: 2
Fore
SplineSet
104 0 m 1
 104 654 l 1
 522 654 l 1
 522 556 l 1
 220 556 l 1
 220 389 l 1
 476 389 l 1
 476 291 l 1
 220 291 l 1
 220 98 l 1
 532 98 l 1
 532 0 l 1
 104 0 l 1
296 704 m 1
 179 820 l 1
 305 820 l 1
 389 704 l 1
 296 704 l 1
EndSplineSet
EndChar

StartChar: Eacute
Encoding: 201 201 88
Width: 600
Flags: MW
HStem: 0 98<220 532 220 532> 291 98<220 476 220 476> 556 98<220 522 220 220> 704 116<347 356 263 473>
VStem: 104 116<98 291 389 556>
LayerCount: 2
Fore
SplineSet
104 0 m 1
 104 654 l 1
 522 654 l 1
 522 556 l 1
 220 556 l 1
 220 389 l 1
 476 389 l 1
 476 291 l 1
 220 291 l 1
 220 98 l 1
 532 98 l 1
 532 0 l 1
 104 0 l 1
473 820 m 1
 356 704 l 1
 263 704 l 1
 347 820 l 1
 473 820 l 1
EndSplineSet
EndChar

StartChar: Edieresis
Encoding: 203 203 91
Width: 600
Flags: MW
HStem: 0 98<220 532 220 532> 291 98<220 476 220 476> 556 98<220 522 220 220> 708 119<215.5 250.5 401.5 436.5>
VStem: 104 116<98 291 389 556> 174 119<750 784.5> 359 119<750 784.5>
LayerCount: 2
Fore
SplineSet
104 0 m 1xe8
 104 654 l 1
 522 654 l 1
 522 556 l 1
 220 556 l 1
 220 389 l 1
 476 389 l 1
 476 291 l 1
 220 291 l 1
 220 98 l 1
 532 98 l 1
 532 0 l 1
 104 0 l 1xe8
233 708 m 0xf6
 198 708 174 733 174 767 c 0
 174 802 198 827 233 827 c 0
 268 827 293 802 293 767 c 0
 293 733 268 708 233 708 c 0xf6
419 708 m 0
 384 708 359 733 359 767 c 0
 359 802 384 827 419 827 c 0
 454 827 478 802 478 767 c 0
 478 733 454 708 419 708 c 0
EndSplineSet
EndChar

StartChar: Igrave
Encoding: 204 204 115
Width: 600
Flags: MW
HStem: 0 98<84 242 84 242 358 516> 556 98<84 242 84 516 358 358 358 516> 704 116<270 270 270 279 153 363>
VStem: 242 116<98 556 98 556>
LayerCount: 2
Fore
SplineSet
84 0 m 1
 84 98 l 1
 242 98 l 1
 242 556 l 1
 84 556 l 1
 84 654 l 1
 516 654 l 1
 516 556 l 1
 358 556 l 1
 358 98 l 1
 516 98 l 1
 516 0 l 1
 84 0 l 1
270 704 m 1
 153 820 l 1
 279 820 l 1
 363 704 l 1
 270 704 l 1
EndSplineSet
EndChar

StartChar: Iacute
Encoding: 205 205 116
Width: 600
Flags: MW
HStem: 0 98<84 242 84 242 358 516> 556 98<84 242 84 516 358 358 358 516> 704 116<321 330 237 447>
VStem: 242 116<98 556 98 556>
LayerCount: 2
Fore
SplineSet
84 0 m 1
 84 98 l 1
 242 98 l 1
 242 556 l 1
 84 556 l 1
 84 654 l 1
 516 654 l 1
 516 556 l 1
 358 556 l 1
 358 98 l 1
 516 98 l 1
 516 0 l 1
 84 0 l 1
447 820 m 1
 330 704 l 1
 237 704 l 1
 321 820 l 1
 447 820 l 1
EndSplineSet
EndChar

StartChar: Icircumflex
Encoding: 206 206 117
Width: 600
Flags: MW
HStem: 0 98<84 242 84 242 358 516> 556 98<84 242 84 516 358 358 358 516> 704 116<148 356 148 356 244 362 244 452>
VStem: 242 116<98 556 98 556>
LayerCount: 2
Fore
SplineSet
84 0 m 1
 84 98 l 1
 242 98 l 1
 242 556 l 1
 84 556 l 1
 84 654 l 1
 516 654 l 1
 516 556 l 1
 358 556 l 1
 358 98 l 1
 516 98 l 1
 516 0 l 1
 84 0 l 1
238 704 m 1
 148 704 l 1
 244 820 l 1
 356 820 l 1
 452 704 l 1
 362 704 l 1
 302 768 l 1
 298 768 l 1
 238 704 l 1
EndSplineSet
EndChar

StartChar: Idieresis
Encoding: 207 207 119
Width: 600
Flags: MW
HStem: 0 98<84 242 84 242 358 516> 556 98<84 242 84 516 358 358 358 516> 708 119<189.5 224.5 375.5 410.5>
VStem: 148 119<750 784.5> 242 116<98 556 98 556> 333 119<750 784.5>
LayerCount: 2
Fore
SplineSet
84 0 m 1xc8
 84 98 l 1
 242 98 l 1
 242 556 l 1
 84 556 l 1
 84 654 l 1
 516 654 l 1
 516 556 l 1
 358 556 l 1
 358 98 l 1
 516 98 l 1
 516 0 l 1
 84 0 l 1xc8
207 708 m 0xf4
 172 708 148 733 148 767 c 0
 148 802 172 827 207 827 c 0
 242 827 267 802 267 767 c 0
 267 733 242 708 207 708 c 0xf4
393 708 m 0
 358 708 333 733 333 767 c 0
 333 802 358 827 393 827 c 0
 428 827 452 802 452 767 c 0
 452 733 428 708 393 708 c 0
EndSplineSet
EndChar

StartChar: Eth
Encoding: 208 208 228
Width: 600
Flags: MW
HStem: 0 94<197 243 243 256> 311 59<9 81 197 322> 560 94<197 243 197 197>
VStem: 81 116<94 94 94 311 370 560> 439 119<249.5 410>
LayerCount: 2
Fore
SplineSet
81 0 m 1
 81 311 l 1
 9 311 l 1
 9 365 l 1
 81 370 l 1
 81 654 l 1
 250 654 l 2
 442 654 558 546 558 330 c 0
 558 113 442 0 256 0 c 2
 81 0 l 1
197 94 m 1
 243 94 l 2
 367 94 439 169 439 330 c 0
 439 490 367 560 243 560 c 2
 197 560 l 1
 197 370 l 1
 322 370 l 1
 322 311 l 1
 197 311 l 1
 197 94 l 1
EndSplineSet
EndChar

StartChar: Ntilde
Encoding: 209 209 140
Width: 600
Flags: MW
HStem: 0 21G<74 74 74 185 408 408 408 526> 0 147<408 431 428 431 428 526> 507 147<169 172 169 169> 634 20G<74 192 192 192 415 526 526 526> 707 74<347 373 347 393> 756 73<239 265>
VStem: 74 111<0 286 0 654> 148 61<707 707> 403 61<829 829> 415 111<370 654 0 654>
LayerCount: 2
Fore
SplineSet
74 0 m 1x9640
 74 654 l 1
 192 654 l 1
 367 286 l 1
 428 147 l 1
 431 147 l 1x5640
 426 214 415 297 415 370 c 2
 415 654 l 1
 526 654 l 1
 526 0 l 1
 408 0 l 1
 233 369 l 1
 172 507 l 1
 169 507 l 1xa640
 174 438 185 359 185 286 c 2
 185 0 l 1
 74 0 l 1x9640
368 707 m 0x9a80
 314 707 282 756 248 756 c 0x9540
 230 756 215 740 209 707 c 1
 148 707 l 1x9940
 156 784 194 829 244 829 c 0x9540
 298 829 330 781 364 781 c 0x9a80
 382 781 397 796 403 829 c 1
 464 829 l 1x9680
 456 753 418 707 368 707 c 0x9a80
EndSplineSet
EndChar

StartChar: Ograve
Encoding: 210 210 145
Width: 600
Flags: MW
HStem: -12 101<258 342 258 376> 565 101<258 342> 704 116<270 270 270 279 153 363>
VStem: 43 119<256.5 403 256.5 435.5> 438 119<256.5 403>
LayerCount: 2
Fore
SplineSet
300 -12 m 0
 148 -12 43 118 43 330 c 0
 43 541 148 666 300 666 c 0
 452 666 557 541 557 330 c 0
 557 118 452 -12 300 -12 c 0
300 89 m 0
 384 89 438 183 438 330 c 0
 438 476 384 565 300 565 c 0
 216 565 162 476 162 330 c 0
 162 183 216 89 300 89 c 0
270 704 m 1
 153 820 l 1
 279 820 l 1
 363 704 l 1
 270 704 l 1
EndSplineSet
EndChar

StartChar: Ocircumflex
Encoding: 212 212 147
Width: 600
Flags: MW
HStem: -12 101<258 342 258 376> 565 101<258 342> 704 116<148 356 148 356 244 362 244 452>
VStem: 43 119<256.5 403 256.5 435.5> 438 119<256.5 403>
LayerCount: 2
Fore
SplineSet
300 -12 m 0
 148 -12 43 118 43 330 c 0
 43 541 148 666 300 666 c 0
 452 666 557 541 557 330 c 0
 557 118 452 -12 300 -12 c 0
300 89 m 0
 384 89 438 183 438 330 c 0
 438 476 384 565 300 565 c 0
 216 565 162 476 162 330 c 0
 162 183 216 89 300 89 c 0
238 704 m 1
 148 704 l 1
 244 820 l 1
 356 820 l 1
 452 704 l 1
 362 704 l 1
 302 768 l 1
 298 768 l 1
 238 704 l 1
EndSplineSet
MultipleSubs2: "Multiple Substitution lookup 2 subtable" O uni0302
EndChar

StartChar: Otilde
Encoding: 213 213 148
Width: 600
Flags: MW
HStem: -12 101<258 342 258 376> 565 101<258 342> 707 74<341 367 341 387> 756 73<233 259>
VStem: 43 119<256.5 403 256.5 435.5> 142 61<707 707> 397 61<829 829> 438 119<256.5 403>
LayerCount: 2
Fore
SplineSet
300 -12 m 0xd9
 148 -12 43 118 43 330 c 0
 43 541 148 666 300 666 c 0
 452 666 557 541 557 330 c 0
 557 118 452 -12 300 -12 c 0xd9
300 89 m 0
 384 89 438 183 438 330 c 0
 438 476 384 565 300 565 c 0
 216 565 162 476 162 330 c 0
 162 183 216 89 300 89 c 0
362 707 m 0xea
 308 707 276 756 242 756 c 0xd5
 224 756 209 740 203 707 c 1
 142 707 l 1xe5
 150 784 188 829 238 829 c 0xd5
 292 829 324 781 358 781 c 0xea
 376 781 391 796 397 829 c 1
 458 829 l 1xda
 450 753 412 707 362 707 c 0xea
EndSplineSet
EndChar

StartChar: Odieresis
Encoding: 214 214 149
Width: 600
Flags: MW
HStem: -12 101<258 342 258 376> 565 101<258 342> 708 119<189.5 224.5 375.5 410.5>
VStem: 43 119<256.5 403 256.5 435.5> 148 119<750 784.5> 333 119<750 784.5> 438 119<256.5 403>
LayerCount: 2
Fore
SplineSet
300 -12 m 0xf2
 148 -12 43 118 43 330 c 0
 43 541 148 666 300 666 c 0
 452 666 557 541 557 330 c 0
 557 118 452 -12 300 -12 c 0xf2
300 89 m 0
 384 89 438 183 438 330 c 0
 438 476 384 565 300 565 c 0
 216 565 162 476 162 330 c 0
 162 183 216 89 300 89 c 0
207 708 m 0xec
 172 708 148 733 148 767 c 0
 148 802 172 827 207 827 c 0
 242 827 267 802 267 767 c 0
 267 733 242 708 207 708 c 0xec
393 708 m 0
 358 708 333 733 333 767 c 0
 333 802 358 827 393 827 c 0
 428 827 452 802 452 767 c 0
 452 733 428 708 393 708 c 0
EndSplineSet
EndChar

StartChar: multiply
Encoding: 215 215 662
Width: 600
Flags: MW
HStem: 119 421<152 152 152 448>
VStem: 93 414<179 179 179 480>
LayerCount: 2
Fore
SplineSet
152 119 m 1
 93 179 l 1
 241 329 l 1
 93 480 l 1
 152 540 l 1
 300 388 l 1
 448 540 l 1
 507 480 l 1
 359 329 l 1
 507 179 l 1
 448 119 l 1
 300 270 l 1
 152 119 l 1
EndSplineSet
EndChar

StartChar: Oslash
Encoding: 216 216 161
Width: 600
GlyphClass: 2
Flags: MW
HStem: -12 21G<271.5 376> -12 101<283 342 283 376> 565 101<258 318> 646 20G<224 329.5>
VStem: 43 119<307 403 307 435.5> 438 119<256.5 350.5>
AnchorPoint: "Anchor-0" 303 676 basechar 0
LayerCount: 2
Fore
SplineSet
426 440 m 1x6c
 215 132 l 1
 237 104 266 89 300 89 c 0
 384 89 438 183 438 330 c 0
 438 371 434 408 426 440 c 1x6c
177 209 m 1
 389 520 l 1
 366 549 336 565 300 565 c 0
 216 565 162 476 162 330 c 0
 162 284 167 244 177 209 c 1
568 648 m 1x5c
 503 553 l 1
 537 497 557 421 557 330 c 0
 557 118 452 -12 300 -12 c 0
 243 -12 193 6 152 40 c 1
 100 -36 l 1x5c
 38 6 l 1
 101 99 l 1
 64 156 43 235 43 330 c 0
 43 541 148 666 300 666 c 0
 359 666 411 647 452 612 c 1
 505 690 l 1xac
 568 648 l 1x5c
EndSplineSet
EndChar

StartChar: Ugrave
Encoding: 217 217 189
Width: 600
Flags: MW
HStem: -12 101<266 336.5 266 373> 634 20G<72 188 188 188 417 528 528 528> 704 116<270 270 270 279 153 363>
VStem: 72 116<250 654> 417 111<241 250 250 654>
LayerCount: 2
Fore
SplineSet
72 250 m 2
 72 654 l 1
 188 654 l 1
 188 241 l 2
 188 134 231 89 301 89 c 0
 372 89 417 134 417 241 c 2
 417 654 l 1
 528 654 l 1
 528 250 l 2
 528 71 445 -12 301 -12 c 0
 158 -12 72 71 72 250 c 2
270 704 m 1
 153 820 l 1
 279 820 l 1
 363 704 l 1
 270 704 l 1
EndSplineSet
EndChar

StartChar: Ucircumflex
Encoding: 219 219 191
Width: 600
Flags: MW
HStem: -12 101<266 336.5 266 373> 634 20G<72 188 188 188 417 528 528 528> 704 116<148 356 148 356 244 362 244 452>
VStem: 72 116<250 654> 417 111<241 250 250 654>
LayerCount: 2
Fore
SplineSet
72 250 m 2
 72 654 l 1
 188 654 l 1
 188 241 l 2
 188 134 231 89 301 89 c 0
 372 89 417 134 417 241 c 2
 417 654 l 1
 528 654 l 1
 528 250 l 2
 528 71 445 -12 301 -12 c 0
 158 -12 72 71 72 250 c 2
238 704 m 1
 148 704 l 1
 244 820 l 1
 356 820 l 1
 452 704 l 1
 362 704 l 1
 302 768 l 1
 298 768 l 1
 238 704 l 1
EndSplineSet
EndChar

StartChar: Udieresis
Encoding: 220 220 193
Width: 600
Flags: MW
HStem: -12 101<266 336.5 266 373> 634 20G<72 188 188 188 417 528 528 528> 708 119<189.5 224.5 375.5 410.5>
VStem: 72 116<250 654> 148 119<750 784.5> 333 119<750 784.5> 417 111<241 250 250 654>
LayerCount: 2
Fore
SplineSet
72 250 m 2xf2
 72 654 l 1
 188 654 l 1
 188 241 l 2
 188 134 231 89 301 89 c 0
 372 89 417 134 417 241 c 2
 417 654 l 1
 528 654 l 1
 528 250 l 2
 528 71 445 -12 301 -12 c 0
 158 -12 72 71 72 250 c 2xf2
207 708 m 0xec
 172 708 148 733 148 767 c 0
 148 802 172 827 207 827 c 0
 242 827 267 802 267 767 c 0
 267 733 242 708 207 708 c 0xec
393 708 m 0
 358 708 333 733 333 767 c 0
 333 802 358 827 393 827 c 0
 428 827 452 802 452 767 c 0
 452 733 428 708 393 708 c 0
EndSplineSet
EndChar

StartChar: Yacute
Encoding: 221 221 217
Width: 600
Flags: MW
HStem: 0 21G<242 242 242 358> 634 20G<27 150 150 150 453 573 573 573> 704 116<321 330 237 447>
VStem: 242 116<0 227 0 227>
LayerCount: 2
Fore
SplineSet
242 0 m 1
 242 227 l 1
 27 654 l 1
 150 654 l 1
 232 478 l 2
 255 428 276 380 299 327 c 1
 303 327 l 1
 327 380 350 428 372 479 c 1
 453 654 l 1
 573 654 l 1
 358 227 l 1
 358 0 l 1
 242 0 l 1
447 820 m 1
 330 704 l 1
 237 704 l 1
 321 820 l 1
 447 820 l 1
EndSplineSet
EndChar

StartChar: Thorn
Encoding: 222 222 229
Width: 600
Flags: MW
HStem: 0 21G<87 87 87 203> 136 93<203 297 297 307 203 297> 457 93<203 297 203 307> 634 20G<87 203 203 203>
VStem: 87 116<0 136 229 457 550 654> 441 115<308 388.5>
LayerCount: 2
Fore
SplineSet
87 0 m 1
 87 654 l 1
 203 654 l 1
 203 550 l 1
 307 550 l 2
 450 550 556 499 556 348 c 0
 556 202 448 136 307 136 c 2
 203 136 l 1
 203 0 l 1
 87 0 l 1
203 229 m 1
 297 229 l 2
 395 229 441 268 441 348 c 0
 441 429 392 457 297 457 c 2
 203 457 l 1
 203 229 l 1
EndSplineSet
EndChar

StartChar: germandbls
Encoding: 223 223 363
Width: 600
Flags: MW
HStem: -12 87<379 415.5 379 452> 0 21G<74 74 74 189> 627 91<255.5 309>
VStem: 74 115<0 496 0 507 0 568.5> 282 108<330.5 399.5> 357 108<512.5 574> 460 108<118.5 182.5>
LayerCount: 2
Fore
SplineSet
74 0 m 1x74
 74 507 l 2
 74 630 149 718 288 718 c 0xb4
 406 718 465 642 465 560 c 0
 465 462 390 431 390 371 c 0
 390 290 568 296 568 144 c 0
 568 57 505 -12 399 -12 c 0
 343 -12 301 3 258 29 c 1
 299 108 l 1
 332 85 363 75 395 75 c 0
 436 75 460 102 460 135 c 0xba
 460 230 282 222 282 357 c 0
 282 442 357 472 357 553 c 0
 357 595 331 627 287 627 c 0
 224 627 189 580 189 496 c 2
 189 0 l 1
 74 0 l 1x74
EndSplineSet
EndChar

StartChar: atilde
Encoding: 227 227 234
Width: 600
Flags: MW
HStem: -12 90<245.5 268> 0 21G<431 525 431 431> 242 72<410 410> 410 93<272 333> 577 73<349.5 375 349.5 393.5> 577 127<154 281 154 281 228.5 393.5>
VStem: 71 111<119 167.5 119 187> 154 62<577 577> 410 115<138 242 242 242>
LayerCount: 2
Fore
SplineSet
71 132 m 0xb680
 71 242 168 297 410 314 c 1
 406 369 373 410 293 410 c 0
 238 410 183 386 132 358 c 1
 90 435 l 1
 149 470 230 503 314 503 c 0
 450 503 525 428 525 291 c 2
 525 0 l 1
 431 0 l 1x7680
 422 61 l 1
 419 61 l 1
 367 21 301 -12 235 -12 c 0
 139 -12 71 46 71 132 c 0xb680
182 141 m 0
 182 97 221 78 270 78 c 0
 319 78 365 102 410 138 c 1
 410 242 l 1
 234 230 182 194 182 141 c 0
154 577 m 1xb580
 164 657 200 704 257 704 c 0xb680
 305 704 335 650 364 650 c 0xba80
 386 650 398 666 406 704 c 1
 467 704 l 1xb680
 458 624 422 577 365 577 c 0xba80
 316 577 288 631 257 631 c 0
 236 631 223 615 216 577 c 1
 154 577 l 1xb580
EndSplineSet
Substitution2: "'ss02' Style Set 2 in Latin lookup 18 subtable" atilde.a
Substitution2: "'aalt' Access All Alternates in Latin lookup 0 subtable" atilde.a
EndChar

StartChar: adieresis
Encoding: 228 228 235
Width: 600
Flags: MW
HStem: -12 90<245.5 268> 0 21G<431 525 431 431> 242 72<410 410> 410 93<272 333> 579 135<188.5 227.5 394 433.5>
VStem: 71 111<119 167.5 119 187> 142 132<627 665> 347 133<627 665> 410 115<138 242 242 242>
LayerCount: 2
Fore
SplineSet
71 132 m 0xbc80
 71 242 168 297 410 314 c 1
 406 369 373 410 293 410 c 0
 238 410 183 386 132 358 c 1
 90 435 l 1
 149 470 230 503 314 503 c 0
 450 503 525 428 525 291 c 2
 525 0 l 1
 431 0 l 1x7c80
 422 61 l 1
 419 61 l 1
 367 21 301 -12 235 -12 c 0
 139 -12 71 46 71 132 c 0xbc80
182 141 m 0
 182 97 221 78 270 78 c 0
 319 78 365 102 410 138 c 1
 410 242 l 1
 234 230 182 194 182 141 c 0
208 579 m 0xbb
 169 579 142 608 142 646 c 0
 142 684 169 714 208 714 c 0
 247 714 274 684 274 646 c 0
 274 608 247 579 208 579 c 0xbb
414 579 m 0
 374 579 347 608 347 646 c 0
 347 684 374 714 414 714 c 0
 453 714 480 684 480 646 c 0
 480 608 453 579 414 579 c 0
EndSplineSet
Substitution2: "'ss02' Style Set 2 in Latin lookup 18 subtable" adieresis.a
Substitution2: "'aalt' Access All Alternates in Latin lookup 0 subtable" adieresis.a
EndChar

StartChar: aring
Encoding: 229 229 238
Width: 600
Flags: MW
HStem: -12 90<245.5 268> 0 21G<431 525 431 431> 242 72<410 410> 410 93<272 333> 545 46<298.5 323 298.5 341.5> 694 46<298.5 323>
VStem: 71 111<119 167.5 119 187> 208 58<627 657.5 627 671.5> 355 59<627 657.5> 410 115<138 242 242 242>
LayerCount: 2
Fore
SplineSet
71 132 m 0xbf40
 71 242 168 297 410 314 c 1
 406 369 373 410 293 410 c 0
 238 410 183 386 132 358 c 1
 90 435 l 1
 149 470 230 503 314 503 c 0
 450 503 525 428 525 291 c 2
 525 0 l 1
 431 0 l 1x7d40
 422 61 l 1
 419 61 l 1
 367 21 301 -12 235 -12 c 0
 139 -12 71 46 71 132 c 0xbf40
182 141 m 0
 182 97 221 78 270 78 c 0
 319 78 365 102 410 138 c 1
 410 242 l 1
 234 230 182 194 182 141 c 0
311 545 m 0x9d80
 250 545 208 584 208 642 c 0
 208 701 250 740 311 740 c 0
 372 740 414 701 414 642 c 0
 414 584 372 545 311 545 c 0x9d80
311 591 m 0
 335 591 355 612 355 642 c 0
 355 673 335 694 311 694 c 0
 286 694 266 673 266 642 c 0
 266 612 286 591 311 591 c 0
EndSplineSet
Substitution2: "'ss02' Style Set 2 in Latin lookup 18 subtable" aring.a
Substitution2: "'aalt' Access All Alternates in Latin lookup 0 subtable" aring.a
EndChar

StartChar: ae
Encoding: 230 230 253
Width: 600
Flags: MW
HStem: -12 91<422.5 470 422.5 472.5> 214 73<347 502 346 590 347 347> 411 92<165.5 206> 414 89<413.5 459.5>
VStem: 16 105<121 166.5 121 183.5> 253 93<219 287> 502 93<287 321.5>
LayerCount: 2
Fore
SplineSet
16 134 m 0xde
 16 233 95 287 253 314 c 1
 250 373 231 411 181 411 c 0
 150 411 106 394 73 373 c 1xee
 31 450 l 1
 79 479 133 503 191 503 c 0
 252 503 289 468 309 418 c 1
 342 473 383 503 444 503 c 0
 544 503 595 397 595 272 c 0
 595 250 592 229 590 214 c 1
 347 214 l 1
 355 130 391 79 454 79 c 0
 486 79 513 90 540 108 c 1
 580 33 l 1
 544 6 495 -12 450 -12 c 0
 379 -12 332 20 300 72 c 1
 246 16 199 -12 150 -12 c 0
 66 -12 16 48 16 134 c 0xde
346 287 m 1
 502 287 l 1
 502 356 486 414 433 414 c 0
 386 414 352 370 346 287 c 1
121 142 m 0
 121 100 144 78 180 78 c 0
 207 78 241 97 268 130 c 1
 259 156 254 188 253 219 c 2
 252 242 l 1
 159 225 121 191 121 142 c 0
EndSplineSet
EndChar

StartChar: ccedilla
Encoding: 231 231 255
Width: 600
Flags: MW
HStem: -217 50<247 257> -10 21G<305 305 376 376> 409 94<309 380>
VStem: 73 119<196 294.5 196 327> 333 85<-134.5 -110.5>
LayerCount: 2
Fore
SplineSet
376 -10 m 1
 359 -46 l 1
 392 -58 418 -78 418 -119 c 0
 418 -182 342 -211 257 -217 c 1
 247 -167 l 1
 297 -161 333 -148 333 -121 c 0
 333 -100 315 -86 272 -75 c 1
 305 -10 l 1
 171 5 73 96 73 245 c 0
 73 409 202 503 352 503 c 0
 431 503 493 473 534 434 c 1
 479 362 l 1
 441 393 402 409 358 409 c 0
 260 409 192 344 192 245 c 0
 192 147 258 82 355 82 c 0
 411 82 457 107 495 136 c 1
 543 62 l 1
 495 20 436 -4 376 -10 c 1
EndSplineSet
EndChar

StartChar: eacute
Encoding: 233 233 265
Width: 600
Flags: MW
HStem: -12 89<300.5 366> 214 78<180 436 179 537 180 180> 414 89<284 356> 573 158<240 450 240 450>
VStem: 62 118<214 214 214 325.5> 436 106<292 330>
LayerCount: 2
Fore
SplineSet
62 245 m 0
 62 406 186 503 314 503 c 0
 460 503 542 406 542 270 c 0
 542 248 539 226 537 214 c 1
 180 214 l 1
 188 126 256 77 345 77 c 0
 396 77 438 92 483 117 c 1
 522 45 l 1
 469 12 402 -12 330 -12 c 0
 181 -12 62 83 62 245 c 0
179 292 m 1
 436 292 l 1
 436 368 395 414 317 414 c 0
 251 414 192 372 179 292 c 1
450 731 m 1
 326 573 l 1
 240 573 l 1
 330 731 l 1
 450 731 l 1
EndSplineSet
Substitution2: "'sups' Superscript in Latin lookup 12 subtable" eacute.sups
Substitution2: "'aalt' Access All Alternates in Latin lookup 0 subtable" eacute.sups
EndChar

StartChar: edieresis
Encoding: 235 235 268
Width: 600
Flags: MW
HStem: -12 89<300.5 366> 214 78<180 436 179 537 180 180> 414 89<284 356> 579 135<191 230.5 396.5 435.5>
VStem: 62 118<214 214 214 325.5> 144 133<627 665> 350 133<627 665> 436 106<292 330>
LayerCount: 2
Fore
SplineSet
62 245 m 0xf9
 62 406 186 503 314 503 c 0
 460 503 542 406 542 270 c 0
 542 248 539 226 537 214 c 1
 180 214 l 1
 188 126 256 77 345 77 c 0
 396 77 438 92 483 117 c 1
 522 45 l 1
 469 12 402 -12 330 -12 c 0
 181 -12 62 83 62 245 c 0xf9
179 292 m 1
 436 292 l 1
 436 368 395 414 317 414 c 0
 251 414 192 372 179 292 c 1
211 579 m 0xf6
 171 579 144 608 144 646 c 0
 144 684 171 714 211 714 c 0
 250 714 277 684 277 646 c 0
 277 608 250 579 211 579 c 0xf6
416 579 m 0
 377 579 350 608 350 646 c 0
 350 684 377 714 416 714 c 0
 455 714 483 684 483 646 c 0
 483 608 455 579 416 579 c 0
EndSplineSet
EndChar

StartChar: igrave
Encoding: 236 236 292
Width: 600
Flags: MW
HStem: 0 21G<297 412 297 297> 400 91<84 412 84 297> 573 158<210 334 210 420>
VStem: 297 115<0 400 400 400>
LayerCount: 2
Fore
SplineSet
84 400 m 1
 84 491 l 1
 412 491 l 1
 412 0 l 1
 297 0 l 1
 297 400 l 1
 84 400 l 1
334 573 m 1
 210 731 l 1
 330 731 l 1
 420 573 l 1
 334 573 l 1
EndSplineSet
EndChar

StartChar: iacute
Encoding: 237 237 293
Width: 600
Flags: MW
HStem: 0 21G<297 412 297 297> 400 91<84 412 84 297> 573 158<273 483 273 483>
VStem: 297 115<0 400 400 400>
LayerCount: 2
Fore
SplineSet
84 400 m 1
 84 491 l 1
 412 491 l 1
 412 0 l 1
 297 0 l 1
 297 400 l 1
 84 400 l 1
483 731 m 1
 358 573 l 1
 273 573 l 1
 362 731 l 1
 483 731 l 1
EndSplineSet
EndChar

StartChar: icircumflex
Encoding: 238 238 294
Width: 600
Flags: MW
HStem: 0 21G<297 412 297 297> 400 91<84 412 84 297> 573 158<199 395 199 395 298 408 298 494>
VStem: 297 115<0 400 400 400>
LayerCount: 2
Fore
SplineSet
84 400 m 1
 84 491 l 1
 412 491 l 1
 412 0 l 1
 297 0 l 1
 297 400 l 1
 84 400 l 1
199 573 m 1
 298 731 l 1
 395 731 l 1
 494 573 l 1
 408 573 l 1
 348 670 l 1
 344 670 l 1
 284 573 l 1
 199 573 l 1
EndSplineSet
EndChar

StartChar: idieresis
Encoding: 239 239 296
Width: 600
Flags: MW
HStem: 0 21G<297 412 297 297> 400 91<84 412 84 297> 579 135<224 263.5 429.5 468.5>
VStem: 177 133<627 665> 297 115<0 400 400 400> 383 133<627 665>
LayerCount: 2
Fore
SplineSet
84 400 m 1xe8
 84 491 l 1
 412 491 l 1
 412 0 l 1
 297 0 l 1
 297 400 l 1
 84 400 l 1xe8
244 579 m 0xf4
 204 579 177 608 177 646 c 0
 177 684 204 714 244 714 c 0
 283 714 310 684 310 646 c 0
 310 608 283 579 244 579 c 0xf4
449 579 m 0
 410 579 383 608 383 646 c 0
 383 684 410 714 449 714 c 0
 488 714 516 684 516 646 c 0
 516 608 488 579 449 579 c 0
EndSplineSet
EndChar

StartChar: eth
Encoding: 240 240 409
Width: 600
Flags: MW
HStem: -12 94<261.5 343.5 261.5 373> 364 87<254.5 305 216 322.5>
VStem: 53 107<180.5 268 180.5 295> 434 109<202 263>
LayerCount: 2
Fore
SplineSet
300 82 m 0
 387 82 434 148 434 256 c 0
 434 270 434 283 433 296 c 1
 392 346 346 364 299 364 c 0
 210 364 160 311 160 225 c 0
 160 136 223 82 300 82 c 0
514 666 m 1
 400 608 l 1
 486 527 543 418 543 262 c 0
 543 101 450 -12 296 -12 c 0
 166 -12 53 79 53 225 c 0
 53 365 154 451 278 451 c 0
 332 451 385 429 420 384 c 1
 402 459 365 516 312 563 c 1
 162 487 l 1
 130 540 l 1
 257 605 l 1
 225 626 190 645 150 664 c 1
 201 735 l 1
 253 711 303 684 347 651 c 1
 483 720 l 1
 514 666 l 1
EndSplineSet
EndChar

StartChar: ntilde
Encoding: 241 241 319
Width: 600
Flags: MW
HStem: 0 21G<82 82 82 198 416 416 416 532> 404 99<329.5 357.5> 471 20G<82 177 177 177> 577 73<355 380.5 355 399> 577 127<160 286.5 160 286.5 233.5 399>
VStem: 82 116<0 335 0 491> 416 116<0 289 289 304 0 328.5>
LayerCount: 2
Fore
SplineSet
82 0 m 1xce
 82 491 l 1
 177 491 l 1xae
 186 417 l 1
 190 417 l 1
 236 464 292 503 367 503 c 0
 480 503 532 431 532 304 c 2
 532 0 l 1
 416 0 l 1
 416 289 l 2
 416 368 391 404 324 404 c 0
 276 404 243 381 198 335 c 1
 198 0 l 1
 82 0 l 1xce
160 577 m 1
 169 657 205 704 262 704 c 0xce
 311 704 340 650 370 650 c 0xd6
 391 650 404 666 412 704 c 1
 473 704 l 1xce
 464 624 428 577 370 577 c 0xd6
 321 577 293 631 263 631 c 0
 241 631 229 615 221 577 c 1
 160 577 l 1
EndSplineSet
EndChar

StartChar: otilde
Encoding: 245 245 328
Width: 600
Flags: MW
HStem: -12 94<260 340 260 364.5> 409 94<260 340> 577 73<339 364.5 339 382.5> 577 127<144 270.5 144 270.5 217.5 382.5>
VStem: 53 119<196 294.5 196 327> 144 61<577 577> 395 61<704 704> 428 119<196 294.5>
LayerCount: 2
Fore
SplineSet
53 245 m 0xd9
 53 409 171 503 300 503 c 0
 429 503 547 409 547 245 c 0
 547 82 429 -12 300 -12 c 0
 171 -12 53 82 53 245 c 0xd9
172 245 m 0
 172 147 220 82 300 82 c 0
 380 82 428 147 428 245 c 0
 428 344 380 409 300 409 c 0
 220 409 172 344 172 245 c 0
144 577 m 1xd5
 153 657 189 704 246 704 c 0xd9
 295 704 324 650 354 650 c 0xea
 375 650 388 666 395 704 c 1
 456 704 l 1xda
 447 624 411 577 354 577 c 0xe9
 305 577 277 631 246 631 c 0
 225 631 212 615 205 577 c 1
 144 577 l 1xd5
EndSplineSet
EndChar

StartChar: odieresis
Encoding: 246 246 329
Width: 600
Flags: MW
HStem: -12 94<260 340 260 364.5> 409 94<260 340> 579 135<177.5 216.5 383.5 422.5>
VStem: 53 119<196 294.5 196 327> 131 133<627 665> 336 133<627 665> 428 119<196 294.5>
LayerCount: 2
Fore
SplineSet
53 245 m 0xf2
 53 409 171 503 300 503 c 0
 429 503 547 409 547 245 c 0
 547 82 429 -12 300 -12 c 0
 171 -12 53 82 53 245 c 0xf2
172 245 m 0
 172 147 220 82 300 82 c 0
 380 82 428 147 428 245 c 0
 428 344 380 409 300 409 c 0
 220 409 172 344 172 245 c 0
197 579 m 0xec
 158 579 131 608 131 646 c 0
 131 684 158 714 197 714 c 0
 236 714 264 684 264 646 c 0
 264 608 236 579 197 579 c 0xec
403 579 m 0
 364 579 336 608 336 646 c 0
 336 684 364 714 403 714 c 0
 442 714 469 684 469 646 c 0
 469 608 442 579 403 579 c 0
EndSplineSet
EndChar

StartChar: divide
Encoding: 247 247 663
Width: 600
Flags: MW
HStem: 84 131<281 319> 288 84<78 522 78 522> 444 131<281 319>
VStem: 232 136<130.5 169 490.5 529>
LayerCount: 2
Fore
SplineSet
300 444 m 0
 262 444 232 471 232 510 c 0
 232 548 262 575 300 575 c 0
 338 575 368 548 368 510 c 0
 368 471 338 444 300 444 c 0
232 150 m 0
 232 188 262 215 300 215 c 0
 338 215 368 188 368 150 c 0
 368 111 338 84 300 84 c 0
 262 84 232 111 232 150 c 0
78 288 m 1
 78 372 l 1
 522 372 l 1
 522 288 l 1
 78 288 l 1
EndSplineSet
EndChar

StartChar: oslash
Encoding: 248 248 341
Width: 600
GlyphClass: 2
Flags: MW
HStem: -12 90<284 340 284 364.5> 413 90<260 315.5>
VStem: 53 119<228.5 294.5 228.5 327> 428 119<196 261.5>
AnchorPoint: "Anchor-0" 300 513 basechar 0
LayerCount: 2
Fore
SplineSet
412 334 m 1
 221 108 l 1
 242 89 268 78 300 78 c 0
 380 78 428 147 428 245 c 0
 428 278 423 308 412 334 c 1
187 158 m 1
 378 384 l 1
 358 402 331 413 300 413 c 0
 220 413 172 344 172 245 c 0
 172 212 177 183 187 158 c 1
536 480 m 1
 486 421 l 1
 523 378 547 318 547 245 c 0
 547 82 429 -12 300 -12 c 0
 248 -12 198 3 157 32 c 1
 110 -24 l 1
 64 12 l 1
 114 71 l 1
 76 114 53 173 53 245 c 0
 53 409 171 503 300 503 c 0
 351 503 401 488 442 460 c 1
 490 516 l 1
 536 480 l 1
EndSplineSet
EndChar

StartChar: ugrave
Encoding: 249 249 370
Width: 600
Flags: MW
HStem: -12 99<243 270.5> 0 21G<421 515 421 421> 471 20G<70 185 185 185 400 515 515 515> 573 158<159 283 159 369>
VStem: 70 115<187 202 202 491> 400 115<160 491 0 491>
LayerCount: 2
Fore
SplineSet
515 491 m 1xbc
 515 0 l 1
 421 0 l 1x7c
 412 78 l 1
 408 78 l 1
 362 24 307 -12 234 -12 c 0
 120 -12 70 60 70 187 c 2
 70 491 l 1
 185 491 l 1
 185 202 l 2
 185 123 209 87 277 87 c 0
 323 87 356 106 400 160 c 1
 400 491 l 1
 515 491 l 1xbc
283 573 m 1
 159 731 l 1
 279 731 l 1
 369 573 l 1
 283 573 l 1
EndSplineSet
EndChar

StartChar: udieresis
Encoding: 252 252 374
Width: 600
Flags: MW
HStem: -12 99<243 270.5> 0 21G<421 515 421 421> 471 20G<70 185 185 185 400 515 515 515> 579 135<172.5 212 378.5 417.5>
VStem: 70 115<187 202 202 491> 126 133<627 665> 332 132<627 665> 400 115<160 491 0 491>
LayerCount: 2
Fore
SplineSet
515 491 m 1xb9
 515 0 l 1
 421 0 l 1x75
 412 78 l 1
 408 78 l 1
 362 24 307 -12 234 -12 c 0
 120 -12 70 60 70 187 c 2
 70 491 l 1
 185 491 l 1
 185 202 l 2
 185 123 209 87 277 87 c 0
 323 87 356 106 400 160 c 1
 400 491 l 1
 515 491 l 1xb9
192 579 m 0
 153 579 126 608 126 646 c 0
 126 684 153 714 192 714 c 0
 232 714 259 684 259 646 c 0
 259 608 232 579 192 579 c 0
398 579 m 0xba
 359 579 332 608 332 646 c 0
 332 684 359 714 398 714 c 0
 437 714 464 684 464 646 c 0
 464 608 437 579 398 579 c 0xba
EndSplineSet
EndChar

StartChar: yacute
Encoding: 253 253 398
Width: 600
Flags: MW
HStem: -202 93<124 161 123 196> 471 20G<40 155 155 155 452 561 561 561> 573 158<232 442 232 442>
VStem: 40 521<491 491>
LayerCount: 2
Fore
SplineSet
89 -102 m 1
 102 -106 116 -109 130 -109 c 0
 192 -109 228 -74 248 -25 c 2
 260 6 l 1
 40 491 l 1
 155 491 l 1
 256 250 l 2
 274 206 292 155 310 106 c 1
 314 106 l 1
 329 153 347 204 363 250 c 2
 452 491 l 1
 561 491 l 1
 356 -22 l 1
 314 -133 255 -202 137 -202 c 0
 111 -202 86 -198 67 -192 c 1
 89 -102 l 1
442 731 m 1
 318 573 l 1
 232 573 l 1
 322 731 l 1
 442 731 l 1
EndSplineSet
EndChar

StartChar: thorn
Encoding: 254 254 410
Width: 600
GlyphClass: 2
Flags: MW
HStem: -194 21G<82 198 82 82> -12 95<305 339 290 384.5> 408 95<319 354> 686 20G<82 198 198 198>
VStem: 82 116<-194 -40 128 349 519 706> 428 119<196.5 301>
AnchorPoint: "Anchor-2" 307 -22 basechar 0
AnchorPoint: "Anchor-0" 145 730 basechar 0
LayerCount: 2
Fore
SplineSet
198 -40 m 1
 198 -194 l 1
 82 -194 l 1
 82 706 l 1
 198 706 l 1
 198 519 l 1
 194 438 l 1
 238 478 292 503 346 503 c 0
 472 503 547 405 547 253 c 0
 547 85 440 -12 329 -12 c 0
 281 -12 234 12 195 46 c 1
 198 -40 l 1
198 128 m 1
 234 95 275 83 305 83 c 0
 373 83 428 141 428 252 c 0
 428 350 394 408 314 408 c 0
 277 408 238 390 198 349 c 1
 198 128 l 1
EndSplineSet
EndChar

StartChar: ydieresis
Encoding: 255 255 400
Width: 600
Flags: MW
HStem: -202 93<124 161 123 196> 471 20G<40 155 155 155 452 561 561 561> 579 135<183.5 222.5 388.5 428>
VStem: 136 133<627 665> 342 133<627 665>
LayerCount: 2
Fore
SplineSet
89 -102 m 1
 102 -106 116 -109 130 -109 c 0
 192 -109 228 -74 248 -25 c 2
 260 6 l 1
 40 491 l 1
 155 491 l 1
 256 250 l 2
 274 206 292 155 310 106 c 1
 314 106 l 1
 329 153 347 204 363 250 c 2
 452 491 l 1
 561 491 l 1
 356 -22 l 1
 314 -133 255 -202 137 -202 c 0
 111 -202 86 -198 67 -192 c 1
 89 -102 l 1
203 579 m 0
 164 579 136 608 136 646 c 0
 136 684 164 714 203 714 c 0
 242 714 269 684 269 646 c 0
 269 608 242 579 203 579 c 0
408 579 m 0
 369 579 342 608 342 646 c 0
 342 684 369 714 408 714 c 0
 448 714 475 684 475 646 c 0
 475 608 448 579 408 579 c 0
EndSplineSet
EndChar

StartChar: Amacron
Encoding: 256 256 59
Width: 600
Flags: MW
HStem: 0 21G<20 138 20 20 457 580 457 457> 177 91<215 381 215 407 189 381> 564 90<296 300 296 296> 724 76<167 433 167 433>
VStem: 167 266<724 800 724 800>
LayerCount: 2
Fore
SplineSet
433 800 m 1
 433 724 l 1
 167 724 l 1
 167 800 l 1
 433 800 l 1
215 268 m 1
 381 268 l 1
 358 348 l 2
 339 417 319 492 300 564 c 1
 296 564 l 1
 278 491 258 417 238 348 c 2
 215 268 l 1
457 0 m 1
 407 177 l 1
 189 177 l 1
 138 0 l 1
 20 0 l 1
 232 654 l 1
 368 654 l 1
 580 0 l 1
 457 0 l 1
EndSplineSet
EndChar

StartChar: amacron
Encoding: 257 257 236
Width: 600
Flags: MW
HStem: -12 90<245.5 268> 0 21G<431 525 431 431> 242 72<410 410> 410 93<272 333> 596 76<180 441 180 441>
VStem: 71 111<119 167.5 119 187> 180 261<596 672 596 672> 410 115<138 242 242 242>
LayerCount: 2
Fore
SplineSet
71 132 m 0xbd
 71 242 168 297 410 314 c 1
 406 369 373 410 293 410 c 0
 238 410 183 386 132 358 c 1
 90 435 l 1
 149 470 230 503 314 503 c 0
 450 503 525 428 525 291 c 2
 525 0 l 1
 431 0 l 1x7d
 422 61 l 1
 419 61 l 1
 367 21 301 -12 235 -12 c 0
 139 -12 71 46 71 132 c 0xbd
182 141 m 0
 182 97 221 78 270 78 c 0
 319 78 365 102 410 138 c 1
 410 242 l 1
 234 230 182 194 182 141 c 0
180 596 m 1xba
 180 672 l 1
 441 672 l 1
 441 596 l 1
 180 596 l 1xba
EndSplineSet
Substitution2: "'ss02' Style Set 2 in Latin lookup 18 subtable" amacron.a
Substitution2: "'aalt' Access All Alternates in Latin lookup 0 subtable" amacron.a
EndChar

StartChar: Abreve
Encoding: 258 258 60
Width: 600
Flags: MW
HStem: 0 21G<20 138 20 20 457 580 457 457> 177 91<215 381 215 407 189 381> 564 90<296 300 296 296> 705 61<280 320 280 342>
VStem: 20 560<0 0>
LayerCount: 2
Fore
SplineSet
364 820 m 1
 430 820 l 1
 423 756 384 705 300 705 c 0
 216 705 177 756 170 820 c 1
 236 820 l 1
 242 791 260 766 300 766 c 0
 340 766 358 791 364 820 c 1
215 268 m 1
 381 268 l 1
 358 348 l 2
 339 417 319 492 300 564 c 1
 296 564 l 1
 278 491 258 417 238 348 c 2
 215 268 l 1
457 0 m 1
 407 177 l 1
 189 177 l 1
 138 0 l 1
 20 0 l 1
 232 654 l 1
 368 654 l 1
 580 0 l 1
 457 0 l 1
EndSplineSet
EndChar

StartChar: abreve
Encoding: 259 259 237
Width: 600
Flags: MW
HStem: -12 90<245.5 268> 0 21G<431 525 431 431> 242 72<410 410> 410 93<272 333> 575 65<288.5 333 288.5 358>
VStem: 71 111<119 167.5 119 187> 172 67<720 720> 383 67<720 720> 410 115<138 242 242 242>
LayerCount: 2
Fore
SplineSet
71 132 m 0xbc80
 71 242 168 297 410 314 c 1
 406 369 373 410 293 410 c 0
 238 410 183 386 132 358 c 1
 90 435 l 1
 149 470 230 503 314 503 c 0
 450 503 525 428 525 291 c 2
 525 0 l 1
 431 0 l 1x7c80
 422 61 l 1
 419 61 l 1
 367 21 301 -12 235 -12 c 0
 139 -12 71 46 71 132 c 0xbc80
182 141 m 0
 182 97 221 78 270 78 c 0
 319 78 365 102 410 138 c 1
 410 242 l 1
 234 230 182 194 182 141 c 0
311 575 m 0xbb
 217 575 176 648 172 720 c 1
 239 720 l 1
 244 677 266 640 311 640 c 0
 355 640 377 677 383 720 c 1
 450 720 l 1
 446 648 405 575 311 575 c 0xbb
EndSplineSet
Substitution2: "'ss02' Style Set 2 in Latin lookup 18 subtable" abreve.a
Substitution2: "'aalt' Access All Alternates in Latin lookup 0 subtable" abreve.a
EndChar

StartChar: Aogonek
Encoding: 260 260 75
Width: 600
GlyphClass: 2
Flags: MW
HStem: -218 78<526 529> 0 21G<20 138 20 20 457 487 457 457 580 580> 177 91<215 381 215 407 189 381> 564 90<296 300 296 296>
VStem: 408 87<-112 -98>
AnchorPoint: "Anchor-0" 300 676 basechar 0
LayerCount: 2
Fore
SplineSet
215 268 m 1
 381 268 l 1
 358 348 l 2
 338 417 319 492 300 564 c 1
 296 564 l 1
 278 491 258 417 238 348 c 2
 215 268 l 1
578 -126 m 1
 606 -186 l 1
 584 -204 544 -218 514 -218 c 0
 455 -218 408 -186 408 -127 c 0
 408 -69 453 -21 487 0 c 1
 457 0 l 1
 407 177 l 1
 189 177 l 1
 138 0 l 1
 20 0 l 1
 232 654 l 1
 368 654 l 1
 580 0 l 1
 529 -12 495 -58 495 -98 c 0
 495 -126 515 -140 537 -140 c 0
 553 -140 567 -135 578 -126 c 1
EndSplineSet
Ligature2: "'ccmp' Glyph Composition/Decomposition in Latin lookup 6 subtable" A uni0328
EndChar

StartChar: aogonek
Encoding: 261 261 252
Width: 600
GlyphClass: 2
Flags: MW
HStem: -208 71<428.5 489> -12 90<245.5 268> 0 21G<525 525> 242 72<410 410> 410 93<272 333>
VStem: 71 111<119 167.5 119 187> 358 80<-109.5 -92> 410 115<138 242 242 242>
AnchorPoint: "Anchor-0" 311 513 basechar 0
LayerCount: 2
Fore
SplineSet
71 132 m 0xdd
 71 242 168 297 410 314 c 1
 406 369 373 410 293 410 c 0
 238 410 183 386 132 358 c 1
 90 435 l 1
 149 470 230 503 314 503 c 0
 450 503 525 428 525 291 c 2
 525 0 l 1xbd
 465 -20 438 -60 438 -95 c 0
 438 -124 460 -137 482 -137 c 0
 496 -137 510 -132 520 -124 c 1
 546 -178 l 1
 524 -196 484 -208 456 -208 c 0
 401 -208 358 -178 358 -120 c 0
 358 -64 400 -20 432 1 c 1
 422 61 l 1
 419 61 l 1xde
 367 21 301 -12 235 -12 c 0
 139 -12 71 46 71 132 c 0xdd
182 141 m 0
 182 97 221 78 270 78 c 0
 319 78 365 102 410 138 c 1
 410 242 l 1
 234 230 182 194 182 141 c 0
EndSplineSet
Substitution2: "'ss02' Style Set 2 in Latin lookup 18 subtable" aogonek.a
Ligature2: "'ccmp' Glyph Composition/Decomposition in Latin lookup 6 subtable" a uni0328
Substitution2: "'aalt' Access All Alternates in Latin lookup 0 subtable" aogonek.a
EndChar

StartChar: Cacute
Encoding: 262 262 79
Width: 600
Flags: MW
HStem: -12 101<310 392.5 310 400> 565 101<308.5 388.5> 704 116<372 381 287 497>
VStem: 60 119<253.5 401.5 253.5 432>
LayerCount: 2
Fore
SplineSet
60 325 m 0
 60 539 190 666 363 666 c 0
 443 666 507 627 549 584 c 1
 484 512 l 1
 452 544 414 565 363 565 c 0
 254 565 179 475 179 328 c 0
 179 179 254 89 366 89 c 0
 419 89 460 113 497 154 c 1
 561 83 l 1
 508 22 441 -12 359 -12 c 0
 192 -12 60 108 60 325 c 0
497 820 m 1
 381 704 l 1
 287 704 l 1
 372 820 l 1
 497 820 l 1
EndSplineSet
EndChar

StartChar: Ccircumflex
Encoding: 264 264 80
Width: 600
Flags: MW
HStem: -12 101<310 392.5 310 400> 565 101<308.5 388.5> 704 116<198 406 198 406 294 412 294 502>
VStem: 60 119<253.5 401.5 253.5 432>
LayerCount: 2
Fore
SplineSet
60 325 m 0
 60 539 190 666 363 666 c 0
 443 666 507 627 549 584 c 1
 484 512 l 1
 452 544 414 565 363 565 c 0
 254 565 179 475 179 328 c 0
 179 179 254 89 366 89 c 0
 419 89 460 113 497 154 c 1
 561 83 l 1
 508 22 441 -12 359 -12 c 0
 192 -12 60 108 60 325 c 0
288 704 m 1
 198 704 l 1
 294 820 l 1
 406 820 l 1
 502 704 l 1
 412 704 l 1
 352 768 l 1
 348 768 l 1
 288 704 l 1
EndSplineSet
EndChar

StartChar: Cdotaccent
Encoding: 266 266 82
Width: 600
Flags: MW
HStem: -12 101<310 392.5 310 400> 565 101<308.5 388.5> 707 131<330 370.5>
VStem: 60 119<253.5 401.5 253.5 432> 279 143<753.5 792>
LayerCount: 2
Fore
SplineSet
60 325 m 0
 60 539 190 666 363 666 c 0
 443 666 507 627 549 584 c 1
 484 512 l 1
 452 544 414 565 363 565 c 0
 254 565 179 475 179 328 c 0
 179 179 254 89 366 89 c 0
 419 89 460 113 497 154 c 1
 561 83 l 1
 508 22 441 -12 359 -12 c 0
 192 -12 60 108 60 325 c 0
350 707 m 0
 310 707 279 734 279 773 c 0
 279 811 310 838 350 838 c 0
 391 838 422 811 422 773 c 0
 422 734 391 707 350 707 c 0
EndSplineSet
EndChar

StartChar: cdotaccent
Encoding: 267 267 259
Width: 600
Flags: MW
HStem: -12 94<306.5 379> 409 94<309 380> 577 155<318.5 365.5>
VStem: 73 119<196 294.5 196 327> 260 164<631 677>
LayerCount: 2
Fore
SplineSet
73 245 m 0
 73 409 202 503 352 503 c 0
 431 503 493 473 534 434 c 1
 479 362 l 1
 441 393 402 409 358 409 c 0
 260 409 192 344 192 245 c 0
 192 147 258 82 355 82 c 0
 411 82 457 107 495 136 c 1
 543 62 l 1
 487 13 414 -12 344 -12 c 0
 190 -12 73 82 73 245 c 0
342 577 m 0
 295 577 260 608 260 654 c 0
 260 700 295 732 342 732 c 0
 389 732 424 700 424 654 c 0
 424 608 389 577 342 577 c 0
EndSplineSet
EndChar

StartChar: Ccaron
Encoding: 268 268 81
Width: 600
Flags: MW
HStem: -12 101<310 392.5 310 400> 565 101<308.5 388.5> 704 116<198 406 198 294>
VStem: 60 119<253.5 401.5 253.5 432>
LayerCount: 2
Fore
SplineSet
60 325 m 0
 60 539 190 666 363 666 c 0
 443 666 507 627 549 584 c 1
 484 512 l 1
 452 544 414 565 363 565 c 0
 254 565 179 475 179 328 c 0
 179 179 254 89 366 89 c 0
 419 89 460 113 497 154 c 1
 561 83 l 1
 508 22 441 -12 359 -12 c 0
 192 -12 60 108 60 325 c 0
412 820 m 1
 502 820 l 1
 406 704 l 1
 294 704 l 1
 198 820 l 1
 288 820 l 1
 348 756 l 1
 352 756 l 1
 412 820 l 1
EndSplineSet
EndChar

StartChar: ccaron
Encoding: 269 269 258
Width: 600
Flags: MW
HStem: -12 94<306.5 379> 409 94<309 380> 573 158<194 293 194 391>
VStem: 73 119<196 294.5 196 327>
LayerCount: 2
Fore
SplineSet
73 245 m 0
 73 409 202 503 352 503 c 0
 431 503 493 473 534 434 c 1
 479 362 l 1
 441 393 402 409 358 409 c 0
 260 409 192 344 192 245 c 0
 192 147 258 82 355 82 c 0
 411 82 457 107 495 136 c 1
 543 62 l 1
 487 13 414 -12 344 -12 c 0
 190 -12 73 82 73 245 c 0
293 573 m 1
 194 731 l 1
 280 731 l 1
 340 634 l 1
 344 634 l 1
 404 731 l 1
 490 731 l 1
 391 573 l 1
 293 573 l 1
EndSplineSet
EndChar

StartChar: Dcaron
Encoding: 270 270 83
Width: 600
Flags: MW
HStem: 0 94<191 237 237 250> 560 94<191 237 191 191> 704 116<146 354 146 242>
VStem: 75 116<94 94 94 560> 433 119<249.5 410>
LayerCount: 2
Fore
SplineSet
75 0 m 1
 75 654 l 1
 244 654 l 2
 437 654 552 546 552 330 c 0
 552 113 437 0 250 0 c 2
 75 0 l 1
191 94 m 1
 237 94 l 2
 362 94 433 169 433 330 c 0
 433 490 362 560 237 560 c 2
 191 560 l 1
 191 94 l 1
360 820 m 1
 450 820 l 1
 354 704 l 1
 242 704 l 1
 146 820 l 1
 236 820 l 1
 296 756 l 1
 300 756 l 1
 360 820 l 1
EndSplineSet
EndChar

StartChar: dcaron
Encoding: 271 271 260
Width: 600
GlyphClass: 3
Flags: MW
HStem: -12 95<237.5 274.5> 0 21G<407 501 407 407> 408 95<247 282.5 198 299> 548 158<386 594 386 542> 548 217<542 594 542 542>
VStem: 37 118<193 297.5 193 325> 386 115<142 363 363 363 528 706 0 706> 540 73.5
LayerCount: 2
Fore
SplineSet
37 245 m 0xb7
 37 405 142 503 254 503 c 0
 311 503 351 481 391 445 c 1
 386 528 l 1
 386 706 l 1
 501 706 l 1
 501 0 l 1
 407 0 l 1x77
 398 57 l 1
 395 57 l 1
 357 19 302 -12 247 -12 c 0
 121 -12 37 83 37 245 c 0xb7
155 246 m 0
 155 140 200 83 275 83 c 0
 315 83 352 102 386 142 c 1
 386 363 l 1
 351 396 317 408 281 408 c 0
 213 408 155 349 155 246 c 0
594 548 m 1
 542 548 l 1xb7
 538 765 l 1
 614 765 l 1
 613 702 l 1xaf
 594 548 l 1
EndSplineSet
Ligature2: "'ccmp' Glyph Composition/Decomposition in Latin lookup 6 subtable" d uni030C
EndChar

StartChar: dcroat
Encoding: 273 273 263
Width: 600
Flags: MW
HStem: -12 95<253.5 290.5> 0 21G<423 518 423 423> 388 95<264 299 214 316> 564 59<238 402 238 402> 564 142<238 518 402 518>
VStem: 53 119<186 284 186 312> 402 116<142 343 343 343 508 564 0 564 623 706>
LayerCount: 2
Fore
SplineSet
402 142 m 1xae
 402 343 l 1
 367 375 333 388 299 388 c 0
 229 388 172 332 172 236 c 0
 172 136 216 83 291 83 c 0
 332 83 368 102 402 142 c 1xae
586 623 m 1xb6
 586 569 l 1xb6
 518 564 l 1
 518 0 l 1
 423 0 l 1x6e
 414 57 l 1
 411 57 l 1
 373 19 318 -12 263 -12 c 0
 137 -12 53 79 53 235 c 0
 53 389 158 483 270 483 c 0
 328 483 367 461 407 425 c 1
 402 508 l 1
 402 564 l 1
 238 564 l 1xae
 238 623 l 1
 402 623 l 1xb6
 402 706 l 1
 518 706 l 1xae
 518 623 l 1
 586 623 l 1xb6
EndSplineSet
EndChar

StartChar: Emacron
Encoding: 274 274 92
Width: 600
Flags: MW
HStem: 0 98<220 532 220 532> 291 98<220 476 220 476> 556 98<220 522 220 220> 724 76<193 459 193 459>
VStem: 104 116<98 291 389 556> 193 266<724 800 724 800>
LayerCount: 2
Fore
SplineSet
104 0 m 1xf8
 104 654 l 1
 522 654 l 1
 522 556 l 1
 220 556 l 1
 220 389 l 1
 476 389 l 1
 476 291 l 1
 220 291 l 1
 220 98 l 1
 532 98 l 1
 532 0 l 1
 104 0 l 1xf8
193 724 m 1xf4
 193 800 l 1
 459 800 l 1
 459 724 l 1
 193 724 l 1xf4
EndSplineSet
EndChar

StartChar: Ebreve
Encoding: 276 276 93
Width: 600
Flags: MW
HStem: 0 98<220 532 220 532> 291 98<220 476 220 476> 556 98<220 522 220 220> 705 61<306 346 306 368>
VStem: 104 116<98 291 389 556>
LayerCount: 2
Fore
SplineSet
104 0 m 1
 104 654 l 1
 522 654 l 1
 522 556 l 1
 220 556 l 1
 220 389 l 1
 476 389 l 1
 476 291 l 1
 220 291 l 1
 220 98 l 1
 532 98 l 1
 532 0 l 1
 104 0 l 1
326 705 m 0
 242 705 203 756 196 820 c 1
 262 820 l 1
 268 791 286 766 326 766 c 0
 366 766 384 791 390 820 c 1
 456 820 l 1
 449 756 410 705 326 705 c 0
EndSplineSet
EndChar

StartChar: ebreve
Encoding: 277 277 270
Width: 600
Flags: MW
HStem: -12 89<300.5 366> 214 78<180 436 179 537 180 180> 414 89<284 356> 575 65<291.5 336 291.5 360.5>
VStem: 62 118<214 214 214 325.5> 175 67<720 720> 386 66<720 720> 436 106<292 330>
LayerCount: 2
Fore
SplineSet
62 245 m 0xf9
 62 406 186 503 314 503 c 0
 460 503 542 406 542 270 c 0
 542 248 539 226 537 214 c 1
 180 214 l 1
 188 126 256 77 345 77 c 0
 396 77 438 92 483 117 c 1
 522 45 l 1
 469 12 402 -12 330 -12 c 0
 181 -12 62 83 62 245 c 0xf9
179 292 m 1
 436 292 l 1
 436 368 395 414 317 414 c 0
 251 414 192 372 179 292 c 1
314 575 m 0xf6
 220 575 178 648 175 720 c 1
 242 720 l 1
 247 677 269 640 314 640 c 0
 358 640 380 677 386 720 c 1
 452 720 l 1
 449 648 407 575 314 575 c 0xf6
EndSplineSet
EndChar

StartChar: Edotaccent
Encoding: 278 278 94
Width: 600
Flags: MW
HStem: 0 98<220 532 220 532> 291 98<220 476 220 476> 556 98<220 522 220 220> 707 131<305.5 346.5>
VStem: 104 116<98 291 389 556> 255 142<753.5 792>
LayerCount: 2
Fore
SplineSet
104 0 m 1
 104 654 l 1
 522 654 l 1
 522 556 l 1
 220 556 l 1
 220 389 l 1
 476 389 l 1
 476 291 l 1
 220 291 l 1
 220 98 l 1
 532 98 l 1
 532 0 l 1
 104 0 l 1
326 707 m 0
 285 707 255 734 255 773 c 0
 255 811 285 838 326 838 c 0
 367 838 397 811 397 773 c 0
 397 734 367 707 326 707 c 0
EndSplineSet
EndChar

StartChar: edotaccent
Encoding: 279 279 271
Width: 600
Flags: MW
HStem: -12 89<300.5 366> 214 78<180 436 179 537 180 180> 414 89<284 356> 577 155<290 337.5>
VStem: 62 118<214 214 214 325.5> 232 164<631 677> 436 106<292 330>
LayerCount: 2
Fore
SplineSet
62 245 m 0
 62 406 186 503 314 503 c 0
 460 503 542 406 542 270 c 0
 542 248 539 226 537 214 c 1
 180 214 l 1
 188 126 256 77 345 77 c 0
 396 77 438 92 483 117 c 1
 522 45 l 1
 469 12 402 -12 330 -12 c 0
 181 -12 62 83 62 245 c 0
179 292 m 1
 436 292 l 1
 436 368 395 414 317 414 c 0
 251 414 192 372 179 292 c 1
314 577 m 0
 266 577 232 608 232 654 c 0
 232 700 266 732 314 732 c 0
 361 732 396 700 396 654 c 0
 396 608 361 577 314 577 c 0
EndSplineSet
EndChar

StartChar: Eogonek
Encoding: 280 280 103
Width: 600
GlyphClass: 2
Flags: MW
HStem: -218 78<472.5 473> 0 98<220 429 528 528 528 532> 291 98<220 476 220 476> 556 98<220 522 220 220>
VStem: 104 116<98 291 389 556> 352 87<-112.5 -98>
AnchorPoint: "Anchor-0" 326 676 basechar 0
LayerCount: 2
Fore
SplineSet
104 0 m 1
 104 654 l 1
 522 654 l 1
 522 556 l 1
 220 556 l 1
 220 389 l 1
 476 389 l 1
 476 291 l 1
 220 291 l 1
 220 98 l 1
 532 98 l 1
 532 0 l 1
 528 0 l 1
 482 -4 439 -50 439 -98 c 0
 439 -127 461 -140 484 -140 c 0
 498 -140 511 -134 522 -126 c 1
 550 -186 l 1
 528 -204 488 -218 458 -218 c 0
 399 -218 352 -186 352 -127 c 0
 352 -69 393 -22 429 0 c 1
 104 0 l 1
EndSplineSet
Ligature2: "'ccmp' Glyph Composition/Decomposition in Latin lookup 6 subtable" E uni0328
EndChar

StartChar: eogonek
Encoding: 281 281 280
Width: 600
GlyphClass: 2
Flags: MW
HStem: -208 71<399.5 460.5> -12 89<300.5 340> 214 78<180 436 179 537 180 180> 414 89<284 356>
VStem: 62 118<214 214 214 325.5> 330 79<-109 -94.5> 436 106<292 330>
AnchorPoint: "Anchor-0" 313 513 basechar 0
LayerCount: 2
Fore
SplineSet
483 117 m 1
 522 45 l 1
 432 -18 409 -53 409 -95 c 0
 409 -123 429 -137 453 -137 c 0
 468 -137 480 -132 491 -124 c 1
 517 -178 l 1
 494 -196 455 -208 427 -208 c 0
 372 -208 330 -178 330 -120 c 0
 330 -69 364 -27 392 -4 c 1xfe
 366 -11 350 -12 330 -12 c 0
 181 -12 62 83 62 245 c 0
 62 406 186 503 314 503 c 0
 460 503 542 406 542 270 c 0
 542 248 539 226 537 214 c 1
 180 214 l 1
 188 126 256 77 345 77 c 0
 396 77 438 92 483 117 c 1
179 292 m 1
 436 292 l 1x7a
 436 368 395 414 317 414 c 0
 251 414 192 372 179 292 c 1
EndSplineSet
Ligature2: "'ccmp' Glyph Composition/Decomposition in Latin lookup 6 subtable" e uni0328
EndChar

StartChar: Ecaron
Encoding: 282 282 90
Width: 600
Flags: MW
HStem: 0 98<220 532 220 532> 291 98<220 476 220 476> 556 98<220 522 220 220> 704 116<174 382 174 270>
VStem: 104 116<98 291 389 556>
LayerCount: 2
Fore
SplineSet
104 0 m 1
 104 654 l 1
 522 654 l 1
 522 556 l 1
 220 556 l 1
 220 389 l 1
 476 389 l 1
 476 291 l 1
 220 291 l 1
 220 98 l 1
 532 98 l 1
 532 0 l 1
 104 0 l 1
388 820 m 1
 478 820 l 1
 382 704 l 1
 270 704 l 1
 174 820 l 1
 264 820 l 1
 324 756 l 1
 328 756 l 1
 388 820 l 1
EndSplineSet
EndChar

StartChar: ecaron
Encoding: 283 283 267
Width: 600
Flags: MW
HStem: -12 89<300.5 366> 214 78<180 436 179 537 180 180> 414 89<284 356> 573 158<166 265 166 362>
VStem: 62 118<214 214 214 325.5> 436 106<292 330>
LayerCount: 2
Fore
SplineSet
62 245 m 0
 62 406 186 503 314 503 c 0
 460 503 542 406 542 270 c 0
 542 248 539 226 537 214 c 1
 180 214 l 1
 188 126 256 77 345 77 c 0
 396 77 438 92 483 117 c 1
 522 45 l 1
 469 12 402 -12 330 -12 c 0
 181 -12 62 83 62 245 c 0
179 292 m 1
 436 292 l 1
 436 368 395 414 317 414 c 0
 251 414 192 372 179 292 c 1
265 573 m 1
 166 731 l 1
 252 731 l 1
 312 634 l 1
 316 634 l 1
 376 731 l 1
 461 731 l 1
 362 573 l 1
 265 573 l 1
EndSplineSet
EndChar

StartChar: Gcircumflex
Encoding: 284 284 104
Width: 600
Flags: MW
HStem: -12 101<289 364.5 289 382> 259 95<322 435 322 540> 565 101<293 373.5> 704 116<179 387 179 387 275 393 275 483>
VStem: 48 120<253.5 401.5 253.5 432.5> 435 105<118 259 259 259>
LayerCount: 2
Fore
SplineSet
48 325 m 0
 48 540 175 666 345 666 c 0
 432 666 491 625 530 584 c 1
 466 512 l 1
 436 543 402 565 345 565 c 0
 241 565 168 475 168 328 c 0
 168 179 231 89 347 89 c 0
 382 89 416 99 435 118 c 1
 435 259 l 1
 322 259 l 1
 322 354 l 1
 540 354 l 1
 540 66 l 1
 497 24 424 -12 340 -12 c 0
 174 -12 48 108 48 325 c 0
269 704 m 1
 179 704 l 1
 275 820 l 1
 387 820 l 1
 483 704 l 1
 393 704 l 1
 333 768 l 1
 329 768 l 1
 269 704 l 1
EndSplineSet
EndChar

StartChar: Gbreve
Encoding: 286 286 105
Width: 600
Flags: MW
HStem: -12 101<289 364.5 289 382> 259 95<322 435 322 540> 565 101<293 373.5> 705 61<311 350.5 311 372.5>
VStem: 48 120<253.5 401.5 253.5 432.5> 435 105<118 259 259 259>
LayerCount: 2
Fore
SplineSet
48 325 m 0
 48 540 175 666 345 666 c 0
 432 666 491 625 530 584 c 1
 466 512 l 1
 436 543 402 565 345 565 c 0
 241 565 168 475 168 328 c 0
 168 179 231 89 347 89 c 0
 382 89 416 99 435 118 c 1
 435 259 l 1
 322 259 l 1
 322 354 l 1
 540 354 l 1
 540 66 l 1
 497 24 424 -12 340 -12 c 0
 174 -12 48 108 48 325 c 0
331 705 m 0
 247 705 208 756 201 820 c 1
 266 820 l 1
 272 791 291 766 331 766 c 0
 370 766 389 791 395 820 c 1
 461 820 l 1
 454 756 414 705 331 705 c 0
EndSplineSet
EndChar

StartChar: gbreve
Encoding: 287 287 282
Width: 600
Flags: MW
HStem: -217 75<254.5 348 254.5 372.5> -14 91<276 281 281 359> -6 83 156 72<276.5 313.5 262.5 343> 406 85<451 566 451 451> 424 79<262.5 302.5 234 313.5> 575 65<283.5 328 283.5 353>
VStem: 62 96<-93 -66.5> 86 109<297 356 295 382.5> 90 93<107.5 119.5> 167 67<720 720> 378 67<720 720> 382 102<295 339 267.5 356> 458 111<-83 -43>
LayerCount: 2
Fore
SplineSet
158 -71 m 0xbb08
 158 -115 209 -142 300 -142 c 0
 396 -142 458 -104 458 -62 c 0
 458 -24 424 -14 359 -14 c 2
 281 -14 l 2xda84
 249 -14 225 -12 206 -6 c 1
 171 -27 158 -48 158 -71 c 0xbb08
62 -86 m 0
 62 -47 89 -10 140 17 c 1
 140 21 l 1
 114 36 90 62 90 103 c 0xba48
 90 136 113 171 149 196 c 1
 149 200 l 1
 114 224 86 268 86 326 c 0
 86 439 180 503 288 503 c 0xb688
 317 503 343 499 365 491 c 1
 566 491 l 1
 566 406 l 1
 451 406 l 1
 468 386 484 356 484 322 c 0xba88
 484 213 398 156 288 156 c 0
 265 156 239 160 213 169 c 1
 194 157 183 143 183 124 c 0
 183 91 215 77 276 77 c 2
 376 77 l 2
 503 77 569 42 569 -43 c 0xba44
 569 -140 459 -217 286 -217 c 0
 151 -217 62 -174 62 -86 c 0
288 228 m 0xb688
 339 228 382 264 382 326 c 0
 382 386 339 424 288 424 c 0
 237 424 195 386 195 326 c 0
 195 264 237 228 288 228 c 0xb688
306 575 m 0xba30
 212 575 171 648 167 720 c 1
 234 720 l 1
 239 677 261 640 306 640 c 0
 350 640 372 677 378 720 c 1
 445 720 l 1
 441 648 400 575 306 575 c 0xba30
EndSplineSet
Substitution2: "'ss03' Style Set 3 in Latin lookup 19 subtable" gbreve.a
Substitution2: "'aalt' Access All Alternates in Latin lookup 0 subtable" gbreve.a
EndChar

StartChar: Gdotaccent
Encoding: 288 288 106
Width: 600
Flags: MW
HStem: -12 101<289 364.5 289 382> 259 95<322 435 322 540> 565 101<293 373.5> 707 131<310.5 351.5>
VStem: 48 120<253.5 401.5 253.5 432.5> 260 142<753.5 792> 435 105<118 259 259 259>
LayerCount: 2
Fore
SplineSet
48 325 m 0
 48 540 175 666 345 666 c 0
 432 666 491 625 530 584 c 1
 466 512 l 1
 436 543 402 565 345 565 c 0
 241 565 168 475 168 328 c 0
 168 179 231 89 347 89 c 0
 382 89 416 99 435 118 c 1
 435 259 l 1
 322 259 l 1
 322 354 l 1
 540 354 l 1
 540 66 l 1
 497 24 424 -12 340 -12 c 0
 174 -12 48 108 48 325 c 0
331 707 m 0
 290 707 260 734 260 773 c 0
 260 811 290 838 331 838 c 0
 372 838 402 811 402 773 c 0
 402 734 372 707 331 707 c 0
EndSplineSet
EndChar

StartChar: uni0122
Encoding: 290 290 107
Width: 600
Flags: MW
HStem: -223 50<241 250> -12 101<289 364.5 289 382> 259 95<322 435 322 540> 565 101<293 373.5>
VStem: 48 120<253.5 401.5 253.5 432.5> 326 86<-144 -120.5> 435 105<118 259 259 259>
LayerCount: 2
Fore
SplineSet
48 325 m 0
 48 540 175 666 345 666 c 0
 432 666 491 625 530 584 c 1
 466 512 l 1
 436 543 402 565 345 565 c 0
 241 565 168 475 168 328 c 0
 168 179 231 89 347 89 c 0
 382 89 416 99 435 118 c 1
 435 259 l 1
 322 259 l 1
 322 354 l 1
 540 354 l 1
 540 66 l 1
 497 24 424 -12 340 -12 c 0
 174 -12 48 108 48 325 c 0
302 -45 m 1xfe
 381 -54 412 -78 412 -125 c 0
 412 -188 336 -217 250 -223 c 1
 241 -173 l 1
 291 -167 326 -156 326 -132 c 0
 326 -109 308 -98 279 -91 c 1
 302 -45 l 1xfe
EndSplineSet
EndChar

StartChar: uni0123
Encoding: 291 291 284
Width: 600
GlyphClass: 3
Flags: MW
HStem: -217 75<254.5 348 254.5 372.5> -14 91<276 281 281 359> -6 83 156 72<276.5 313.5 262.5 343> 406 85<451 566 451 451> 424 79<262.5 302.5 234 313.5> 671 50<389 399>
VStem: 62 96<-93 -66.5> 86 109<297 356 295 382.5> 90 93<107.5 119.5> 228 85<618.5 642 618.5 654.5> 382 102<295 339 267.5 356> 458 111<-83 -43>
LayerCount: 2
Fore
SplineSet
158 -71 m 0xb930
 158 -115 209 -142 300 -142 c 0
 396 -142 458 -104 458 -62 c 0
 458 -24 424 -14 359 -14 c 2
 281 -14 l 2xd8a8
 249 -14 225 -12 206 -6 c 1
 171 -27 158 -48 158 -71 c 0xb930
62 -86 m 0
 62 -47 89 -10 140 17 c 1
 140 21 l 1
 114 36 90 62 90 103 c 0xb870
 90 136 113 171 149 196 c 1
 149 200 l 1
 114 224 86 268 86 326 c 0
 86 439 180 503 288 503 c 0xb4b0
 317 503 343 499 365 491 c 1
 566 491 l 1
 566 406 l 1
 451 406 l 1
 468 386 484 356 484 322 c 0xb8b0
 484 213 398 156 288 156 c 0
 265 156 239 160 213 169 c 1
 194 157 183 143 183 124 c 0
 183 91 215 77 276 77 c 2
 376 77 l 2
 503 77 569 42 569 -43 c 0xb868
 569 -140 459 -217 286 -217 c 0
 151 -217 62 -174 62 -86 c 0
288 228 m 0xb6b0
 339 228 382 264 382 326 c 0
 382 386 339 424 288 424 c 0
 237 424 195 386 195 326 c 0
 195 264 237 228 288 228 c 0xb6b0
337 543 m 1
 259 552 228 576 228 623 c 0
 228 686 304 715 389 721 c 1
 399 671 l 1
 349 665 313 654 313 630 c 0
 313 607 331 596 361 589 c 1
 337 543 l 1
EndSplineSet
Substitution2: "'ss03' Style Set 3 in Latin lookup 19 subtable" uni0123.a
Ligature2: "'ccmp' Glyph Composition/Decomposition in Latin lookup 6 subtable" g uni0327
Substitution2: "'aalt' Access All Alternates in Latin lookup 0 subtable" uni0123.a
EndChar

StartChar: Hcircumflex
Encoding: 292 292 111
Width: 600
Flags: MW
HStem: 0 21G<72 72 72 188 412 412 412 528> 290 101<188 412 188 412> 634 20G<72 188 188 188 412 528 528 528> 704 116<147 355 147 355 243 361 243 451>
VStem: 72 116<0 290 391 654> 412 116<0 290 290 290 391 654 0 654>
LayerCount: 2
Fore
SplineSet
72 0 m 1
 72 654 l 1
 188 654 l 1
 188 391 l 1
 412 391 l 1
 412 654 l 1
 528 654 l 1
 528 0 l 1
 412 0 l 1
 412 290 l 1
 188 290 l 1
 188 0 l 1
 72 0 l 1
237 704 m 1
 147 704 l 1
 243 820 l 1
 355 820 l 1
 451 704 l 1
 361 704 l 1
 301 768 l 1
 297 768 l 1
 237 704 l 1
EndSplineSet
EndChar

StartChar: hcircumflex
Encoding: 293 293 288
Width: 600
Flags: MW
HStem: 0 21G<82 82 82 198 416 416 416 532> 404 99<329.5 357.5> 686 20G<82 198 198 198> 749 116<-5 203 -5 203 91 209 91 299>
VStem: 82 116<0 335 524 706> 416 116<0 289 289 304 0 328.5>
LayerCount: 2
Fore
SplineSet
82 0 m 1
 82 706 l 1
 198 706 l 1
 198 524 l 1
 191 419 l 1
 236 464 292 503 367 503 c 0
 480 503 532 431 532 304 c 2
 532 0 l 1
 416 0 l 1
 416 289 l 2
 416 368 391 404 324 404 c 0
 276 404 243 381 198 335 c 1
 198 0 l 1
 82 0 l 1
85 749 m 1
 -5 749 l 1
 91 865 l 1
 203 865 l 1
 299 749 l 1
 209 749 l 1
 149 814 l 1
 145 814 l 1
 85 749 l 1
EndSplineSet
EndChar

StartChar: Hbar
Encoding: 294 294 114
Width: 600
Flags: MW
HStem: 0 21G<72 188 72 72 412 528 412 412> 290 101<188 412 188 412> 489 59<6 72 188 412 528 594> 489 165<6 188 6 188 72 412 72 188>
VStem: 72 116<0 290 391 489 548 654> 412 116<0 290 290 290 391 489 0 489 548 654>
LayerCount: 2
Fore
SplineSet
412 391 m 1xdc
 412 489 l 1
 188 489 l 1
 188 391 l 1
 412 391 l 1xdc
594 548 m 1xec
 594 489 l 1
 528 489 l 1
 528 0 l 1
 412 0 l 1
 412 290 l 1
 188 290 l 1
 188 0 l 1
 72 0 l 1
 72 489 l 1
 6 489 l 1xdc
 6 543 l 1
 72 548 l 1xec
 72 654 l 1
 188 654 l 1xdc
 188 548 l 1
 412 548 l 1xec
 412 654 l 1
 528 654 l 1xdc
 528 548 l 1
 594 548 l 1xec
EndSplineSet
EndChar

StartChar: hbar
Encoding: 295 295 291
Width: 600
Flags: MW
HStem: 0 21G<82 198 82 82 416 532 416 416> 384 99<329.5 357.5> 564 56 564 59<198 394 198 394> 564 142<13 198 13 198 82 198 82 394>
VStem: 82 116<0 315 504 564 623 706> 416 116<0 269 269 284 0 308.5>
LayerCount: 2
Fore
SplineSet
198 504 m 1xce
 191 399 l 1
 236 444 292 483 367 483 c 0
 480 483 532 411 532 284 c 2
 532 0 l 1
 416 0 l 1
 416 269 l 2
 416 348 391 384 324 384 c 0
 276 384 243 361 198 315 c 1
 198 0 l 1
 82 0 l 1
 82 564 l 1
 13 564 l 1xce
 13 618 l 1
 82 622 l 1xe6
 82 706 l 1
 198 706 l 1xce
 198 623 l 1
 394 623 l 1xd6
 394 564 l 1
 198 564 l 1
 198 504 l 1xce
EndSplineSet
EndChar

StartChar: Itilde
Encoding: 296 296 118
Width: 600
Flags: MW
HStem: 0 98<84 242 84 242 358 516> 556 98<84 242 84 516 358 358 358 516> 707 74<341 367 341 387> 756 73<233 259>
VStem: 142 61<707 707> 242 116<98 556 98 556> 397 61<829 829>
LayerCount: 2
Fore
SplineSet
84 0 m 1xe6
 84 98 l 1
 242 98 l 1
 242 556 l 1
 84 556 l 1
 84 654 l 1
 516 654 l 1
 516 556 l 1
 358 556 l 1
 358 98 l 1
 516 98 l 1
 516 0 l 1
 84 0 l 1xe6
362 707 m 0
 308 707 276 756 242 756 c 0xde
 224 756 209 740 203 707 c 1
 142 707 l 1xee
 150 784 188 829 238 829 c 0xde
 292 829 324 781 358 781 c 0xe6
 376 781 391 796 397 829 c 1
 458 829 l 1xd6
 450 753 412 707 362 707 c 0
EndSplineSet
EndChar

StartChar: itilde
Encoding: 297 297 295
Width: 600
Flags: MW
HStem: 0 21G<297 412 297 297> 400 91<84 412 84 297> 577 73<385 410.5 385 429> 577 127<190 316.5 190 316.5 263.5 429>
VStem: 297 115<0 400 400 400>
LayerCount: 2
Fore
SplineSet
84 400 m 1xd8
 84 491 l 1
 412 491 l 1
 412 0 l 1
 297 0 l 1
 297 400 l 1
 84 400 l 1xd8
190 577 m 1
 199 657 235 704 292 704 c 0xd8
 341 704 370 650 400 650 c 0xe8
 421 650 434 666 442 704 c 1
 503 704 l 1xd8
 494 624 458 577 400 577 c 0xe8
 351 577 323 631 293 631 c 0
 271 631 259 615 251 577 c 1
 190 577 l 1
EndSplineSet
EndChar

StartChar: Imacron
Encoding: 298 298 120
Width: 600
Flags: MW
HStem: 0 98<84 242 84 242 358 516> 556 98<84 242 84 516 358 358 358 516> 724 76<167 433 167 433>
VStem: 167 266<724 800 724 800> 242 116<98 556 98 556>
LayerCount: 2
Fore
SplineSet
84 0 m 1xe8
 84 98 l 1
 242 98 l 1
 242 556 l 1
 84 556 l 1
 84 654 l 1
 516 654 l 1
 516 556 l 1
 358 556 l 1
 358 98 l 1
 516 98 l 1
 516 0 l 1
 84 0 l 1xe8
167 724 m 1xf0
 167 800 l 1
 433 800 l 1
 433 724 l 1
 167 724 l 1xf0
EndSplineSet
EndChar

StartChar: imacron
Encoding: 299 299 297
Width: 600
Flags: MW
HStem: 0 21G<297 412 297 297> 400 91<84 412 84 297> 596 76<216 477 216 477>
VStem: 216 261<596 672 596 672> 297 115<0 400 400 400>
LayerCount: 2
Fore
SplineSet
84 400 m 1xe8
 84 491 l 1
 412 491 l 1
 412 0 l 1
 297 0 l 1
 297 400 l 1
 84 400 l 1xe8
216 596 m 1xf0
 216 672 l 1
 477 672 l 1
 477 596 l 1
 216 596 l 1xf0
EndSplineSet
EndChar

StartChar: uni012C
Encoding: 300 300 121
Width: 600
Flags: MW
HStem: 0 98<84 242 84 242 358 516> 556 98<84 242 84 516 358 358 358 516> 705 61<280 320 280 342>
VStem: 242 116<98 556 98 556>
LayerCount: 2
Fore
SplineSet
84 0 m 1
 84 98 l 1
 242 98 l 1
 242 556 l 1
 84 556 l 1
 84 654 l 1
 516 654 l 1
 516 556 l 1
 358 556 l 1
 358 98 l 1
 516 98 l 1
 516 0 l 1
 84 0 l 1
300 705 m 0
 216 705 177 756 170 820 c 1
 236 820 l 1
 242 791 260 766 300 766 c 0
 340 766 358 791 364 820 c 1
 430 820 l 1
 423 756 384 705 300 705 c 0
EndSplineSet
EndChar

StartChar: uni012D
Encoding: 301 301 298
Width: 600
Flags: MW
HStem: 0 21G<297 412 297 297> 400 91<84 412 84 297> 575 65<324 368.5 324 393>
VStem: 208 66<720 720> 297 115<0 400 400 400> 418 67<720 720>
LayerCount: 2
Fore
SplineSet
84 400 m 1
 84 491 l 1
 412 491 l 1
 412 0 l 1
 297 0 l 1
 297 400 l 1
 84 400 l 1
346 575 m 0xf4
 253 575 211 648 208 720 c 1
 274 720 l 1
 280 677 302 640 346 640 c 0
 391 640 413 677 418 720 c 1
 485 720 l 1
 482 648 440 575 346 575 c 0xf4
EndSplineSet
EndChar

StartChar: Iogonek
Encoding: 302 302 126
Width: 600
GlyphClass: 2
Flags: MW
HStem: -218 78<321 322.5> 0 98<84 242 84 242 84 272 358 516> 556 98<84 242 84 516 358 358 358 516>
VStem: 202 86<-112.5 -96.5> 242 116<98 556>
AnchorPoint: "Anchor-0" 300 676 basechar 0
LayerCount: 2
Fore
SplineSet
84 0 m 1x68
 84 98 l 1
 242 98 l 1
 242 556 l 1
 84 556 l 1
 84 654 l 1
 516 654 l 1
 516 556 l 1
 358 556 l 1
 358 98 l 1x68
 516 98 l 1
 516 0 l 1
 358 0 l 1
 310 -27 288 -61 288 -98 c 0
 288 -127 310 -140 332 -140 c 0
 347 -140 360 -134 371 -126 c 1
 399 -186 l 1
 377 -204 338 -218 307 -218 c 0
 248 -218 202 -186 202 -127 c 0
 202 -66 241 -25 272 0 c 1xf0
 84 0 l 1x68
EndSplineSet
Ligature2: "'ccmp' Glyph Composition/Decomposition in Latin lookup 6 subtable" I uni0328
EndChar

StartChar: iogonek
Encoding: 303 303 302
Width: 600
GlyphClass: 3
Flags: MW
HStem: -208 71<334.5 395> 0 21G<297 297 297 328 412 412> 400 91<84 297 84 412> 577 155<322.5 370>
VStem: 263 81<-109 -92> 264 164<631 677> 297 115<0 400 400 400>
LayerCount: 2
Fore
SplineSet
297 0 m 1xf2
 297 400 l 1
 84 400 l 1
 84 491 l 1
 412 491 l 1
 412 0 l 1
 365 -24 344 -60 344 -95 c 0
 344 -123 365 -137 388 -137 c 0
 402 -137 413 -132 426 -124 c 1xf2
 452 -178 l 1
 429 -196 390 -208 362 -208 c 0
 307 -208 263 -178 263 -120 c 0
 263 -64 301 -24 328 0 c 1xf8
 297 0 l 1xf2
346 577 m 0xf4
 299 577 264 608 264 654 c 0
 264 700 299 732 346 732 c 0
 394 732 428 700 428 654 c 0
 428 608 394 577 346 577 c 0xf4
EndSplineSet
Substitution2: "Single Substitution lookup 22 subtable" iogonek.d
Ligature2: "'ccmp' Glyph Composition/Decomposition in Latin lookup 6 subtable" i uni0328
EndChar

StartChar: Idotaccent
Encoding: 304 304 122
Width: 600
Flags: MW
HStem: 0 98<84 242 84 242 358 516> 556 98<84 242 84 516 358 358 358 516> 707 131<279.5 320.5>
VStem: 229 142<753.5 792> 242 116<98 556 98 556>
LayerCount: 2
Fore
SplineSet
84 0 m 1xc8
 84 98 l 1
 242 98 l 1
 242 556 l 1
 84 556 l 1
 84 654 l 1
 516 654 l 1
 516 556 l 1
 358 556 l 1
 358 98 l 1
 516 98 l 1
 516 0 l 1
 84 0 l 1xc8
300 707 m 0xf0
 259 707 229 734 229 773 c 0
 229 811 259 838 300 838 c 0
 341 838 371 811 371 773 c 0
 371 734 341 707 300 707 c 0xf0
EndSplineSet
EndChar

StartChar: dotlessi
Encoding: 305 305 304
Width: 600
GlyphClass: 2
Flags: MW
HStem: 0 21G<297 412 297 297> 400 91<84 412 84 297>
VStem: 297 115<0 400 400 400>
AnchorPoint: "Anchor-4" 389 0 basechar 0
AnchorPoint: "Anchor-2" 346 -22 basechar 0
AnchorPoint: "Anchor-0" 346 513 basechar 0
LayerCount: 2
Fore
SplineSet
84 400 m 1
 84 491 l 1
 412 491 l 1
 412 0 l 1
 297 0 l 1
 297 400 l 1
 84 400 l 1
EndSplineSet
EndChar

StartChar: Jcircumflex
Encoding: 308 308 127
Width: 600
Flags: MW
HStem: -12 100<247.5 311 247.5 360> 557 97<124 389 124 505> 704 116<169 377 169 377 265 383 265 473>
VStem: 389 116<226 557 557 557>
LayerCount: 2
Fore
SplineSet
70 96 m 1
 140 167 l 1
 177 115 224 88 271 88 c 0
 351 88 389 127 389 226 c 2
 389 557 l 1
 124 557 l 1
 124 654 l 1
 505 654 l 1
 505 216 l 2
 505 91 446 -12 274 -12 c 0
 201 -12 121 18 70 96 c 1
259 704 m 1
 169 704 l 1
 265 820 l 1
 377 820 l 1
 473 704 l 1
 383 704 l 1
 323 768 l 1
 319 768 l 1
 259 704 l 1
EndSplineSet
EndChar

StartChar: jcircumflex
Encoding: 309 309 305
Width: 600
Flags: MW
HStem: -206 91<173 231 173 279> 400 91<84 412 84 297> 573 158<199 395 199 395 298 408 298 494>
VStem: 297 115<3 9 9 400 400 400>
LayerCount: 2
Fore
SplineSet
84 400 m 1
 84 491 l 1
 412 491 l 1
 412 9 l 2
 412 -111 363 -206 195 -206 c 0
 138 -206 89 -192 49 -173 c 1
 84 -90 l 1
 121 -107 157 -115 189 -115 c 0
 273 -115 297 -74 297 3 c 2
 297 400 l 1
 84 400 l 1
199 573 m 1
 298 731 l 1
 395 731 l 1
 494 573 l 1
 408 573 l 1
 348 670 l 1
 344 670 l 1
 284 573 l 1
 199 573 l 1
EndSplineSet
EndChar

StartChar: uni0136
Encoding: 310 310 128
Width: 600
Flags: MW
HStem: -223 50<236 246> 0 21G<83 83 83 200 458 458 458 587> 634 20G<83 200 200 200 436 565 565 565>
VStem: 83 117<0 191 357 654> 322 85<-144 -120.5>
LayerCount: 2
Fore
SplineSet
83 0 m 1
 83 654 l 1
 200 654 l 1
 200 357 l 1
 203 357 l 1
 436 654 l 1
 565 654 l 1
 364 399 l 1
 587 0 l 1
 458 0 l 1
 295 308 l 1
 200 191 l 1
 200 0 l 1
 83 0 l 1
298 -45 m 1
 377 -54 407 -78 407 -125 c 0
 407 -188 331 -217 246 -223 c 1
 236 -173 l 1
 286 -167 322 -156 322 -132 c 0
 322 -109 304 -98 275 -91 c 1
 298 -45 l 1
EndSplineSet
EndChar

StartChar: uni0137
Encoding: 311 311 306
Width: 600
Flags: MW
HStem: -223 50<236 245> 0 21G<90 90 90 206 454 454 454 580> 471 20G<431 559 559 559> 686 20G<90 206 206 206>
VStem: 90 116<0 128 264 706> 321 85<-144 -120.5>
LayerCount: 2
Fore
SplineSet
90 0 m 1
 90 706 l 1
 206 706 l 1
 206 264 l 1
 210 264 l 1
 431 491 l 1
 559 491 l 1
 369 293 l 1
 580 0 l 1
 454 0 l 1
 300 222 l 1
 206 128 l 1
 206 0 l 1
 90 0 l 1
297 -45 m 1
 376 -54 406 -78 406 -125 c 0
 406 -188 330 -217 245 -223 c 1
 236 -173 l 1
 286 -167 321 -156 321 -132 c 0
 321 -109 303 -98 274 -91 c 1
 297 -45 l 1
EndSplineSet
EndChar

StartChar: kgreenlandic
Encoding: 312 312 307
Width: 600
Flags: MW
HStem: 0 21G<90 90 90 206 454 454 454 580> 471 20G<90 206 206 206 431 559 559 559>
VStem: 90 116<0 126 265 491>
LayerCount: 2
Fore
SplineSet
90 0 m 1
 90 491 l 1
 206 491 l 1
 206 265 l 1
 209 266 l 1
 431 491 l 1
 559 491 l 1
 369 293 l 1
 580 0 l 1
 454 0 l 1
 300 217 l 1
 206 126 l 1
 206 0 l 1
 90 0 l 1
EndSplineSet
EndChar

StartChar: Lacute
Encoding: 313 313 129
Width: 600
Flags: MW
HStem: 0 98<235 542 235 542> 634 20G<120 235 235 235> 704 116<214 223 129 339>
VStem: 120 115<98 654 98 654 98 654>
LayerCount: 2
Fore
SplineSet
120 0 m 1
 120 654 l 1
 235 654 l 1
 235 98 l 1
 542 98 l 1
 542 0 l 1
 120 0 l 1
339 820 m 1
 223 704 l 1
 129 704 l 1
 214 820 l 1
 339 820 l 1
EndSplineSet
EndChar

StartChar: lacute
Encoding: 314 314 308
Width: 600
Flags: MW
HStem: -12 94<404 429.5> 615 91<71 341 71 226> 758 116<292 301 207 417>
VStem: 226 115<179 615 615 615>
LayerCount: 2
Fore
SplineSet
71 615 m 1
 71 706 l 1
 341 706 l 1
 341 173 l 2
 341 107 379 82 429 82 c 0
 454 82 480 88 513 101 c 1
 540 16 l 1
 493 0 458 -12 401 -12 c 0
 286 -12 226 58 226 179 c 2
 226 615 l 1
 71 615 l 1
417 874 m 1
 301 758 l 1
 207 758 l 1
 292 874 l 1
 417 874 l 1
EndSplineSet
EndChar

StartChar: uni013B
Encoding: 315 315 131
Width: 600
Flags: MW
HStem: -223 50<245 254> 0 98<235 542 235 542> 634 20G<120 235 235 235>
VStem: 120 115<98 654 98 654 98 654> 330 86<-144 -120.5>
LayerCount: 2
Fore
SplineSet
120 0 m 1
 120 654 l 1
 235 654 l 1
 235 98 l 1
 542 98 l 1
 542 0 l 1
 120 0 l 1
306 -45 m 1
 385 -54 416 -78 416 -125 c 0
 416 -188 340 -217 254 -223 c 1
 245 -173 l 1
 295 -167 330 -156 330 -132 c 0
 330 -109 312 -98 283 -91 c 1
 306 -45 l 1
EndSplineSet
EndChar

StartChar: uni013C
Encoding: 316 316 311
Width: 600
Flags: MW
HStem: -223 50<272 282> -12 94<404 429.5> 615 91<71 341 71 226>
VStem: 226 115<179 615 615 615> 358 85<-144 -120.5>
LayerCount: 2
Fore
SplineSet
71 615 m 1
 71 706 l 1
 341 706 l 1
 341 173 l 2
 341 107 379 82 429 82 c 0
 454 82 480 88 513 101 c 1
 540 16 l 1
 493 0 458 -12 401 -12 c 0
 286 -12 226 58 226 179 c 2
 226 615 l 1
 71 615 l 1
334 -45 m 1xf8
 412 -54 443 -78 443 -125 c 0
 443 -188 367 -217 282 -223 c 1
 272 -173 l 1
 322 -167 358 -156 358 -132 c 0
 358 -109 340 -98 310 -91 c 1
 334 -45 l 1xf8
EndSplineSet
EndChar

StartChar: Lcaron
Encoding: 317 317 130
Width: 600
Flags: MW
HStem: 0 98<235 542 235 542> 512 217<388 440 388 388> 634 20G<120 235 235 235>
VStem: 120 115<98 654 98 654 98 654> 385.5 74
LayerCount: 2
Fore
SplineSet
120 0 m 1xb8
 120 654 l 1
 235 654 l 1
 235 98 l 1
 542 98 l 1
 542 0 l 1
 120 0 l 1xb8
440 512 m 1xd8
 388 512 l 1
 383 729 l 1
 460 729 l 1
 459 666 l 1
 440 512 l 1xd8
EndSplineSet
EndChar

StartChar: lcaron
Encoding: 318 318 309
Width: 600
GlyphClass: 3
Flags: MW
HStem: -12 94<404 429.5> 548 217<408 460 408 408> 615 91<71 341 71 226>
VStem: 226 115<179 615 615 615> 406 74
LayerCount: 2
Fore
SplineSet
71 615 m 1xb8
 71 706 l 1
 341 706 l 1
 341 173 l 2
 341 107 379 82 429 82 c 0
 454 82 480 88 513 101 c 1
 540 16 l 1
 493 0 458 -12 401 -12 c 0
 286 -12 226 58 226 179 c 2
 226 615 l 1
 71 615 l 1xb8
460 548 m 1xd8
 408 548 l 1
 404 765 l 1
 481 765 l 1
 479 702 l 1
 460 548 l 1xd8
EndSplineSet
Ligature2: "'ccmp' Glyph Composition/Decomposition in Latin lookup 6 subtable" l uni030C
EndChar

StartChar: Ldot
Encoding: 319 319 132
Width: 600
Flags: MW
HStem: 0 98<235 542 235 542> 274 154<418.5 465.5> 634 20G<120 235 235 235>
VStem: 120 115<98 654 98 654 98 654> 360 164<327 373.5>
LayerCount: 2
Fore
SplineSet
120 0 m 1
 120 654 l 1
 235 654 l 1
 235 98 l 1
 542 98 l 1
 542 0 l 1
 120 0 l 1
442 274 m 0
 395 274 360 304 360 350 c 0
 360 397 395 428 442 428 c 0
 489 428 524 397 524 350 c 0
 524 304 489 274 442 274 c 0
EndSplineSet
EndChar

StartChar: ldot
Encoding: 320 320 310
Width: 600
Flags: MW
HStem: -12 94<360 385> 272 155<430.5 478> 615 91<27 297 27 182>
VStem: 182 115<179 615 615 615> 372 164<326 372.5>
LayerCount: 2
Fore
SplineSet
27 615 m 1
 27 706 l 1
 297 706 l 1
 297 173 l 2
 297 107 335 82 385 82 c 0
 410 82 436 88 469 101 c 1
 496 16 l 1
 448 0 414 -12 356 -12 c 0
 242 -12 182 58 182 179 c 2
 182 615 l 1
 27 615 l 1
454 272 m 0
 407 272 372 303 372 349 c 0
 372 396 407 427 454 427 c 0
 502 427 536 396 536 349 c 0
 536 303 502 272 454 272 c 0
EndSplineSet
EndChar

StartChar: Lslash
Encoding: 321 321 136
Width: 600
Flags: MW
HStem: 0 98<235 542 235 542> 634 20G<120 235 235 235>
VStem: 120 115<98 98 98 213 213 213 360 654>
LayerCount: 2
Fore
SplineSet
235 98 m 1
 542 98 l 1
 542 0 l 1
 120 0 l 1
 120 213 l 1
 43 170 l 1
 43 261 l 1
 120 304 l 1
 120 654 l 1
 235 654 l 1
 235 360 l 1
 451 476 l 1
 451 385 l 1
 235 269 l 1
 235 98 l 1
EndSplineSet
EndChar

StartChar: lslash
Encoding: 322 322 315
Width: 600
Flags: MW
HStem: -12 94<404 429.5> 615 91<71 226 71 341>
VStem: 226 115<179 304 304 304 456 615 615 615>
LayerCount: 2
Fore
SplineSet
513 101 m 1
 540 16 l 1
 493 0 458 -12 401 -12 c 0
 286 -12 226 58 226 179 c 2
 226 304 l 1
 108 236 l 1
 108 331 l 1
 226 398 l 1
 226 615 l 1
 71 615 l 1
 71 706 l 1
 341 706 l 1
 341 456 l 1
 497 542 l 1
 497 447 l 1
 341 361 l 1
 341 173 l 2
 341 107 379 82 429 82 c 0
 454 82 480 88 513 101 c 1
EndSplineSet
EndChar

StartChar: Nacute
Encoding: 323 323 138
Width: 600
Flags: MW
HStem: 0 21G<74 74 74 185 408 408 408 526> 0 147<408 431 428 431 428 526> 507 147<169 172 169 169> 634 20G<74 192 192 192 415 526 526 526> 704 116<327 336 243 453>
VStem: 74 111<0 286 0 654> 415 111<370 654 0 654>
LayerCount: 2
Fore
SplineSet
74 0 m 1x9e
 74 654 l 1
 192 654 l 1
 367 286 l 1
 428 147 l 1
 431 147 l 1x5e
 426 214 415 297 415 370 c 2
 415 654 l 1
 526 654 l 1
 526 0 l 1
 408 0 l 1
 233 369 l 1
 172 507 l 1
 169 507 l 1xae
 174 438 185 359 185 286 c 2
 185 0 l 1
 74 0 l 1x9e
453 820 m 1
 336 704 l 1
 243 704 l 1
 327 820 l 1
 453 820 l 1
EndSplineSet
EndChar

StartChar: nacute
Encoding: 324 324 317
Width: 600
Flags: MW
HStem: 0 21G<82 82 82 198 416 416 416 532> 404 99<329.5 357.5> 471 20G<82 177 177 177> 573 158<243 453 243 453>
VStem: 82 116<0 335 0 491> 416 116<0 289 289 304 0 328.5>
LayerCount: 2
Fore
SplineSet
82 0 m 1xdc
 82 491 l 1
 177 491 l 1xbc
 186 417 l 1
 190 417 l 1
 236 464 292 503 367 503 c 0
 480 503 532 431 532 304 c 2
 532 0 l 1
 416 0 l 1
 416 289 l 2
 416 368 391 404 324 404 c 0
 276 404 243 381 198 335 c 1
 198 0 l 1
 82 0 l 1xdc
453 731 m 1
 328 573 l 1
 243 573 l 1
 332 731 l 1
 453 731 l 1
EndSplineSet
EndChar

StartChar: uni0145
Encoding: 325 325 141
Width: 600
Flags: MW
HStem: -223 50<206 216> 0 21G<74 74 74 185 408 408 408 526> 0 147<408 431 428 431 428 526> 507 147<169 172 169 169> 634 20G<74 192 192 192 415 526 526 526>
VStem: 74 111<0 286 0 654> 292 85<-144 -120.5> 415 111<370 654 0 654>
LayerCount: 2
Fore
SplineSet
74 0 m 1xcd
 74 654 l 1
 192 654 l 1
 367 286 l 1
 428 147 l 1
 431 147 l 1xaf
 426 214 415 297 415 370 c 2
 415 654 l 1
 526 654 l 1
 526 0 l 1
 408 0 l 1
 233 369 l 1
 172 507 l 1
 169 507 l 1xd5
 174 438 185 359 185 286 c 2
 185 0 l 1
 74 0 l 1xcd
268 -45 m 1
 346 -54 377 -78 377 -125 c 0
 377 -188 301 -217 216 -223 c 1
 206 -173 l 1
 256 -167 292 -156 292 -132 c 0
 292 -109 274 -98 244 -91 c 1
 268 -45 l 1
EndSplineSet
EndChar

StartChar: uni0146
Encoding: 326 326 320
Width: 600
Flags: MW
HStem: -223 50<216 225> 0 21G<82 82 82 198 416 416 416 532> 404 99<329.5 357.5> 471 20G<82 177 177 177>
VStem: 82 116<0 335 0 491> 301 85<-144 -120.5> 416 116<0 289 289 304 0 328.5>
LayerCount: 2
Fore
SplineSet
82 0 m 1xea
 82 491 l 1
 177 491 l 1xde
 186 417 l 1
 190 417 l 1
 236 464 292 503 367 503 c 0
 480 503 532 431 532 304 c 2
 532 0 l 1
 416 0 l 1
 416 289 l 2
 416 368 391 404 324 404 c 0
 276 404 243 381 198 335 c 1
 198 0 l 1
 82 0 l 1xea
277 -45 m 1
 356 -54 386 -78 386 -125 c 0
 386 -188 310 -217 225 -223 c 1
 216 -173 l 1
 266 -167 301 -156 301 -132 c 0
 301 -109 283 -98 254 -91 c 1
 277 -45 l 1
EndSplineSet
EndChar

StartChar: Ncaron
Encoding: 327 327 139
Width: 600
Flags: MW
HStem: 0 21G<74 74 74 185 408 408 408 526> 0 147<408 431 428 431 428 526> 507 147<169 172 169 169> 634 20G<74 192 192 192 415 526 526 526> 704 116<154 362 154 250>
VStem: 74 111<0 286 0 654> 415 111<370 654 0 654>
LayerCount: 2
Fore
SplineSet
74 0 m 1x9e
 74 654 l 1
 192 654 l 1
 367 286 l 1
 428 147 l 1
 431 147 l 1x5e
 426 214 415 297 415 370 c 2
 415 654 l 1
 526 654 l 1
 526 0 l 1
 408 0 l 1
 233 369 l 1
 172 507 l 1
 169 507 l 1xae
 174 438 185 359 185 286 c 2
 185 0 l 1
 74 0 l 1x9e
368 820 m 1
 458 820 l 1
 362 704 l 1
 250 704 l 1
 154 820 l 1
 244 820 l 1
 304 756 l 1
 308 756 l 1
 368 820 l 1
EndSplineSet
EndChar

StartChar: ncaron
Encoding: 328 328 318
Width: 600
Flags: MW
HStem: 0 21G<82 82 82 198 416 416 416 532> 404 99<329.5 357.5> 471 20G<82 177 177 177> 573 158<169 268 169 365>
VStem: 82 116<0 335 0 491> 416 116<0 289 289 304 0 328.5>
LayerCount: 2
Fore
SplineSet
82 0 m 1xdc
 82 491 l 1
 177 491 l 1xbc
 186 417 l 1
 190 417 l 1
 236 464 292 503 367 503 c 0
 480 503 532 431 532 304 c 2
 532 0 l 1
 416 0 l 1
 416 289 l 2
 416 368 391 404 324 404 c 0
 276 404 243 381 198 335 c 1
 198 0 l 1
 82 0 l 1xdc
268 573 m 1
 169 731 l 1
 254 731 l 1
 314 634 l 1
 318 634 l 1
 378 731 l 1
 464 731 l 1
 365 573 l 1
 268 573 l 1
EndSplineSet
EndChar

StartChar: napostrophe
Encoding: 329 329 324
Width: 600
Flags: MW
HStem: 0 21G<206 322 206 206 506 621 506 506> 404 99<438 457> 471 20G<206 301 301 301> 527 171<30 54.5>
VStem: 73 86 206 116<0 339 0 491> 506 115<0 293 293 308 0 331>
LayerCount: 2
Fore
SplineSet
-1 319 m 1xce
 -34 382 l 1
 31 416 69 465 73 531 c 1
 66 528 58 527 51 527 c 0
 3 527 -30 560 -30 608 c 0
 -30 662 5 698 55 698 c 0xde
 118 698 159 645 159 557 c 0
 159 453 103 369 -1 319 c 1xce
310 421 m 1xce
 314 421 l 1
 357 466 404 503 472 503 c 0
 574 503 621 432 621 308 c 2
 621 0 l 1
 506 0 l 1
 506 293 l 2
 506 369 484 404 430 404 c 0
 388 404 362 382 322 339 c 1xce
 322 0 l 1
 206 0 l 1
 206 491 l 1
 301 491 l 1xae
 310 421 l 1xce
EndSplineSet
EndChar

StartChar: uni014E
Encoding: 334 334 151
Width: 600
Flags: MW
HStem: -12 101<258 342 258 376> 565 101<258 342> 705 61<280 320 280 342>
VStem: 43 119<256.5 403 256.5 435.5> 438 119<256.5 403>
LayerCount: 2
Fore
SplineSet
300 -12 m 0
 148 -12 43 118 43 330 c 0
 43 541 148 666 300 666 c 0
 452 666 557 541 557 330 c 0
 557 118 452 -12 300 -12 c 0
300 89 m 0
 384 89 438 183 438 330 c 0
 438 476 384 565 300 565 c 0
 216 565 162 476 162 330 c 0
 162 183 216 89 300 89 c 0
300 705 m 0
 216 705 177 756 170 820 c 1
 236 820 l 1
 242 791 260 766 300 766 c 0
 340 766 358 791 364 820 c 1
 430 820 l 1
 423 756 384 705 300 705 c 0
EndSplineSet
EndChar

StartChar: uni014F
Encoding: 335 335 331
Width: 600
Flags: MW
HStem: -12 94<260 340 260 364.5> 409 94<260 340> 575 65<277.5 322.5 277.5 347>
VStem: 53 119<196 294.5 196 327> 161 67<720 720> 372 67<720 720> 428 119<196 294.5>
LayerCount: 2
Fore
SplineSet
53 245 m 0xf2
 53 409 171 503 300 503 c 0
 429 503 547 409 547 245 c 0
 547 82 429 -12 300 -12 c 0
 171 -12 53 82 53 245 c 0xf2
172 245 m 0
 172 147 220 82 300 82 c 0
 380 82 428 147 428 245 c 0
 428 344 380 409 300 409 c 0
 220 409 172 344 172 245 c 0
300 575 m 0xec
 206 575 165 648 161 720 c 1
 228 720 l 1
 233 677 255 640 300 640 c 0
 345 640 367 677 372 720 c 1
 439 720 l 1
 435 648 394 575 300 575 c 0xec
EndSplineSet
EndChar

StartChar: Ohungarumlaut
Encoding: 336 336 152
Width: 600
Flags: MW
HStem: -12 101<258 342 258 376> 565 101<258 342> 704 116<241 256 177 343 410 425 241 346>
VStem: 43 119<256.5 403 256.5 435.5> 438 119<256.5 403>
LayerCount: 2
Fore
SplineSet
300 -12 m 0
 148 -12 43 118 43 330 c 0
 43 541 148 666 300 666 c 0
 452 666 557 541 557 330 c 0
 557 118 452 -12 300 -12 c 0
300 89 m 0
 384 89 438 183 438 330 c 0
 438 476 384 565 300 565 c 0
 216 565 162 476 162 330 c 0
 162 183 216 89 300 89 c 0
256 704 m 1
 177 704 l 1
 241 820 l 1
 343 820 l 1
 256 704 l 1
346 704 m 1
 410 820 l 1
 512 820 l 1
 425 704 l 1
 346 704 l 1
EndSplineSet
EndChar

StartChar: ohungarumlaut
Encoding: 337 337 332
Width: 600
Flags: MW
HStem: -12 94<260 340 260 364.5> 409 94<260 340> 572 147<188 352 258 261 347 352 417 420 347 347>
VStem: 53 119<196 294.5 196 327> 428 119<196 294.5>
LayerCount: 2
Fore
SplineSet
53 245 m 0
 53 409 171 503 300 503 c 0
 429 503 547 409 547 245 c 0
 547 82 429 -12 300 -12 c 0
 171 -12 53 82 53 245 c 0
172 245 m 0
 172 147 220 82 300 82 c 0
 380 82 428 147 428 245 c 0
 428 344 380 409 300 409 c 0
 220 409 172 344 172 245 c 0
188 572 m 1
 258 719 l 1
 352 719 l 1
 261 572 l 1
 188 572 l 1
347 572 m 1
 417 719 l 1
 512 719 l 1
 420 572 l 1
 347 572 l 1
EndSplineSet
EndChar

StartChar: OE
Encoding: 338 338 162
Width: 600
GlyphClass: 2
Flags: MW
HStem: 0 94<284 292 292 302 284 593> 0 98<406 593 406 593> 291 98<406 540 406 540> 557 97<406 583 406 406> 560 94<239 583 297 302>
VStem: 26 119<249 411 249 438> 302 104<98 291 389 557>
AnchorPoint: "Anchor-0" 401 676 basechar 0
LayerCount: 2
Fore
SplineSet
26 330 m 0x76
 26 546 135 654 297 654 c 2
 583 654 l 1
 583 557 l 1
 406 557 l 1
 406 389 l 1
 540 389 l 1
 540 291 l 1
 406 291 l 1
 406 98 l 1
 593 98 l 1
 593 0 l 1
 292 0 l 2
 132 0 26 113 26 330 c 0x76
145 330 m 0xae
 145 168 194 94 284 94 c 2
 302 94 l 1
 302 560 l 1
 284 560 l 2
 194 560 145 492 145 330 c 0xae
EndSplineSet
EndChar

StartChar: oe
Encoding: 339 339 342
Width: 600
GlyphClass: 2
Flags: MW
HStem: -12 93<171 221.5> 214 73<358 502 357 590 358 358> 410 93<171 222> 414 89<419 462.5>
VStem: 11 105<196.5 295 196.5 327.5> 275 82<287 287 287 295> 502 92<287 321>
AnchorPoint: "Anchor-0" 317 513 basechar 0
LayerCount: 2
Fore
SplineSet
116 246 m 0xee
 116 147 144 81 198 81 c 0
 246 81 275 147 275 246 c 0
 275 344 246 410 198 410 c 0
 144 410 116 344 116 246 c 0xee
11 246 m 0
 11 409 92 503 193 503 c 0
 252 503 296 465 321 402 c 1
 348 466 391 503 447 503 c 0
 543 503 594 398 594 272 c 0
 594 250 593 235 590 214 c 1
 358 214 l 1
 366 130 402 79 461 79 c 0
 491 79 514 90 540 108 c 1
 580 33 l 1
 545 6 500 -12 456 -12 c 0
 399 -12 350 21 322 82 c 1
 293 21 252 -12 191 -12 c 0
 90 -12 11 82 11 246 c 0
357 287 m 1
 502 287 l 1
 502 355 487 414 438 414 c 0xde
 392 414 364 368 357 287 c 1
EndSplineSet
EndChar

StartChar: Racute
Encoding: 340 340 170
Width: 600
Flags: MW
HStem: 0 21G<84 200 84 84 438 569 438 438> 256 92<200 290 290 298 200 290> 561 93<200 200 200 290> 704 116<325 334 240 450>
VStem: 84 116<0 256 348 561> 429 114<423 497.5>
LayerCount: 2
Fore
SplineSet
450 820 m 1
 334 704 l 1
 240 704 l 1
 325 820 l 1
 450 820 l 1
200 561 m 1
 200 348 l 1
 290 348 l 2
 380 348 429 386 429 460 c 0
 429 535 380 561 290 561 c 2
 200 561 l 1
569 0 m 1
 438 0 l 1
 298 256 l 1
 200 256 l 1
 200 0 l 1
 84 0 l 1
 84 654 l 1
 302 654 l 2
 438 654 543 606 543 460 c 0
 543 361 491 300 413 273 c 1
 569 0 l 1
EndSplineSet
EndChar

StartChar: racute
Encoding: 341 341 350
Width: 600
Flags: MW
HStem: 0 21G<130 130 130 246> 401 102<404.5 447.5> 471 20G<130 225 225 225> 483 20 573 158<267 477 267 477>
VStem: 130 116<0 271 0 491>
LayerCount: 2
Fore
SplineSet
130 0 m 1xcc
 130 491 l 1
 225 491 l 1xac
 235 380 l 1
 238 380 l 1
 288 459 362 503 447 503 c 0xcc
 487 503 513 497 542 483 c 1x9c
 518 386 l 1
 486 396 466 401 429 401 c 0
 362 401 296 366 246 271 c 1
 246 0 l 1
 130 0 l 1xcc
477 731 m 1
 352 573 l 1
 267 573 l 1
 356 731 l 1
 477 731 l 1
EndSplineSet
EndChar

StartChar: uni0156
Encoding: 342 342 172
Width: 600
Flags: MW
HStem: -223 50<226 236> 0 21G<84 200 84 84 438 569 438 438> 256 92<200 290 290 298 200 290> 561 93<200 200 200 290>
VStem: 84 116<0 256 348 561> 312 85<-144 -120.5> 429 114<423 497.5>
LayerCount: 2
Fore
SplineSet
264 -91 m 1
 288 -45 l 1
 366 -54 397 -78 397 -125 c 0
 397 -188 321 -217 236 -223 c 1
 226 -173 l 1
 276 -167 312 -156 312 -132 c 0
 312 -109 294 -98 264 -91 c 1
200 561 m 1
 200 348 l 1
 290 348 l 2
 380 348 429 386 429 460 c 0
 429 535 380 561 290 561 c 2
 200 561 l 1
413 273 m 1
 569 0 l 1
 438 0 l 1
 298 256 l 1
 200 256 l 1
 200 0 l 1
 84 0 l 1
 84 654 l 1
 302 654 l 2
 438 654 543 606 543 460 c 0
 543 361 491 300 413 273 c 1
EndSplineSet
EndChar

StartChar: uni0157
Encoding: 343 343 351
Width: 600
Flags: MW
HStem: -223 50<108 117> 0 21G<130 130 130 246> 401 102<404.5 447.5> 471 20G<130 225 225 225> 483 20
VStem: 130 116<0 271 0 491> 193 85<-144 -120.5>
LayerCount: 2
Fore
SplineSet
130 0 m 1xe4
 130 491 l 1
 225 491 l 1xd4
 235 380 l 1
 238 380 l 1
 288 459 362 503 447 503 c 0xe4
 487 503 513 497 542 483 c 1xcc
 518 386 l 1
 486 396 466 401 429 401 c 0
 362 401 296 366 246 271 c 1
 246 0 l 1
 130 0 l 1xe4
169 -45 m 1xe2
 248 -54 278 -78 278 -125 c 0
 278 -188 202 -217 117 -223 c 1
 108 -173 l 1
 158 -167 193 -156 193 -132 c 0
 193 -109 175 -98 146 -91 c 1
 169 -45 l 1xe2
EndSplineSet
EndChar

StartChar: Rcaron
Encoding: 344 344 171
Width: 600
Flags: MW
HStem: 0 21G<84 200 84 84 438 569 438 438> 256 92<200 290 290 298 200 290> 561 93<200 200 200 290> 704 116<152 360 152 248>
VStem: 84 116<0 256 348 561> 429 114<423 497.5>
LayerCount: 2
Fore
SplineSet
360 704 m 1
 248 704 l 1
 152 820 l 1
 242 820 l 1
 302 756 l 1
 306 756 l 1
 366 820 l 1
 456 820 l 1
 360 704 l 1
200 561 m 1
 200 348 l 1
 290 348 l 2
 380 348 429 386 429 460 c 0
 429 535 380 561 290 561 c 2
 200 561 l 1
569 0 m 1
 438 0 l 1
 298 256 l 1
 200 256 l 1
 200 0 l 1
 84 0 l 1
 84 654 l 1
 302 654 l 2
 438 654 543 606 543 460 c 0
 543 361 491 300 413 273 c 1
 569 0 l 1
EndSplineSet
EndChar

StartChar: rcaron
Encoding: 345 345 352
Width: 600
Flags: MW
HStem: 0 21G<130 130 130 246> 401 102<404.5 447.5> 471 20G<130 225 225 225> 483 20 573 158<193 292 193 389>
VStem: 130 116<0 271 0 491>
LayerCount: 2
Fore
SplineSet
130 0 m 1xcc
 130 491 l 1
 225 491 l 1xac
 235 380 l 1
 238 380 l 1
 288 459 362 503 447 503 c 0xcc
 487 503 513 497 542 483 c 1x9c
 518 386 l 1
 486 396 466 401 429 401 c 0
 362 401 296 366 246 271 c 1
 246 0 l 1
 130 0 l 1xcc
292 573 m 1
 193 731 l 1
 278 731 l 1
 338 634 l 1
 342 634 l 1
 402 731 l 1
 488 731 l 1
 389 573 l 1
 292 573 l 1
EndSplineSet
EndChar

StartChar: Sacute
Encoding: 346 346 176
Width: 600
Flags: MW
HStem: -12 101<272 344 272 378> 565 101<280 344> 704 116<330 340 246 456>
VStem: 87 117<462.5 512 462.5 534> 426 118<147.5 200>
LayerCount: 2
Fore
SplineSet
58 84 m 1
 126 163 l 1
 175 119 240 89 304 89 c 0
 384 89 426 122 426 173 c 0
 426 227 381 244 316 269 c 1
 227 308 l 1
 158 335 87 386 87 482 c 0
 87 586 181 666 314 666 c 0
 394 666 470 634 524 583 c 1
 464 509 l 1
 420 544 374 565 314 565 c 0
 246 565 204 536 204 488 c 0
 204 437 257 419 316 396 c 1
 402 359 l 1
 485 326 544 277 544 182 c 0
 544 76 454 -12 302 -12 c 0
 210 -12 123 23 58 84 c 1
456 820 m 1
 340 704 l 1
 246 704 l 1
 330 820 l 1
 456 820 l 1
EndSplineSet
EndChar

StartChar: scircumflex
Encoding: 349 349 357
Width: 600
Flags: MW
HStem: -12 87<268 344.5 268 377.5> 416 87<272 338> 573 158<160 357 160 357 259 370 259 456>
VStem: 92 115<344.5 377.5 344.5 399> 418 115<117 151>
LayerCount: 2
Fore
SplineSet
62 64 m 1
 116 137 l 1
 171 99 230 75 306 75 c 0
 383 75 418 100 418 134 c 0
 418 168 372 189 273 215 c 0
 179 240 92 282 92 356 c 0
 92 442 170 503 309 503 c 0
 389 503 463 471 513 438 c 1
 460 367 l 1
 416 396 366 416 310 416 c 0
 234 416 207 393 207 362 c 0
 207 327 266 308 345 288 c 0
 459 258 533 221 533 140 c 0
 533 56 452 -12 303 -12 c 0
 211 -12 123 22 62 64 c 1
160 573 m 1
 259 731 l 1
 357 731 l 1
 456 573 l 1
 370 573 l 1
 310 670 l 1
 306 670 l 1
 246 573 l 1
 160 573 l 1
EndSplineSet
EndChar

StartChar: uni015E
Encoding: 350 350 179
Width: 600
Flags: MW
HStem: -217 50<211 220> -10 21G<269 269 340 340> -10 99<269 344 340 340> 565 101<280 344>
VStem: 87 117<462.5 512 462.5 534> 296 86<-134.5 -110.5> 426 118<147.5 200>
LayerCount: 2
Fore
SplineSet
316 396 m 1xde
 402 359 l 1
 485 326 544 277 544 182 c 0
 544 85 469 3 340 -10 c 1
 323 -46 l 1
 356 -58 382 -78 382 -119 c 0
 382 -182 306 -211 220 -217 c 1
 211 -167 l 1
 261 -161 296 -148 296 -121 c 0
 296 -100 278 -86 236 -75 c 1
 269 -10 l 1
 189 -3 115 30 58 84 c 1
 126 163 l 1
 175 119 240 89 304 89 c 0
 384 89 426 122 426 173 c 0xbe
 426 227 381 244 316 269 c 1
 227 308 l 1
 158 335 87 386 87 482 c 0
 87 586 181 666 314 666 c 0
 394 666 470 634 524 583 c 1
 464 509 l 1
 420 544 374 565 314 565 c 0
 246 565 204 536 204 488 c 0
 204 437 257 419 316 396 c 1xde
EndSplineSet
EndChar

StartChar: uni015F
Encoding: 351 351 359
Width: 600
Flags: MW
HStem: -217 50<218 228> -11 86<276 276> 416 87<272 338>
VStem: 92 115<344.5 377.5 344.5 399> 304 85<-134.5 -110.5> 418 115<117 151>
LayerCount: 2
Fore
SplineSet
513 438 m 1
 460 367 l 1
 416 396 366 416 310 416 c 0
 234 416 207 393 207 362 c 0
 207 327 266 308 345 288 c 0
 459 258 533 221 533 140 c 0xf4
 533 65 468 2 347 -10 c 1
 330 -46 l 1
 364 -58 389 -78 389 -119 c 0
 389 -182 313 -211 228 -217 c 1
 218 -167 l 1
 268 -161 304 -148 304 -121 c 0
 304 -100 286 -86 243 -75 c 1
 276 -11 l 1xfc
 194 -5 117 26 62 64 c 1
 116 137 l 1
 171 99 230 75 306 75 c 0
 383 75 418 100 418 134 c 0
 418 168 372 189 273 215 c 0
 179 240 92 282 92 356 c 0
 92 442 170 503 309 503 c 0
 389 503 463 471 513 438 c 1
EndSplineSet
EndChar

StartChar: Scaron
Encoding: 352 352 178
Width: 600
Flags: MW
HStem: -12 101<272 344 272 378> 565 101<280 344> 704 116<157 365 157 253>
VStem: 87 117<462.5 512 462.5 534> 426 118<147.5 200>
LayerCount: 2
Fore
SplineSet
58 84 m 1
 126 163 l 1
 175 119 240 89 304 89 c 0
 384 89 426 122 426 173 c 0
 426 227 381 244 316 269 c 1
 227 308 l 1
 158 335 87 386 87 482 c 0
 87 586 181 666 314 666 c 0
 394 666 470 634 524 583 c 1
 464 509 l 1
 420 544 374 565 314 565 c 0
 246 565 204 536 204 488 c 0
 204 437 257 419 316 396 c 1
 402 359 l 1
 485 326 544 277 544 182 c 0
 544 76 454 -12 302 -12 c 0
 210 -12 123 23 58 84 c 1
371 820 m 1
 461 820 l 1
 365 704 l 1
 253 704 l 1
 157 820 l 1
 247 820 l 1
 307 756 l 1
 311 756 l 1
 371 820 l 1
EndSplineSet
EndChar

StartChar: uni0162
Encoding: 354 354 185
Width: 600
Flags: MW
HStem: -217 50<203 212> 0 21G<242 266 242 242 337 358 337 337> 556 98<36 242 36 564 358 358 358 564>
VStem: 242 116<0 556> 288 86<-134.5 -110.5>
LayerCount: 2
Fore
SplineSet
358 0 m 1xf0
 337 0 l 1xf0
 315 -46 l 1
 348 -58 374 -78 374 -119 c 0
 374 -182 298 -211 212 -217 c 1
 203 -167 l 1
 253 -161 288 -148 288 -121 c 0
 288 -100 270 -86 228 -75 c 1
 266 0 l 1xe8
 242 0 l 1
 242 556 l 1
 36 556 l 1
 36 654 l 1
 564 654 l 1
 564 556 l 1
 358 556 l 1
 358 0 l 1xf0
EndSplineSet
EndChar

StartChar: uni0163
Encoding: 355 355 365
Width: 600
Flags: MW
HStem: -217 50<280 290> -12 92<408 408> -8 21G<339 339> 400 91<59 195 305 529>
VStem: 190 115<198 400> 366 85<-134.5 -110.5>
LayerCount: 2
Fore
SplineSet
408 -12 m 1xd8
 392 -46 l 1xdc
 426 -58 451 -78 451 -119 c 0
 451 -182 375 -211 290 -217 c 1
 280 -167 l 1
 330 -161 366 -148 366 -121 c 0
 366 -100 348 -86 305 -75 c 1
 339 -8 l 1xbc
 229 9 190 88 190 198 c 2
 190 400 l 1
 59 400 l 1
 59 486 l 1
 195 491 l 1
 210 625 l 1
 305 625 l 1
 305 491 l 1
 529 491 l 1
 529 400 l 1
 305 400 l 1
 305 198 l 2
 305 117 335 80 418 80 c 0
 460 80 494 88 526 100 c 1
 548 16 l 1
 509 3 460 -9 408 -12 c 1xd8
EndSplineSet
EndChar

StartChar: Tcaron
Encoding: 356 356 184
Width: 600
Flags: MW
HStem: 0 21G<242 242 242 358> 556 98<36 242 36 564 358 358 358 564> 704 116<148 356 148 244>
VStem: 242 116<0 556 0 556>
LayerCount: 2
Fore
SplineSet
242 0 m 1
 242 556 l 1
 36 556 l 1
 36 654 l 1
 564 654 l 1
 564 556 l 1
 358 556 l 1
 358 0 l 1
 242 0 l 1
362 820 m 1
 452 820 l 1
 356 704 l 1
 244 704 l 1
 148 820 l 1
 238 820 l 1
 298 756 l 1
 302 756 l 1
 362 820 l 1
EndSplineSet
EndChar

StartChar: tcaron
Encoding: 357 357 364
Width: 600
GlyphClass: 3
Flags: MW
HStem: -12 92<376.5 419.5> 400 91<59 195 305 529> 548 77
VStem: 190 115<198 400> 390.5 74
LayerCount: 2
Fore
SplineSet
190 198 m 2
 190 400 l 1
 59 400 l 1
 59 486 l 1
 195 491 l 1
 210 625 l 1
 305 625 l 1
 305 491 l 1
 529 491 l 1
 529 400 l 1
 305 400 l 1
 305 198 l 2
 305 117 335 80 418 80 c 0
 460 80 494 88 526 100 c 1
 548 16 l 1
 504 1 449 -12 390 -12 c 0
 241 -12 190 72 190 198 c 2
445 548 m 1
 393 548 l 1
 388 765 l 1
 465 765 l 1
 464 702 l 1
 445 548 l 1
EndSplineSet
Ligature2: "'ccmp' Glyph Composition/Decomposition in Latin lookup 6 subtable" t uni030C
EndChar

StartChar: Utilde
Encoding: 360 360 192
Width: 600
Flags: MW
HStem: -12 101<266 336.5 266 373> 634 20G<72 188 188 188 417 528 528 528> 707 74<341 367 341 387> 756 73<233 259>
VStem: 72 116<250 654> 397 61<829 829> 417 111<241 250 250 654>
LayerCount: 2
Fore
SplineSet
72 250 m 2xda
 72 654 l 1
 188 654 l 1
 188 241 l 2
 188 134 231 89 301 89 c 0
 372 89 417 134 417 241 c 2
 417 654 l 1
 528 654 l 1
 528 250 l 2
 528 71 445 -12 301 -12 c 0
 158 -12 72 71 72 250 c 2xda
362 707 m 0xec
 308 707 276 756 242 756 c 0xda
 224 756 209 740 203 707 c 1
 142 707 l 1xea
 150 784 188 829 238 829 c 0xda
 292 829 324 781 358 781 c 0xec
 376 781 391 796 397 829 c 1
 458 829 l 1xdc
 450 753 412 707 362 707 c 0xec
EndSplineSet
EndChar

StartChar: utilde
Encoding: 361 361 373
Width: 600
Flags: MW
HStem: -12 99<243 270.5> 0 21G<421 515 421 421> 471 20G<70 185 185 185 400 515 515 515> 577 73<334 359.5 334 377.5> 577 127<139 265.5 139 265.5 212.5 377.5>
VStem: 70 115<187 202 202 491> 390 62<704 704> 400 115<160 491 0 491>
LayerCount: 2
Fore
SplineSet
515 491 m 1xad
 515 0 l 1
 421 0 l 1x6d
 412 78 l 1
 408 78 l 1
 362 24 307 -12 234 -12 c 0
 120 -12 70 60 70 187 c 2
 70 491 l 1
 185 491 l 1
 185 202 l 2
 185 123 209 87 277 87 c 0
 323 87 356 106 400 160 c 1
 400 491 l 1
 515 491 l 1xad
139 577 m 1
 148 657 184 704 241 704 c 0xad
 290 704 319 650 349 650 c 0xb6
 370 650 383 666 390 704 c 1
 452 704 l 1xae
 442 624 406 577 349 577 c 0xb5
 300 577 272 631 242 631 c 0
 220 631 208 615 200 577 c 1
 139 577 l 1
EndSplineSet
EndChar

StartChar: Umacron
Encoding: 362 362 194
Width: 600
Flags: MW
HStem: -12 101<266 336.5 266 373> 634 20G<72 188 188 188 417 528 528 528> 724 76<167 433 167 433>
VStem: 72 116<250 654> 417 111<241 250 250 654>
LayerCount: 2
Fore
SplineSet
72 250 m 2
 72 654 l 1
 188 654 l 1
 188 241 l 2
 188 134 231 89 301 89 c 0
 372 89 417 134 417 241 c 2
 417 654 l 1
 528 654 l 1
 528 250 l 2
 528 71 445 -12 301 -12 c 0
 158 -12 72 71 72 250 c 2
167 724 m 1
 167 800 l 1
 433 800 l 1
 433 724 l 1
 167 724 l 1
EndSplineSet
EndChar

StartChar: umacron
Encoding: 363 363 375
Width: 600
Flags: MW
HStem: -12 99<243 270.5> 0 21G<421 515 421 421> 471 20G<70 185 185 185 400 515 515 515> 596 76<165 426 165 426>
VStem: 70 115<187 202 202 491> 165 261<596 672 596 672> 400 115<160 491 0 491>
LayerCount: 2
Fore
SplineSet
515 491 m 1xba
 515 0 l 1
 421 0 l 1x7a
 412 78 l 1
 408 78 l 1
 362 24 307 -12 234 -12 c 0
 120 -12 70 60 70 187 c 2
 70 491 l 1
 185 491 l 1
 185 202 l 2
 185 123 209 87 277 87 c 0
 323 87 356 106 400 160 c 1
 400 491 l 1
 515 491 l 1xba
165 596 m 1xb4
 165 672 l 1
 426 672 l 1
 426 596 l 1
 165 596 l 1xb4
EndSplineSet
EndChar

StartChar: Ubreve
Encoding: 364 364 195
Width: 600
Flags: MW
HStem: -12 101<266 336.5 266 373> 634 20G<72 188 188 188 417 528 528 528> 705 61<280 320 280 342>
VStem: 72 116<250 654> 417 111<241 250 250 654>
LayerCount: 2
Fore
SplineSet
72 250 m 2
 72 654 l 1
 188 654 l 1
 188 241 l 2
 188 134 231 89 301 89 c 0
 372 89 417 134 417 241 c 2
 417 654 l 1
 528 654 l 1
 528 250 l 2
 528 71 445 -12 301 -12 c 0
 158 -12 72 71 72 250 c 2
300 705 m 0
 216 705 177 756 170 820 c 1
 236 820 l 1
 242 791 260 766 300 766 c 0
 340 766 358 791 364 820 c 1
 430 820 l 1
 423 756 384 705 300 705 c 0
EndSplineSet
EndChar

StartChar: ubreve
Encoding: 365 365 376
Width: 600
Flags: MW
HStem: -12 99<243 270.5> 0 21G<421 515 421 421> 471 20G<70 185 185 185 400 515 515 515> 575 65<273 317.5 273 342>
VStem: 70 115<187 202 202 491> 156 67<720 720> 367 67<720 720> 400 115<160 491 0 491>
LayerCount: 2
Fore
SplineSet
515 491 m 1xb9
 515 0 l 1
 421 0 l 1x75
 412 78 l 1
 408 78 l 1
 362 24 307 -12 234 -12 c 0
 120 -12 70 60 70 187 c 2
 70 491 l 1
 185 491 l 1
 185 202 l 2
 185 123 209 87 277 87 c 0
 323 87 356 106 400 160 c 1
 400 491 l 1
 515 491 l 1xb9
295 575 m 0
 201 575 160 648 156 720 c 1
 223 720 l 1
 229 677 251 640 295 640 c 0
 340 640 362 677 367 720 c 1
 434 720 l 1xb6
 430 648 389 575 295 575 c 0
EndSplineSet
EndChar

StartChar: Uring
Encoding: 366 366 196
Width: 600
Flags: MW
HStem: -12 101<266 336.5 266 373> 634 20G<72 188 188 188 417 528 528 528> 698 46<287.5 312 287.5 330> 838 46<287.5 312>
VStem: 72 116<250 654> 197 59<776 805.5 776 819> 344 59<776 805.5> 417 111<241 250 250 654>
LayerCount: 2
Fore
SplineSet
72 250 m 2
 72 654 l 1
 188 654 l 1
 188 241 l 2
 188 134 231 89 301 89 c 0
 372 89 417 134 417 241 c 2
 417 654 l 1
 528 654 l 1
 528 250 l 2
 528 71 445 -12 301 -12 c 0
 158 -12 72 71 72 250 c 2
300 698 m 0xff
 239 698 197 734 197 791 c 0
 197 847 239 884 300 884 c 0
 360 884 403 847 403 791 c 0
 403 734 360 698 300 698 c 0xff
300 744 m 0
 324 744 344 761 344 791 c 0
 344 820 324 838 300 838 c 0
 275 838 256 820 256 791 c 0
 256 761 275 744 300 744 c 0
EndSplineSet
EndChar

StartChar: uring
Encoding: 367 367 377
Width: 600
Flags: MW
HStem: -12 99<243 270.5> 0 21G<421 515 421 421> 471 20G<70 185 185 185 400 515 515 515> 545 46<283 307.5 283 325.5> 694 46<283 307.5>
VStem: 70 115<187 202 202 491> 192 59<627 657.5 627 671.5> 340 58<627 657.5> 400 115<160 491 0 491>
LayerCount: 2
Fore
SplineSet
515 491 m 1xbc80
 515 0 l 1
 421 0 l 1x7a80
 412 78 l 1
 408 78 l 1
 362 24 307 -12 234 -12 c 0
 120 -12 70 60 70 187 c 2
 70 491 l 1
 185 491 l 1
 185 202 l 2
 185 123 209 87 277 87 c 0
 323 87 356 106 400 160 c 1
 400 491 l 1
 515 491 l 1xbc80
295 545 m 0
 234 545 192 584 192 642 c 0
 192 701 234 740 295 740 c 0
 356 740 398 701 398 642 c 0xbb
 398 584 356 545 295 545 c 0
295 591 m 0xbb
 320 591 340 612 340 642 c 0
 340 673 320 694 295 694 c 0
 271 694 251 673 251 642 c 0
 251 612 271 591 295 591 c 0xbb
EndSplineSet
EndChar

StartChar: Uhungarumlaut
Encoding: 368 368 197
Width: 600
Flags: MW
HStem: -12 101<266 336.5 266 373> 634 20G<72 188 188 188 417 528 528 528> 704 116<241 256 177 343 410 425 241 346>
VStem: 72 116<250 654> 417 111<241 250 250 654>
LayerCount: 2
Fore
SplineSet
72 250 m 2
 72 654 l 1
 188 654 l 1
 188 241 l 2
 188 134 231 89 301 89 c 0
 372 89 417 134 417 241 c 2
 417 654 l 1
 528 654 l 1
 528 250 l 2
 528 71 445 -12 301 -12 c 0
 158 -12 72 71 72 250 c 2
256 704 m 1
 177 704 l 1
 241 820 l 1
 343 820 l 1
 256 704 l 1
346 704 m 1
 410 820 l 1
 512 820 l 1
 425 704 l 1
 346 704 l 1
EndSplineSet
EndChar

StartChar: uhungarumlaut
Encoding: 369 369 378
Width: 600
Flags: MW
HStem: -12 99<243 270.5> 0 21G<421 515 421 421> 471 20G<70 185 185 185 400 515 515 515> 572 147<183 348 253 256 342 348 412 415 342 342>
VStem: 70 115<187 202 202 491> 400 115<160 491 0 491>
LayerCount: 2
Fore
SplineSet
515 491 m 1xbc
 515 0 l 1
 421 0 l 1x7c
 412 78 l 1
 408 78 l 1
 362 24 307 -12 234 -12 c 0
 120 -12 70 60 70 187 c 2
 70 491 l 1
 185 491 l 1
 185 202 l 2
 185 123 209 87 277 87 c 0
 323 87 356 106 400 160 c 1
 400 491 l 1
 515 491 l 1xbc
183 572 m 1
 253 719 l 1
 348 719 l 1
 256 572 l 1
 183 572 l 1
342 572 m 1
 412 719 l 1
 507 719 l 1
 415 572 l 1
 342 572 l 1
EndSplineSet
EndChar

StartChar: Uogonek
Encoding: 370 370 205
Width: 600
GlyphClass: 2
Flags: MW
HStem: -218 78<340.5 341> -10 99 634 20G<72 188 188 188 417 528 528 528>
VStem: 72 116<250 654> 220 87<-112.5 -97.5> 417 111<241 250 250 654>
AnchorPoint: "Anchor-0" 300 676 basechar 0
LayerCount: 2
Fore
SplineSet
72 250 m 2
 72 654 l 1
 188 654 l 1
 188 241 l 2
 188 134 231 89 301 89 c 0
 371 89 417 134 417 241 c 2
 417 654 l 1
 528 654 l 1
 528 250 l 2
 528 119 483 43 404 7 c 1
 331 -28 307 -66 307 -98 c 0
 307 -127 329 -140 352 -140 c 0
 366 -140 379 -134 390 -126 c 1
 418 -186 l 1
 396 -204 356 -218 326 -218 c 0
 267 -218 220 -186 220 -127 c 0
 220 -68 264 -31 285 -10 c 1
 141 -5 72 88 72 250 c 2
EndSplineSet
Ligature2: "'ccmp' Glyph Composition/Decomposition in Latin lookup 6 subtable" U uni0328
EndChar

StartChar: uogonek
Encoding: 371 371 386
Width: 600
GlyphClass: 2
Flags: MW
HStem: -208 71<418.5 479> -12 99<243 270.5> 0 21G<515 515> 471 20G<70 185 185 185 400 515 515 515>
VStem: 70 115<187 202 202 491> 348 80<-109 -92> 400 115<160 491 0 491>
AnchorPoint: "Anchor-0" 295 513 basechar 0
LayerCount: 2
Fore
SplineSet
515 491 m 1xda
 515 0 l 1xba
 453 -24 428 -60 428 -95 c 0
 428 -123 450 -137 472 -137 c 0
 486 -137 500 -132 510 -124 c 1
 536 -178 l 1
 514 -196 474 -208 446 -208 c 0
 391 -208 348 -178 348 -120 c 0xdc
 348 -64 388 -24 422 1 c 1
 412 78 l 1
 408 78 l 1
 362 24 307 -12 234 -12 c 0
 120 -12 70 60 70 187 c 2
 70 491 l 1
 185 491 l 1
 185 202 l 2
 185 123 209 87 277 87 c 0
 323 87 356 106 400 160 c 1
 400 491 l 1
 515 491 l 1xda
EndSplineSet
Ligature2: "'ccmp' Glyph Composition/Decomposition in Latin lookup 6 subtable" u uni0328
EndChar

StartChar: wcircumflex
Encoding: 373 373 395
Width: 600
Flags: MW
HStem: 0 95<101 189 185 189 185 234 419 423> 348 95<298 302 298 298> 471 20G<6 120 120 120 488 594 594 594> 573 158<153 349 153 349 252 363 252 448>
VStem: 6 588<491 491>
LayerCount: 2
Fore
SplineSet
101 0 m 1
 6 491 l 1
 120 491 l 1
 165 236 l 2
 173 189 178 143 185 95 c 1
 189 95 l 1
 196 143 204 190 214 236 c 2
 260 443 l 1
 346 443 l 1
 392 236 l 2
 402 189 411 143 419 95 c 1
 423 95 l 1
 431 143 436 189 443 236 c 1
 488 491 l 1
 594 491 l 1
 503 0 l 1
 368 0 l 1
 325 205 l 1
 317 251 310 297 302 348 c 1
 298 348 l 1
 292 310 286 267 276 204 c 1
 234 0 l 1
 101 0 l 1
153 573 m 1
 252 731 l 1
 349 731 l 1
 448 573 l 1
 363 573 l 1
 303 670 l 1
 299 670 l 1
 239 573 l 1
 153 573 l 1
EndSplineSet
EndChar

StartChar: Ycircumflex
Encoding: 374 374 218
Width: 600
Flags: MW
HStem: 0 21G<242 242 242 358> 634 20G<27 150 150 150 453 573 573 573> 704 116<148 356 148 356 244 362 244 452>
VStem: 242 116<0 227 0 227>
LayerCount: 2
Fore
SplineSet
242 0 m 1
 242 227 l 1
 27 654 l 1
 150 654 l 1
 232 478 l 2
 255 428 276 380 299 327 c 1
 303 327 l 1
 327 380 350 428 372 479 c 1
 453 654 l 1
 573 654 l 1
 358 227 l 1
 358 0 l 1
 242 0 l 1
238 704 m 1
 148 704 l 1
 244 820 l 1
 356 820 l 1
 452 704 l 1
 362 704 l 1
 302 768 l 1
 298 768 l 1
 238 704 l 1
EndSplineSet
EndChar

StartChar: ycircumflex
Encoding: 375 375 399
Width: 600
Flags: MW
HStem: -202 93<124 161 123 196> 471 20G<40 155 155 155 452 561 561 561> 573 158<158 354 158 354 257 368 257 453>
VStem: 40 521<491 491>
LayerCount: 2
Fore
SplineSet
89 -102 m 1
 102 -106 116 -109 130 -109 c 0
 192 -109 228 -74 248 -25 c 2
 260 6 l 1
 40 491 l 1
 155 491 l 1
 256 250 l 2
 274 206 292 155 310 106 c 1
 314 106 l 1
 329 153 347 204 363 250 c 2
 452 491 l 1
 561 491 l 1
 356 -22 l 1
 314 -133 255 -202 137 -202 c 0
 111 -202 86 -198 67 -192 c 1
 89 -102 l 1
158 573 m 1
 257 731 l 1
 354 731 l 1
 453 573 l 1
 368 573 l 1
 308 670 l 1
 304 670 l 1
 244 573 l 1
 158 573 l 1
EndSplineSet
EndChar

StartChar: Ydieresis
Encoding: 376 376 219
Width: 600
Flags: MW
HStem: 0 21G<242 242 242 358> 634 20G<27 150 150 150 453 573 573 573> 708 119<189.5 224.5 375.5 410.5>
VStem: 148 119<750 784.5> 242 116<0 227 0 227> 333 119<750 784.5>
LayerCount: 2
Fore
SplineSet
242 0 m 1xe8
 242 227 l 1
 27 654 l 1
 150 654 l 1
 232 478 l 2
 255 428 276 380 299 327 c 1
 303 327 l 1
 327 380 350 428 372 479 c 1
 453 654 l 1
 573 654 l 1
 358 227 l 1
 358 0 l 1
 242 0 l 1xe8
207 708 m 0xf4
 172 708 148 733 148 767 c 0
 148 802 172 827 207 827 c 0
 242 827 267 802 267 767 c 0
 267 733 242 708 207 708 c 0xf4
393 708 m 0
 358 708 333 733 333 767 c 0
 333 802 358 827 393 827 c 0
 428 827 452 802 452 767 c 0
 452 733 428 708 393 708 c 0
EndSplineSet
EndChar

StartChar: Zacute
Encoding: 377 377 224
Width: 600
Flags: MW
HStem: 0 98<203 543 203 543> 557 97<91 396 91 539> 704 116<336 345 252 462>
VStem: 61 482<0 70 70 70>
LayerCount: 2
Fore
SplineSet
61 0 m 1
 61 70 l 1
 396 557 l 1
 91 557 l 1
 91 654 l 1
 539 654 l 1
 539 584 l 1
 203 98 l 1
 543 98 l 1
 543 0 l 1
 61 0 l 1
462 820 m 1
 345 704 l 1
 252 704 l 1
 336 820 l 1
 462 820 l 1
EndSplineSet
EndChar

StartChar: zacute
Encoding: 378 378 405
Width: 600
Flags: MW
HStem: 0 92<232 537 232 537> 400 91<105 366 105 528> 573 158<248 458 248 458>
VStem: 71 466<0 62 62 62>
LayerCount: 2
Fore
SplineSet
71 0 m 1
 71 62 l 1
 366 400 l 1
 105 400 l 1
 105 491 l 1
 528 491 l 1
 528 430 l 1
 232 92 l 1
 537 92 l 1
 537 0 l 1
 71 0 l 1
458 731 m 1
 334 573 l 1
 248 573 l 1
 338 731 l 1
 458 731 l 1
EndSplineSet
EndChar

StartChar: Zdotaccent
Encoding: 379 379 226
Width: 600
Flags: MW
HStem: 0 98<203 543 203 543> 557 97<91 396 91 539> 707 131<294.5 335.5>
VStem: 244 142<753.5 792>
LayerCount: 2
Fore
SplineSet
61 0 m 1
 61 70 l 1
 396 557 l 1
 91 557 l 1
 91 654 l 1
 539 654 l 1
 539 584 l 1
 203 98 l 1
 543 98 l 1
 543 0 l 1
 61 0 l 1
315 707 m 0
 274 707 244 734 244 773 c 0
 244 811 274 838 315 838 c 0
 356 838 386 811 386 773 c 0
 386 734 356 707 315 707 c 0
EndSplineSet
EndChar

StartChar: zdotaccent
Encoding: 380 380 407
Width: 600
Flags: MW
HStem: 0 92<232 537 232 537> 400 91<105 366 105 528> 577 155<298 345.5>
VStem: 240 164<631 677>
LayerCount: 2
Fore
SplineSet
71 0 m 1
 71 62 l 1
 366 400 l 1
 105 400 l 1
 105 491 l 1
 528 491 l 1
 528 430 l 1
 232 92 l 1
 537 92 l 1
 537 0 l 1
 71 0 l 1
322 577 m 0
 274 577 240 608 240 654 c 0
 240 700 274 732 322 732 c 0
 369 732 404 700 404 654 c 0
 404 608 369 577 322 577 c 0
EndSplineSet
EndChar

StartChar: Zcaron
Encoding: 381 381 225
Width: 600
Flags: MW
HStem: 0 98<203 543 203 543> 557 97<91 396 91 539> 704 116<163 371 163 259>
VStem: 61 482<0 70 70 70>
LayerCount: 2
Fore
SplineSet
61 0 m 1
 61 70 l 1
 396 557 l 1
 91 557 l 1
 91 654 l 1
 539 654 l 1
 539 584 l 1
 203 98 l 1
 543 98 l 1
 543 0 l 1
 61 0 l 1
377 820 m 1
 467 820 l 1
 371 704 l 1
 259 704 l 1
 163 820 l 1
 253 820 l 1
 313 756 l 1
 317 756 l 1
 377 820 l 1
EndSplineSet
EndChar

StartChar: zcaron
Encoding: 382 382 406
Width: 600
Flags: MW
HStem: 0 92<232 537 232 537> 400 91<105 366 105 528> 573 158<174 273 174 370>
VStem: 71 466<0 62 62 62>
LayerCount: 2
Fore
SplineSet
71 0 m 1
 71 62 l 1
 366 400 l 1
 105 400 l 1
 105 491 l 1
 528 491 l 1
 528 430 l 1
 232 92 l 1
 537 92 l 1
 537 0 l 1
 71 0 l 1
273 573 m 1
 174 731 l 1
 260 731 l 1
 320 634 l 1
 324 634 l 1
 384 731 l 1
 469 731 l 1
 370 573 l 1
 273 573 l 1
EndSplineSet
EndChar

StartChar: uni0180
Encoding: 384 384 254
Width: 600
Flags: MW
HStem: -12 95<306 340.5 290.5 385.5> 0 21G<82 173 82 82> 388 95<319.5 354> 564 56 564 59<198 394 198 394> 564 142<13 198 13 198 82 198 82 394>
VStem: 82 116<128 329 504 564 623 706> 428 119<189.5 287.5>
LayerCount: 2
Fore
SplineSet
198 329 m 1xa7
 198 128 l 1
 234 95 275 83 306 83 c 0
 375 83 428 137 428 242 c 0
 428 333 394 388 314 388 c 0
 277 388 238 370 198 329 c 1xa7
198 504 m 1
 194 418 l 1
 237 458 293 483 346 483 c 0
 473 483 547 389 547 244 c 0
 547 81 442 -12 329 -12 c 0
 283 -12 229 12 186 54 c 1
 183 54 l 1xa7
 173 0 l 1
 82 0 l 1
 82 564 l 1
 13 564 l 1x67
 13 618 l 1
 82 622 l 1xb3
 82 706 l 1
 198 706 l 1xa7
 198 623 l 1
 394 623 l 1xab
 394 564 l 1
 198 564 l 1
 198 504 l 1
EndSplineSet
EndChar

StartChar: uni018F
Encoding: 399 399 230
Width: 600
GlyphClass: 2
Flags: MW
HStem: -12 99<269.5 340.5 269.5 379.5> 273.5 85.5 567 99<272 341>
VStem: 60 118<273 273 273 329.5> 438 117<274 274>
AnchorPoint: "Anchor-2" 325 -22 basechar 0
AnchorPoint: "Anchor-0" 318 676 basechar 0
LayerCount: 2
Fore
SplineSet
438 274 m 1
 178 273 l 1
 186 154 234 87 305 87 c 0
 376 87 426 155 438 274 c 1
179 514 m 1
 128 593 l 1
 170 635 229 666 309 666 c 0
 458 666 555 540 555 328 c 0
 555 117 454 -12 305 -12 c 0
 157 -12 60 118 60 324 c 0
 60 335 61 347 62 359 c 1
 439 359 l 1
 433 492 385 567 297 567 c 0
 247 567 209 544 179 514 c 1
EndSplineSet
EndChar

StartChar: uni0192
Encoding: 402 402 635
Width: 600
Flags: MW
HStem: -97 92<112 202.5> 326 85<216 239 144 249 359 487> 573 93<428.5 465 386.5 471> 626 20G<543 543>
VStem: 48 495 251.5 111
LayerCount: 2
Fore
SplineSet
543 646 m 1x58
 519 560 l 1
 503 567 484 573 458 573 c 0
 399 573 374 527 366 470 c 1
 359 411 l 1
 487 411 l 1
 487 326 l 1
 349 326 l 1
 324 113 l 2
 309 -7 268 -97 137 -97 c 1
 98 -96 66 -89 48 -80 c 1
 65 6 l 1
 83 0 102 -5 122 -5 c 0
 183 -4 204 36 219 144 c 1
 239 326 l 1
 144 326 l 1
 144 406 l 1
 216 411 l 1
 249 411 l 1
 254 460 l 1xe4
 274 600 324 666 449 666 c 0x68
 481 666 522 657 543 646 c 1x58
EndSplineSet
EndChar

StartChar: Ohorn
Encoding: 416 416 163
Width: 600
GlyphClass: 2
Flags: MW
HStem: -12 101<258 342 258 376> 565 101<258 322 224 342>
VStem: 43 119<256.5 403 256.5 435.5> 438 119<256.5 387.5 224 403> 488 91<678.5 706.5>
AnchorPoint: "Anchor-2" 300 -22 basechar 0
AnchorPoint: "Anchor-0" 300 676 basechar 0
LayerCount: 2
Fore
SplineSet
300 89 m 0xf0
 384 89 438 183 438 330 c 0
 438 476 384 565 300 565 c 0
 216 565 162 476 162 330 c 0
 162 183 216 89 300 89 c 0xf0
473 742 m 1xe8
 553 778 l 1
 567 760 579 735 579 706 c 0xe8
 579 642 535 607 473 592 c 1
 526 534 557 445 557 330 c 0xf0
 557 118 452 -12 300 -12 c 0
 148 -12 43 118 43 330 c 0
 43 541 148 666 300 666 c 0
 344 666 385 655 420 635 c 1
 463 643 488 659 488 698 c 0
 488 715 481 730 473 742 c 1xe8
EndSplineSet
EndChar

StartChar: ohorn
Encoding: 417 417 343
Width: 600
GlyphClass: 2
Flags: MW
HStem: -12 94<260 340 260 364.5> 409 94<260 318.5 235.5 340>
VStem: 53 119<196 294.5 196 327> 428 119<196 287.5 163.5 294.5> 479 91<525 553.5>
AnchorPoint: "Anchor-2" 300 -22 basechar 0
AnchorPoint: "Anchor-0" 300 513 basechar 0
LayerCount: 2
Fore
SplineSet
300 82 m 0xf0
 380 82 428 147 428 245 c 0
 428 344 380 409 300 409 c 0
 220 409 172 344 172 245 c 0
 172 147 220 82 300 82 c 0xf0
464 589 m 1xe8
 544 626 l 1
 558 608 570 582 570 553 c 0xe8
 570 491 527 456 467 440 c 1
 515 396 547 330 547 245 c 0xf0
 547 82 429 -12 300 -12 c 0
 171 -12 53 82 53 245 c 0
 53 409 171 503 300 503 c 0
 337 503 372 495 405 481 c 1
 454 489 479 505 479 545 c 0
 479 562 472 577 464 589 c 1xe8
EndSplineSet
EndChar

StartChar: Uhorn
Encoding: 431 431 206
Width: 600
GlyphClass: 2
Flags: MW
HStem: -12 101<266 336.5 266 373> 634 20G<72 188 188 188 417 470 470 470>
VStem: 72 116<250 654> 417 111<241 250 250 609> 554 92<694 726.5>
AnchorPoint: "Anchor-2" 300 -22 basechar 0
AnchorPoint: "Anchor-0" 300 676 basechar 0
LayerCount: 2
Fore
SplineSet
539 762 m 1
 619 798 l 1
 634 780 646 755 646 726 c 0xf8
 646 655 593 622 528 609 c 1
 528 250 l 2
 528 71 445 -12 301 -12 c 0
 158 -12 72 71 72 250 c 2
 72 654 l 1
 188 654 l 1
 188 241 l 2
 188 134 231 89 301 89 c 0
 372 89 417 134 417 241 c 2
 417 654 l 1xf0
 470 654 l 1
 516 658 554 670 554 718 c 0
 554 735 547 750 539 762 c 1
EndSplineSet
EndChar

StartChar: uhorn
Encoding: 432 432 387
Width: 600
GlyphClass: 2
Flags: MW
HStem: -12 99<243 270.5> 0 21G<421 515 421 421> 471 20G<70 185 185 185 400 437 437 437>
VStem: 70 115<187 202 202 491> 400 115<160 452 0 491 0 491> 519 91<531.5 563.5>
AnchorPoint: "Anchor-2" 320 -22 basechar 0
AnchorPoint: "Anchor-0" 295 513 basechar 0
LayerCount: 2
Fore
SplineSet
504 599 m 1xb4
 584 636 l 1
 598 618 610 592 610 563 c 0xb4
 610 500 565 467 515 452 c 1
 515 0 l 1
 421 0 l 1x78
 412 78 l 1
 408 78 l 1
 362 24 307 -12 234 -12 c 0
 120 -12 70 60 70 187 c 2
 70 491 l 1
 185 491 l 1
 185 202 l 2
 185 123 209 87 277 87 c 0
 323 87 356 106 400 160 c 1
 400 491 l 1xb8
 437 491 l 1
 479 494 519 507 519 555 c 0
 519 572 512 587 504 599 c 1xb4
EndSplineSet
EndChar

StartChar: uni01CD
Encoding: 461 461 62
Width: 600
Flags: MW
HStem: 0 21G<20 138 20 20 457 580 457 457> 177 91<215 381 215 407 189 381> 564 90<296 300 296 296> 704 116<148 356 148 244>
VStem: 20 560<0 0>
LayerCount: 2
Fore
SplineSet
356 704 m 1
 244 704 l 1
 148 820 l 1
 238 820 l 1
 298 756 l 1
 302 756 l 1
 362 820 l 1
 452 820 l 1
 356 704 l 1
215 268 m 1
 381 268 l 1
 358 348 l 2
 339 417 319 492 300 564 c 1
 296 564 l 1
 278 491 258 417 238 348 c 2
 215 268 l 1
457 0 m 1
 407 177 l 1
 189 177 l 1
 138 0 l 1
 20 0 l 1
 232 654 l 1
 368 654 l 1
 580 0 l 1
 457 0 l 1
EndSplineSet
EndChar

StartChar: uni01CE
Encoding: 462 462 239
Width: 600
Flags: MW
HStem: -12 90<245.5 268> 0 21G<431 525 431 431> 242 72<410 410> 410 93<272 333> 573 158<163 262 163 360>
VStem: 71 111<119 167.5 119 187> 410 115<138 242 242 242>
LayerCount: 2
Fore
SplineSet
71 132 m 0xbe
 71 242 168 297 410 314 c 1
 406 369 373 410 293 410 c 0
 238 410 183 386 132 358 c 1
 90 435 l 1
 149 470 230 503 314 503 c 0
 450 503 525 428 525 291 c 2
 525 0 l 1
 431 0 l 1x7e
 422 61 l 1
 419 61 l 1
 367 21 301 -12 235 -12 c 0
 139 -12 71 46 71 132 c 0xbe
182 141 m 0
 182 97 221 78 270 78 c 0
 319 78 365 102 410 138 c 1
 410 242 l 1
 234 230 182 194 182 141 c 0
262 573 m 1
 163 731 l 1
 249 731 l 1
 309 634 l 1
 313 634 l 1
 373 731 l 1
 458 731 l 1
 360 573 l 1
 262 573 l 1
EndSplineSet
Substitution2: "'ss02' Style Set 2 in Latin lookup 18 subtable" uni01CE.a
Substitution2: "'aalt' Access All Alternates in Latin lookup 0 subtable" uni01CE.a
EndChar

StartChar: uni01CF
Encoding: 463 463 123
Width: 600
Flags: MW
HStem: 0 98<84 242 84 242 358 516> 556 98<84 242 84 516 358 358 358 516> 704 116<148 356 148 244>
VStem: 242 116<98 556 98 556>
LayerCount: 2
Fore
SplineSet
84 0 m 1
 84 98 l 1
 242 98 l 1
 242 556 l 1
 84 556 l 1
 84 654 l 1
 516 654 l 1
 516 556 l 1
 358 556 l 1
 358 98 l 1
 516 98 l 1
 516 0 l 1
 84 0 l 1
362 820 m 1
 452 820 l 1
 356 704 l 1
 244 704 l 1
 148 820 l 1
 238 820 l 1
 298 756 l 1
 302 756 l 1
 362 820 l 1
EndSplineSet
EndChar

StartChar: uni01D0
Encoding: 464 464 299
Width: 600
Flags: MW
HStem: 0 21G<297 412 297 297> 400 91<84 412 84 297> 573 158<199 298 199 395>
VStem: 297 115<0 400 400 400>
LayerCount: 2
Fore
SplineSet
84 400 m 1
 84 491 l 1
 412 491 l 1
 412 0 l 1
 297 0 l 1
 297 400 l 1
 84 400 l 1
298 573 m 1
 199 731 l 1
 284 731 l 1
 344 634 l 1
 348 634 l 1
 408 731 l 1
 494 731 l 1
 395 573 l 1
 298 573 l 1
EndSplineSet
EndChar

StartChar: uni01D2
Encoding: 466 466 333
Width: 600
Flags: MW
HStem: -12 94<260 340 260 364.5> 409 94<260 340> 573 158<152 251 152 349>
VStem: 53 119<196 294.5 196 327> 428 119<196 294.5>
LayerCount: 2
Fore
SplineSet
53 245 m 0
 53 409 171 503 300 503 c 0
 429 503 547 409 547 245 c 0
 547 82 429 -12 300 -12 c 0
 171 -12 53 82 53 245 c 0
172 245 m 0
 172 147 220 82 300 82 c 0
 380 82 428 147 428 245 c 0
 428 344 380 409 300 409 c 0
 220 409 172 344 172 245 c 0
251 573 m 1
 152 731 l 1
 238 731 l 1
 298 634 l 1
 302 634 l 1
 362 731 l 1
 448 731 l 1
 349 573 l 1
 251 573 l 1
EndSplineSet
EndChar

StartChar: uni01D3
Encoding: 467 467 198
Width: 600
Flags: MW
HStem: -12 101<266 336.5 266 373> 634 20G<72 188 188 188 417 528 528 528> 704 116<148 356 148 244>
VStem: 72 116<250 654> 417 111<241 250 250 654>
LayerCount: 2
Fore
SplineSet
72 250 m 2
 72 654 l 1
 188 654 l 1
 188 241 l 2
 188 134 231 89 301 89 c 0
 372 89 417 134 417 241 c 2
 417 654 l 1
 528 654 l 1
 528 250 l 2
 528 71 445 -12 301 -12 c 0
 158 -12 72 71 72 250 c 2
362 820 m 1
 452 820 l 1
 356 704 l 1
 244 704 l 1
 148 820 l 1
 238 820 l 1
 298 756 l 1
 302 756 l 1
 362 820 l 1
EndSplineSet
EndChar

StartChar: uni01D4
Encoding: 468 468 379
Width: 600
Flags: MW
HStem: -12 99<243 270.5> 0 21G<421 515 421 421> 471 20G<70 185 185 185 400 515 515 515> 573 158<148 246 148 344>
VStem: 70 115<187 202 202 491> 400 115<160 491 0 491>
LayerCount: 2
Fore
SplineSet
515 491 m 1xbc
 515 0 l 1
 421 0 l 1x7c
 412 78 l 1
 408 78 l 1
 362 24 307 -12 234 -12 c 0
 120 -12 70 60 70 187 c 2
 70 491 l 1
 185 491 l 1
 185 202 l 2
 185 123 209 87 277 87 c 0
 323 87 356 106 400 160 c 1
 400 491 l 1
 515 491 l 1xbc
246 573 m 1
 148 731 l 1
 233 731 l 1
 293 634 l 1
 297 634 l 1
 357 731 l 1
 443 731 l 1
 344 573 l 1
 246 573 l 1
EndSplineSet
EndChar

StartChar: uni01D5
Encoding: 469 469 199
Width: 600
Flags: MW
HStem: -12 101<266 336.5 266 373> 634 20G<72 188 188 188 417 528 528 528> 708 107<191.5 222.5 377.5 408.5> 866 58<167 433 167 433>
VStem: 72 116<250 654> 154 107<745.5 776.5> 167 266<866 924 866 924> 339 107<745.5 776.5> 417 111<241 250 250 654>
LayerCount: 2
Fore
SplineSet
72 250 m 2xf880
 72 654 l 1
 188 654 l 1
 188 241 l 2
 188 134 231 89 301 89 c 0
 372 89 417 134 417 241 c 2
 417 654 l 1
 528 654 l 1
 528 250 l 2
 528 71 445 -12 301 -12 c 0
 158 -12 72 71 72 250 c 2xf880
167 866 m 1xf2
 167 924 l 1
 433 924 l 1
 433 866 l 1
 167 866 l 1xf2
207 708 m 0xf5
 176 708 154 730 154 761 c 0
 154 792 176 815 207 815 c 0
 238 815 261 792 261 761 c 0
 261 730 238 708 207 708 c 0xf5
393 708 m 0
 362 708 339 730 339 761 c 0
 339 792 362 815 393 815 c 0
 424 815 446 792 446 761 c 0
 446 730 424 708 393 708 c 0
EndSplineSet
EndChar

StartChar: uni01D6
Encoding: 470 470 380
Width: 600
Flags: MW
HStem: -12 99<243 270.5> 0 21G<421 515 421 421> 471 20G<70 185 185 185 400 515 515 515> 579 107<186.5 218 372.5 403.5> 753 58<164 426 164 426>
VStem: 70 115<187 202 202 491> 149 107<618 648> 164 262<753 811 753 811> 334 108<618 648> 400 115<160 491 0 491>
LayerCount: 2
Fore
SplineSet
515 491 m 1xbc40
 515 0 l 1
 421 0 l 1x7a40
 412 78 l 1
 408 78 l 1
 362 24 307 -12 234 -12 c 0
 120 -12 70 60 70 187 c 2
 70 491 l 1
 185 491 l 1
 185 202 l 2
 185 123 209 87 277 87 c 0
 323 87 356 106 400 160 c 1
 400 491 l 1
 515 491 l 1xbc40
202 579 m 0
 171 579 149 603 149 633 c 0
 149 663 171 686 202 686 c 0
 234 686 256 663 256 633 c 0
 256 603 234 579 202 579 c 0
388 579 m 0xbc80
 357 579 334 603 334 633 c 0
 334 663 357 686 388 686 c 0
 419 686 442 663 442 633 c 0
 442 603 419 579 388 579 c 0xbc80
164 753 m 1xb9
 164 811 l 1
 426 811 l 1
 426 753 l 1
 164 753 l 1xb9
EndSplineSet
EndChar

StartChar: uni01D8
Encoding: 472 472 381
Width: 600
Flags: MW
HStem: -12 99<243 270.5> 0 21G<421 515 421 421> 471 20G<70 185 185 185 400 515 515 515> 579 107<186.5 218 372.5 403.5> 729 107<235 420 235 420>
VStem: 70 115<187 202 202 491> 149 107<618 648> 334 108<618 648> 400 115<160 491 0 491>
LayerCount: 2
Fore
SplineSet
515 491 m 1xbc80
 515 0 l 1
 421 0 l 1x7a80
 412 78 l 1
 408 78 l 1
 362 24 307 -12 234 -12 c 0
 120 -12 70 60 70 187 c 2
 70 491 l 1
 185 491 l 1
 185 202 l 2
 185 123 209 87 277 87 c 0
 323 87 356 106 400 160 c 1
 400 491 l 1
 515 491 l 1xbc80
235 729 m 1
 317 836 l 1
 420 836 l 1
 311 729 l 1
 235 729 l 1
202 579 m 0
 171 579 149 603 149 633 c 0
 149 663 171 686 202 686 c 0
 234 686 256 663 256 633 c 0
 256 603 234 579 202 579 c 0
388 579 m 0xbd
 357 579 334 603 334 633 c 0
 334 663 357 686 388 686 c 0
 419 686 442 663 442 633 c 0
 442 603 419 579 388 579 c 0xbd
EndSplineSet
EndChar

StartChar: uni01D9
Encoding: 473 473 201
Width: 600
Flags: MW
HStem: -12 101<266 336.5 266 373> 634 20G<72 188 188 188 417 528 528 528> 708 107<191.5 222.5 377.5 408.5> 846 116<148 356 148 244>
VStem: 72 116<250 654> 154 107<745.5 776.5> 339 107<745.5 776.5> 417 111<241 250 250 654>
LayerCount: 2
Fore
SplineSet
72 250 m 2xf9
 72 654 l 1
 188 654 l 1
 188 241 l 2
 188 134 231 89 301 89 c 0
 372 89 417 134 417 241 c 2
 417 654 l 1
 528 654 l 1
 528 250 l 2
 528 71 445 -12 301 -12 c 0
 158 -12 72 71 72 250 c 2xf9
207 708 m 0xf6
 176 708 154 730 154 761 c 0
 154 792 176 815 207 815 c 0
 238 815 261 792 261 761 c 0
 261 730 238 708 207 708 c 0xf6
393 708 m 0
 362 708 339 730 339 761 c 0
 339 792 362 815 393 815 c 0
 424 815 446 792 446 761 c 0
 446 730 424 708 393 708 c 0
362 962 m 1
 452 962 l 1
 356 846 l 1
 244 846 l 1
 148 962 l 1
 238 962 l 1
 298 898 l 1
 302 898 l 1
 362 962 l 1
EndSplineSet
EndChar

StartChar: uni01DC
Encoding: 476 476 383
Width: 600
Flags: MW
HStem: -12 99<243 270.5> 0 21G<421 515 421 421> 471 20G<70 185 185 185 400 515 515 515> 579 107<186.5 218 372.5 403.5> 729 107<170 356 170 280>
VStem: 70 115<187 202 202 491> 149 107<618 648> 334 108<618 648> 400 115<160 491 0 491>
LayerCount: 2
Fore
SplineSet
515 491 m 1xbc80
 515 0 l 1
 421 0 l 1x7c80
 412 78 l 1
 408 78 l 1
 362 24 307 -12 234 -12 c 0
 120 -12 70 60 70 187 c 2
 70 491 l 1
 185 491 l 1
 185 202 l 2
 185 123 209 87 277 87 c 0
 323 87 356 106 400 160 c 1
 400 491 l 1
 515 491 l 1xbc80
273 836 m 1
 356 729 l 1
 280 729 l 1
 170 836 l 1
 273 836 l 1
388 579 m 0xbb
 357 579 334 603 334 633 c 0
 334 663 357 686 388 686 c 0
 419 686 442 663 442 633 c 0
 442 603 419 579 388 579 c 0xbb
202 579 m 0
 171 579 149 603 149 633 c 0
 149 663 171 686 202 686 c 0
 234 686 256 663 256 633 c 0
 256 603 234 579 202 579 c 0
EndSplineSet
EndChar

StartChar: Gcaron
Encoding: 486 486 108
Width: 600
Flags: MW
HStem: -12 101<289 364.5 289 382> 259 95<322 435 322 540> 565 101<293 373.5> 704 116<179 387 179 275>
VStem: 48 120<253.5 401.5 253.5 432.5> 435 105<118 259 259 259>
LayerCount: 2
Fore
SplineSet
48 325 m 0
 48 540 175 666 345 666 c 0
 432 666 491 625 530 584 c 1
 466 512 l 1
 436 543 402 565 345 565 c 0
 241 565 168 475 168 328 c 0
 168 179 231 89 347 89 c 0
 382 89 416 99 435 118 c 1
 435 259 l 1
 322 259 l 1
 322 354 l 1
 540 354 l 1
 540 66 l 1
 497 24 424 -12 340 -12 c 0
 174 -12 48 108 48 325 c 0
393 820 m 1
 483 820 l 1
 387 704 l 1
 275 704 l 1
 179 820 l 1
 269 820 l 1
 329 756 l 1
 333 756 l 1
 393 820 l 1
EndSplineSet
EndChar

StartChar: uni01EA
Encoding: 490 490 169
Width: 600
GlyphClass: 2
Flags: MW
HStem: -218 78<342.5 343> -11 100 565 101<258 342>
VStem: 43 119<256.5 403 256.5 435.5> 222 87<-112.5 -103> 438 119<256.5 403>
AnchorPoint: "Anchor-0" 300 676 basechar 0
LayerCount: 2
Fore
SplineSet
392 -126 m 1
 420 -186 l 1
 398 -204 358 -218 328 -218 c 0
 269 -218 222 -186 222 -127 c 0
 222 -79 252 -38 285 -11 c 1
 118 1 43 157 43 330 c 0
 43 541 148 666 300 666 c 0
 452 666 557 541 557 330 c 0
 557 152 488 48 382 2 c 0
 330 -21 309 -65 309 -98 c 0
 309 -127 331 -140 354 -140 c 0
 368 -140 381 -134 392 -126 c 1
300 89 m 0
 384 89 438 183 438 330 c 0
 438 476 384 565 300 565 c 0
 216 565 162 476 162 330 c 0
 162 183 216 89 300 89 c 0
EndSplineSet
Ligature2: "'ccmp' Glyph Composition/Decomposition in Latin lookup 6 subtable" O uni0328
EndChar

StartChar: uni01EB
Encoding: 491 491 349
Width: 600
GlyphClass: 2
Flags: MW
HStem: -208 71<294.5 355> -10 92 409 94<260 340>
VStem: 53 119<196 294.5 196 327> 224 80<-109.5 -95> 428 119<196 294.5>
AnchorPoint: "Anchor-0" 300 513 basechar 0
LayerCount: 2
Fore
SplineSet
224 -120 m 0
 224 -70 256 -30 279 -10 c 1
 156 -1 53 93 53 245 c 0
 53 409 170 503 300 503 c 0
 430 503 547 409 547 245 c 0
 547 112 478 42 373 -2 c 1
 326 -24 304 -62 304 -95 c 0
 304 -124 326 -137 348 -137 c 0
 362 -137 375 -132 386 -124 c 1
 412 -178 l 1
 390 -196 350 -208 322 -208 c 0
 267 -208 224 -178 224 -120 c 0
172 245 m 0
 172 147 220 82 300 82 c 0
 380 82 428 147 428 245 c 0
 428 344 380 409 300 409 c 0
 220 409 172 344 172 245 c 0
EndSplineSet
Ligature2: "'ccmp' Glyph Composition/Decomposition in Latin lookup 6 subtable" o uni0328
EndChar

StartChar: uni0218
Encoding: 536 536 180
Width: 600
Flags: MW
HStem: -223 50<216 226> -12 101<272 344 272 378> 565 101<280 344>
VStem: 87 117<462.5 512 462.5 534> 302 85<-144 -120.5> 426 118<147.5 200>
LayerCount: 2
Fore
SplineSet
58 84 m 1
 126 163 l 1
 175 119 240 89 304 89 c 0
 384 89 426 122 426 173 c 0
 426 227 381 244 316 269 c 1
 227 308 l 1
 158 335 87 386 87 482 c 0
 87 586 181 666 314 666 c 0
 394 666 470 634 524 583 c 1
 464 509 l 1
 420 544 374 565 314 565 c 0
 246 565 204 536 204 488 c 0
 204 437 257 419 316 396 c 1
 402 359 l 1
 485 326 544 277 544 182 c 0
 544 76 454 -12 302 -12 c 0
 210 -12 123 23 58 84 c 1
278 -45 m 1
 356 -54 387 -78 387 -125 c 0
 387 -188 311 -217 226 -223 c 1
 216 -173 l 1
 266 -167 302 -156 302 -132 c 0
 302 -109 284 -98 254 -91 c 1
 278 -45 l 1
EndSplineSet
EndChar

StartChar: uni0219
Encoding: 537 537 360
Width: 600
Flags: MW
HStem: -223 50<214 224> -12 87<268 344.5 268 377.5> 416 87<272 338>
VStem: 92 115<344.5 377.5 344.5 399> 300 85<-144 -120.5> 418 115<117 151>
LayerCount: 2
Fore
SplineSet
62 64 m 1
 116 137 l 1
 171 99 230 75 306 75 c 0
 383 75 418 100 418 134 c 0
 418 168 372 189 273 215 c 0
 179 240 92 282 92 356 c 0
 92 442 170 503 309 503 c 0
 389 503 463 471 513 438 c 1
 460 367 l 1
 416 396 366 416 310 416 c 0
 234 416 207 393 207 362 c 0
 207 327 266 308 345 288 c 0
 459 258 533 221 533 140 c 0
 533 56 452 -12 303 -12 c 0
 211 -12 123 22 62 64 c 1
276 -45 m 1
 355 -54 385 -78 385 -125 c 0
 385 -188 309 -217 224 -223 c 1
 214 -173 l 1
 264 -167 300 -156 300 -132 c 0
 300 -109 282 -98 253 -91 c 1
 276 -45 l 1
EndSplineSet
EndChar

StartChar: uni021A
Encoding: 538 538 186
Width: 600
Flags: MW
HStem: -223 50<206 216> 0 21G<242 242 242 358> 556 98<36 242 36 564 358 358 358 564>
VStem: 242 116<0 556 0 556> 292 85<-144 -120.5>
LayerCount: 2
Fore
SplineSet
242 0 m 1xf0
 242 556 l 1
 36 556 l 1
 36 654 l 1
 564 654 l 1
 564 556 l 1
 358 556 l 1
 358 0 l 1
 242 0 l 1xf0
268 -45 m 1xe8
 347 -54 377 -78 377 -125 c 0
 377 -188 301 -217 216 -223 c 1
 206 -173 l 1
 256 -167 292 -156 292 -132 c 0
 292 -109 274 -98 245 -91 c 1
 268 -45 l 1xe8
EndSplineSet
EndChar
